<?xml version="1.0" encoding="utf-8"?>
<svg width="44.878" height="46" viewBox="0 0 44.878 46" fill="none" xmlns="http://www.w3.org/2000/svg">
  <g>
    <rect width="44.878" height="46" />
    <path id="Vector" d="M15.3871 0C12.8555 0 10.4278 1.00565 8.63769 2.79571L0 11.4333L0 15.3871C0 18.1804 1.19986 20.6935 3.1123 22.439C1.19986 24.1845 0 26.6976 0 29.4909L0 33.4447L8.63769 42.0824C10.4278 43.8724 12.8555 44.878 15.3871 44.878C18.1804 44.878 20.6935 43.6782 22.439 41.7657C24.1846 43.6782 26.6976 44.878 29.4909 44.878C32.0225 44.878 34.4503 43.8724 36.2404 42.0824L44.878 33.4447L44.878 29.4909C44.878 26.6976 43.6782 24.1845 41.7658 22.439C43.6782 20.6935 44.878 18.1804 44.878 15.3871L44.878 11.4333L36.2404 2.79571C34.4503 1.00565 32.0225 0 29.4909 0C26.6976 0 24.1846 1.19986 22.439 3.1123C20.6935 1.19986 18.1804 0 15.3871 0L15.3871 0ZM19.9458 9.54513L19.9458 11.4333L12.7686 18.6106C11.9137 19.4655 10.7542 19.9458 9.54513 19.9458C7.02744 19.9458 4.98644 17.9048 4.98644 15.3871L4.98644 13.4989L12.1636 6.32165C13.0186 5.46674 14.1781 4.98645 15.3871 4.98645C17.9048 4.98645 19.9458 7.02744 19.9458 9.54513L19.9458 9.54513ZM32.1095 18.6106L24.9322 11.4333L24.9322 9.54513C24.9322 7.02744 26.9733 4.98645 29.4909 4.98645C30.7 4.98645 31.8595 5.46674 32.7144 6.32165L39.8916 13.4989L39.8916 15.3871C39.8916 17.9048 37.8506 19.9458 35.3329 19.9458C34.1239 19.9458 32.9644 19.4655 32.1095 18.6106L32.1095 18.6106ZM28.9001 22.439C28.7925 22.3408 28.6869 22.24 28.5835 22.1365L22.439 15.9921L16.2945 22.1365C16.1911 22.24 16.0855 22.3408 15.9779 22.439C16.0855 22.5372 16.1911 22.638 16.2945 22.7415L22.439 28.886L28.5835 22.7415C28.6869 22.638 28.7925 22.5372 28.9001 22.439L28.9001 22.439ZM19.9458 33.4447L12.7686 26.2674C11.9137 25.4125 10.7542 24.9322 9.54513 24.9322C7.02744 24.9322 4.98644 26.9733 4.98644 29.4909L4.98644 31.3792L12.1636 38.5564C13.0186 39.4113 14.1781 39.8916 15.3871 39.8916C17.9048 39.8916 19.9458 37.8506 19.9458 35.3329L19.9458 33.4447L19.9458 33.4447ZM24.9322 33.4447L24.9322 35.3329C24.9322 37.8506 26.9733 39.8916 29.4909 39.8916C30.7 39.8916 31.8595 39.4113 32.7144 38.5564L39.8916 31.3792L39.8916 29.4909C39.8916 26.9733 37.8506 24.9322 35.3329 24.9322C34.1239 24.9322 32.9644 25.4125 32.1095 26.2674L24.9322 33.4447L24.9322 33.4447Z" fill="#FF630B" fill-rule="evenodd" transform="translate(0 0.579)" />
  </g>
</svg>