<?xml version="1.0" encoding="utf-8"?>
<svg width="50" height="39" viewBox="0 0 50 39" fill="none" xmlns="http://www.w3.org/2000/svg">
  <g>
    <rect width="50" height="39" />
    <path id="Vector" d="M8.43948 2.64428C9.55488 0.990985 11.4189 0 13.4133 0L20.0192 0C24.8264 0 27.6816 5.37068 24.993 9.35572L17.5899 20.3286C16.4745 21.9819 14.6105 22.9729 12.6161 22.9729L6.01018 22.9729C1.20299 22.9729 -1.65227 17.6022 1.03633 13.6172L8.43948 2.64428L8.43948 2.64428Z" fill="#DAFF00" fill-rule="evenodd" transform="translate(6.276 2)" />
    <path id="Vector" d="M4.45654 14.0749C2.97771 14.0749 1.59552 14.8097 0.768435 16.0356C-1.22515 18.9906 0.892015 22.9729 4.45654 22.9729L14.9799 22.9729C16.9743 22.9729 18.8383 21.9819 19.9537 20.3286L27.3569 9.35571C30.0455 5.37067 27.1902 0 22.383 0L20.5611 0C18.5667 0 16.7027 0.990983 15.5873 2.64427L9.49279 11.6775C8.48148 13.1764 6.79149 14.0749 4.9833 14.0749L4.45654 14.0749L4.45654 14.0749Z" fill="#DAFF00" fill-rule="evenodd" transform="translate(15.331 13.027)" />
  </g>
</svg>