<?xml version="1.0" encoding="utf-8"?>
<svg width="64.103" height="50" viewBox="0 0 64.103 50" fill="none" xmlns="http://www.w3.org/2000/svg">
  <g>
    <rect width="64.103" height="50" />
    <path id="Vector" d="M12.811 2.64428C13.9265 0.990983 15.7905 0 17.7849 0L30.3369 0C35.1441 0 37.9993 5.37068 35.3107 9.35572L23.536 26.8082C22.4206 28.4615 20.5566 29.4524 18.5622 29.4524L6.01018 29.4524C1.20298 29.4524 -1.65227 24.0818 1.03633 20.0967L12.811 2.64428L12.811 2.64428Z" fill="#111111" fill-rule="evenodd" transform="translate(6.558 2.564)" />
    <path id="Vector" d="M5.71353 18.0447C3.81757 18.0447 2.04555 18.9868 0.985165 20.5585C-1.57071 24.3469 1.14362 29.4524 5.71353 29.4524L20.1046 29.4524C22.099 29.4524 23.963 28.4615 25.0785 26.8082L36.8532 9.35572C39.5418 5.37068 36.6865 0 31.8793 0L25.4607 0C23.4663 0 21.6023 0.990982 20.4868 2.64427L11.8805 15.4005C10.7651 17.0538 8.90112 18.0447 6.90672 18.0447L5.71353 18.0447L5.71353 18.0447Z" fill="#111111" fill-rule="evenodd" transform="translate(19.655 16.701)" />
  </g>
</svg>