<?xml version="1.0" encoding="utf-8"?>
<svg width="24" height="24" viewBox="0 0 24 24" fill="none" xmlns="http://www.w3.org/2000/svg">
  <g>
    <rect width="24" height="24" />
    <g id="vuesax/linear/cards" transform="translate(1 2)">
      <path id="Vector" d="M0 1C0 0.447715 0.447715 0 1 0L18 0C18.5523 0 19 0.447715 19 1C19 1.55229 18.5523 2 18 2L1 2C0.447715 2 0 1.55229 0 1L0 1Z" fill="#FFFFFF" fill-rule="evenodd" transform="translate(0 9.61)" />
      <path id="Vector" d="M4.78003 0C4.47752 0 4.1995 0.0108199 3.95837 0.0208669C3.95259 0.0211079 3.94681 0.021399 3.94103 0.0217409C2.68701 0.095818 1.55824 0.371944 0.827551 1.29386C0.14094 2.16016 0 3.37297 0 4.73L0 11.72C0 13.206 0.16563 14.5366 1.05513 15.4143C1.94 16.2875 3.2775 16.45 4.78003 16.45L14.22 16.45C15.6983 16.45 17.0136 16.2938 17.8977 15.4621C18.7991 14.6141 18.9849 13.3234 18.9999 11.8905L19 11.8905L19 4.73C19 3.24405 18.8344 1.91343 17.9449 1.0357C17.06 0.162534 15.7225 0 14.22 0L4.78003 0L4.78003 0ZM2.39495 2.53614C2.57132 2.31361 2.94115 2.08532 4.05068 2.01875C4.28662 2.00895 4.52579 2 4.78003 2L14.22 2C15.7374 2 16.29 2.21247 16.5401 2.4593C16.7856 2.70156 17 3.23595 17 4.73L17 11.8786L17 11.88C16.984 13.289 16.7653 13.7815 16.5273 14.0054C16.2713 14.2462 15.7116 14.45 14.22 14.45L4.78003 14.45C3.26256 14.45 2.71004 14.2375 2.4599 13.9907C2.21438 13.7484 2 13.214 2 11.72L2 4.73C2 3.38703 2.17406 2.81484 2.39495 2.53614L2.39495 2.53614Z" fill="#FFFFFF" fill-rule="evenodd" transform="translate(0 3.55)" />
      <path id="Vector" d="M4.78003 0C3.30167 0 1.98637 0.156199 1.1023 0.987905C0.200929 1.8359 0.0151393 3.12656 5.53131e-05 4.55947C-0.00282955 4.83373 0.10705 5.09713 0.30398 5.28802C0.50091 5.47892 0.767601 5.58055 1.04163 5.56913C1.2805 5.55918 1.52254 5.55 1.78003 5.55L11.22 5.55C12.7374 5.55 13.29 5.76246 13.5401 6.0093C13.7856 6.25156 14 6.78595 14 8.28L14 15.43C14 15.7055 14.1136 15.9687 14.3141 16.1577C14.5145 16.3466 14.784 16.4445 15.059 16.4283C16.313 16.3542 17.4418 16.0781 18.1724 15.1561C18.8591 14.2898 19 13.077 19 11.72L19 4.73C19 3.24405 18.8344 1.91343 17.9449 1.0357C17.06 0.162534 15.7225 0 14.22 0L4.78003 0L4.78003 0ZM11.22 3.55L2.06181 3.55C2.14598 2.8951 2.30454 2.60283 2.47273 2.44459C2.72868 2.2038 3.28839 2 4.78003 2L14.22 2C15.7374 2 16.29 2.21247 16.5401 2.4593C16.7856 2.70156 17 3.23595 17 4.73L17 11.72C17 13.063 16.8259 13.6352 16.6051 13.9139C16.5031 14.0425 16.3366 14.173 16 14.2731L16 8.28C16 6.79404 15.8344 5.46343 14.9449 4.5857C14.06 3.71253 12.7225 3.55 11.22 3.55L11.22 3.55Z" fill="#FFFFFF" fill-rule="evenodd" transform="translate(3 0)" />
      <path id="Vector" d="M0 1C0 0.447715 0.447715 0 1 0L2.71997 0C3.27226 0 3.71997 0.447715 3.71997 1C3.71997 1.55228 3.27226 2 2.71997 2L1 2C0.447715 2 0 1.55228 0 1L0 1Z" fill="#FFFFFF" fill-rule="evenodd" transform="translate(3.25 14.81)" />
      <path id="Vector" d="M0 1C0 0.447715 0.447715 0 1 0L4.44 0C4.99229 0 5.44 0.447715 5.44 1C5.44 1.55228 4.99229 2 4.44 2L1 2C0.447715 2 0 1.55228 0 1L0 1Z" fill="#FFFFFF" fill-rule="evenodd" transform="translate(7.11 14.81)" />
    </g>
  </g>
</svg>