<?xml version="1.0" encoding="utf-8"?>
<svg width="730.5" height="249" viewBox="0 0 730.5 249" fill="none" xmlns="http://www.w3.org/2000/svg">
  <defs>
    <filter color-interpolation-filters="sRGB" x="-157" y="-101" width="159" height="103" id="filter_1">
      <feFlood flood-opacity="0" result="BackgroundImageFix_1" />
      <feColorMatrix type="matrix" values="0 0 0 0 0 0 0 0 0 0 0 0 0 0 0 0 0 0 1 0" in="SourceAlpha" />
      <feOffset dx="0" dy="20" />
      <feGaussianBlur stdDeviation="18" />
      <feColorMatrix type="matrix" values="0 0 0 0 0.027 0 0 0 0 0.027 0 0 0 0 0.157 0 0 0 0.039 0" />
      <feBlend mode="normal" in2="BackgroundImageFix_1" result="Shadow_2" />
      <feBlend mode="normal" in="SourceGraphic" in2="Shadow_2" result="Shape_3" />
    </filter>
  </defs>
  <g id="SingleElement">
    <g transform="translate(0 98)">
      <rect width="730" height="185" />
      <g>
        <rect width="730" height="21" />
        <path d="M1.72266 12.5296Q3.06592 11.3675 3.8418 10.6189Q4.62109 9.87041 5.13721 9.06035Q5.65674 8.24688 5.65674 7.4334Q5.65674 6.59258 5.25684 6.11748Q4.85693 5.64238 4.00244 5.64238Q3.17871 5.64238 2.72412 6.16875Q2.26953 6.6917 2.23877 7.57354L0.700684 7.57354Q0.741699 5.97734 1.65771 5.13311Q2.57715 4.28545 3.98877 4.28545Q5.5166 4.28545 6.37793 5.12627Q7.23926 5.96367 7.23926 7.36504Q7.23926 8.37334 6.72656 9.30303Q6.21729 10.2327 5.50977 10.9676Q4.80225 11.7024 3.7085 12.6697L3.07959 13.2303L7.51953 13.2303L7.51953 14.5599L0.714355 14.5599L0.714355 13.3978L1.72266 12.5296ZM14.4901 14.7L10.7235 10.3455L10.7235 14.7L9.12732 14.7L9.12732 4.96904L10.7235 4.96904L10.7235 9.40899L14.5038 4.96904L16.5067 4.96904L12.2787 9.84307L16.5751 14.7L14.4901 14.7Z" transform="" fill="#676767" />
        <path id="Line 3" d="M0 0L683 0.5" fill="none" stroke-width="1" stroke="#282828" transform="translate(47 10.25)" />
      </g>
      <g transform="translate(0 41)">
        <rect width="730" height="21" />
        <path d="M2.82666 11.928Q2.9668 12.6287 3.42822 12.9944Q3.89307 13.3567 4.67578 13.3567Q5.67041 13.3567 6.13184 12.574Q6.59326 11.7879 6.59326 9.89775Q6.2583 10.3729 5.6499 10.6326Q5.0415 10.8924 4.32715 10.8924Q3.41455 10.8924 2.67285 10.5232Q1.93115 10.1507 1.50391 9.41582Q1.07666 8.68096 1.07666 7.63164Q1.07666 6.09014 1.979 5.17412Q2.88477 4.25469 4.46729 4.25469Q6.37109 4.25469 7.17432 5.52275Q7.98096 6.79082 7.98096 9.40899Q7.98096 11.2137 7.68018 12.3621Q7.37939 13.5105 6.63428 14.0984Q5.89258 14.6863 4.57666 14.6863Q3.07959 14.6863 2.26611 13.9036Q1.45605 13.1175 1.35693 11.928L2.82666 11.928ZM4.60742 9.54912Q5.44482 9.54912 5.92676 9.02275Q6.41211 8.49639 6.41211 7.63164Q6.41211 6.66436 5.89941 6.12774Q5.39014 5.5877 4.5083 5.5877Q3.62646 5.5877 3.11377 6.14141Q2.60449 6.6917 2.60449 7.58721Q2.60449 8.4417 3.1001 8.99541Q3.59912 9.54912 4.60742 9.54912ZM9.73082 9.46367Q9.73082 7.04033 10.5477 5.67656Q11.368 4.31279 13.371 4.31279Q15.3705 4.31279 16.1908 5.67656Q17.0111 7.04033 17.0111 9.46367Q17.0111 11.9144 16.1908 13.2952Q15.3705 14.6727 13.371 14.6727Q11.368 14.6727 10.5477 13.2952Q9.73082 11.9144 9.73082 9.46367ZM15.4422 9.46367Q15.4422 8.32891 15.2953 7.54619Q15.1483 6.76348 14.7005 6.26787Q14.2528 5.76885 13.371 5.76885Q12.4891 5.76885 12.0414 6.26787Q11.5936 6.76348 11.4466 7.54619Q11.2997 8.32891 11.2997 9.46367Q11.2997 10.6395 11.4364 11.4393Q11.5765 12.2356 12.0311 12.7278Q12.4891 13.2166 13.371 13.2166Q14.2528 13.2166 14.7074 12.7278Q15.162 12.2356 15.3021 11.4393Q15.4422 10.6395 15.4422 9.46367ZM18.7048 9.46367Q18.7048 7.04033 19.5217 5.67656Q20.342 4.31279 22.345 4.31279Q24.3445 4.31279 25.1648 5.67656Q25.9851 7.04033 25.9851 9.46367Q25.9851 11.9144 25.1648 13.2952Q24.3445 14.6727 22.345 14.6727Q20.342 14.6727 19.5217 13.2952Q18.7048 11.9144 18.7048 9.46367ZM24.4162 9.46367Q24.4162 8.32891 24.2693 7.54619Q24.1223 6.76348 23.6745 6.26787Q23.2268 5.76885 22.345 5.76885Q21.4631 5.76885 21.0154 6.26787Q20.5676 6.76348 20.4206 7.54619Q20.2737 8.32891 20.2737 9.46367Q20.2737 10.6395 20.4104 11.4393Q20.5505 12.2356 21.0051 12.7278Q21.4631 13.2166 22.345 13.2166Q23.2268 13.2166 23.6814 12.7278Q24.136 12.2356 24.2761 11.4393Q24.4162 10.6395 24.4162 9.46367Z" transform="" fill="#676767" />
        <path id="Line 3" d="M0 0L683 0.5" fill="none" stroke-width="1" stroke="#282828" transform="translate(47 10.25)" />
      </g>
      <g transform="translate(0 82)">
        <rect width="730" height="21" />
        <path d="M0.813477 7.01299Q0.895508 5.71074 1.81152 4.98272Q2.73096 4.25469 4.15967 4.25469Q5.13721 4.25469 5.85156 4.60674Q6.56592 4.95537 6.92822 5.55693Q7.29395 6.1585 7.29395 6.91729Q7.29395 7.78545 6.83252 8.40068Q6.37109 9.01592 5.7251 9.22441L5.7251 9.28252Q6.55225 9.53545 7.01367 10.202Q7.4751 10.865 7.4751 11.9007Q7.4751 12.7244 7.0957 13.3704Q6.71973 14.013 5.97803 14.3855Q5.23633 14.7547 4.20068 14.7547Q2.68652 14.7547 1.7124 13.9788Q0.741699 13.2029 0.67334 11.7469L2.21143 11.7469Q2.26953 12.4886 2.78564 12.9568Q3.30518 13.4251 4.18701 13.4251Q5.0415 13.4251 5.50293 12.9568Q5.96436 12.4886 5.96436 11.7469Q5.96436 10.7659 5.33887 10.3523Q4.7168 9.93877 3.43164 9.93877L3.06592 9.93877L3.06592 8.62285L3.44531 8.62285Q4.57666 8.60918 5.17139 8.24688Q5.76953 7.88115 5.76953 7.09844Q5.76953 6.4251 5.33545 6.02861Q4.90137 5.62871 4.10156 5.62871Q3.31885 5.62871 2.88477 6.02861Q2.45068 6.4251 2.36523 7.01299L0.813477 7.01299ZM9.15682 9.46367Q9.15682 7.04033 9.97371 5.67656Q10.794 4.31279 12.797 4.31279Q14.7965 4.31279 15.6168 5.67656Q16.4371 7.04033 16.4371 9.46367Q16.4371 11.9144 15.6168 13.2952Q14.7965 14.6727 12.797 14.6727Q10.794 14.6727 9.97371 13.2952Q9.15682 11.9144 9.15682 9.46367ZM14.8682 9.46367Q14.8682 8.32891 14.7213 7.54619Q14.5743 6.76348 14.1265 6.26787Q13.6788 5.76885 12.797 5.76885Q11.9151 5.76885 11.4674 6.26787Q11.0196 6.76348 10.8726 7.54619Q10.7257 8.32891 10.7257 9.46367Q10.7257 10.6395 10.8624 11.4393Q11.0025 12.2356 11.4571 12.7278Q11.9151 13.2166 12.797 13.2166Q13.6788 13.2166 14.1334 12.7278Q14.588 12.2356 14.7281 11.4393Q14.8682 10.6395 14.8682 9.46367ZM18.1308 9.46367Q18.1308 7.04033 18.9477 5.67656Q19.768 4.31279 21.771 4.31279Q23.7705 4.31279 24.5908 5.67656Q25.4111 7.04033 25.4111 9.46367Q25.4111 11.9144 24.5908 13.2952Q23.7705 14.6727 21.771 14.6727Q19.768 14.6727 18.9477 13.2952Q18.1308 11.9144 18.1308 9.46367ZM23.8422 9.46367Q23.8422 8.32891 23.6953 7.54619Q23.5483 6.76348 23.1005 6.26787Q22.6528 5.76885 21.771 5.76885Q20.8891 5.76885 20.4414 6.26787Q19.9936 6.76348 19.8466 7.54619Q19.6997 8.32891 19.6997 9.46367Q19.6997 10.6395 19.8364 11.4393Q19.9765 12.2356 20.4311 12.7278Q20.8891 13.2166 21.771 13.2166Q22.6528 13.2166 23.1074 12.7278Q23.562 12.2356 23.7021 11.4393Q23.8422 10.6395 23.8422 9.46367Z" transform="" fill="#676767" />
        <path id="Line 3" d="M0 0L683 0.5" fill="none" stroke-width="1" stroke="#282828" transform="translate(47 10.25)" />
      </g>
      <g transform="translate(0 123)">
        <rect width="730" height="21" />
        <path d="M0.628906 5.95L0.628906 4.49395L3.54102 4.49395L3.54102 14.7L1.93115 14.7L1.93115 5.95L0.628906 5.95ZM5.74082 9.46367Q5.74082 7.04033 6.55771 5.67656Q7.37803 4.31279 9.38096 4.31279Q11.3805 4.31279 12.2008 5.67656Q13.0211 7.04033 13.0211 9.46367Q13.0211 11.9144 12.2008 13.2952Q11.3805 14.6727 9.38096 14.6727Q7.37803 14.6727 6.55771 13.2952Q5.74082 11.9144 5.74082 9.46367ZM11.4522 9.46367Q11.4522 8.32891 11.3053 7.54619Q11.1583 6.76348 10.7105 6.26787Q10.2628 5.76885 9.38096 5.76885Q8.49912 5.76885 8.05137 6.26787Q7.60361 6.76348 7.45664 7.54619Q7.30967 8.32891 7.30967 9.46367Q7.30967 10.6395 7.44639 11.4393Q7.58652 12.2356 8.04111 12.7278Q8.49912 13.2166 9.38096 13.2166Q10.2628 13.2166 10.7174 12.7278Q11.172 12.2356 11.3121 11.4393Q11.4522 10.6395 11.4522 9.46367ZM14.7148 9.46367Q14.7148 7.04033 15.5317 5.67656Q16.352 4.31279 18.355 4.31279Q20.3545 4.31279 21.1748 5.67656Q21.9951 7.04033 21.9951 9.46367Q21.9951 11.9144 21.1748 13.2952Q20.3545 14.6727 18.355 14.6727Q16.352 14.6727 15.5317 13.2952Q14.7148 11.9144 14.7148 9.46367ZM20.4262 9.46367Q20.4262 8.32891 20.2793 7.54619Q20.1323 6.76348 19.6845 6.26787Q19.2368 5.76885 18.355 5.76885Q17.4731 5.76885 17.0254 6.26787Q16.5776 6.76348 16.4306 7.54619Q16.2837 8.32891 16.2837 9.46367Q16.2837 10.6395 16.4204 11.4393Q16.5605 12.2356 17.0151 12.7278Q17.4731 13.2166 18.355 13.2166Q19.2368 13.2166 19.6914 12.7278Q20.146 12.2356 20.2861 11.4393Q20.4262 10.6395 20.4262 9.46367Z" transform="" fill="#676767" />
        <path id="Line 3" d="M0 0L683 0.5" fill="none" stroke-width="1" stroke="#282828" transform="translate(47 10.25)" />
      </g>
      <g transform="translate(0 164)">
        <rect width="730" height="21" />
        <path d="M0.84082 9.46367Q0.84082 7.04033 1.65771 5.67656Q2.47803 4.31279 4.48096 4.31279Q6.48047 4.31279 7.30078 5.67656Q8.12109 7.04033 8.12109 9.46367Q8.12109 11.9144 7.30078 13.2952Q6.48047 14.6727 4.48096 14.6727Q2.47803 14.6727 1.65771 13.2952Q0.84082 11.9144 0.84082 9.46367ZM6.55225 9.46367Q6.55225 8.32891 6.40527 7.54619Q6.2583 6.76348 5.81055 6.26787Q5.36279 5.76885 4.48096 5.76885Q3.59912 5.76885 3.15137 6.26787Q2.70361 6.76348 2.55664 7.54619Q2.40967 8.32891 2.40967 9.46367Q2.40967 10.6395 2.54639 11.4393Q2.68652 12.2356 3.14111 12.7278Q3.59912 13.2166 4.48096 13.2166Q5.36279 13.2166 5.81738 12.7278Q6.27197 12.2356 6.41211 11.4393Q6.55225 10.6395 6.55225 9.46367Z" transform="" fill="#676767" />
        <path id="Line 3" d="M0 0L683 0.5" fill="none" stroke-width="1" stroke="#282828" transform="translate(47 10.25)" />
      </g>
    </g>
    <g transform="translate(65 96)">
      <rect width="648" height="207" />
      <g transform="translate(0 105)">
        <rect width="60" height="102" />
        <g>
          <rect width="60" height="71" />
          <path id="Rectangle 1" d="M14 0C17.3142 0 20 2.68584 20 6L20 51L0 51L0 6C0 2.68584 2.68584 0 6 0L14 0Z" fill="#732ECB" transform="translate(0 20)" />
          <path id="Rectangle 2" d="M14 0C17.3142 0 20 2.68584 20 6L20 71L0 71L0 6C0 2.68584 2.68584 0 6 0L14 0Z" fill="#2ECB89" transform="translate(20 0)" />
          <path id="Rectangle 3" d="M14 0C17.3142 0 20 2.68584 20 6L20 28L0 28L0 6C0 2.68584 2.68584 0 6 0L14 0Z" fill="#2EA5CB" transform="translate(40 43)" />
        </g>
        <path d="M6.35742 4.96904L6.35742 11.9827Q6.35742 13.285 5.56445 14.0438Q4.7749 14.7991 3.48633 14.7991Q2.19775 14.7991 1.40479 14.0438Q0.615234 13.285 0.615234 11.9827L2.2251 11.9827Q2.23877 12.6287 2.55322 13.0081Q2.87109 13.3841 3.48633 13.3841Q4.10156 13.3841 4.42285 13.0013Q4.74756 12.615 4.74756 11.9827L4.74756 4.96904L6.35742 4.96904ZM8.41553 10.8069Q8.41553 9.64482 8.89746 8.74932Q9.3794 7.85381 10.2134 7.3582Q11.0474 6.85918 12.0557 6.85918Q12.9648 6.85918 13.6416 7.21807Q14.3218 7.57354 14.7285 8.10674L14.7285 6.98565L16.3384 6.98565L16.3384 14.7L14.7285 14.7L14.7285 13.5516Q14.3218 14.0984 13.6211 14.4642Q12.9204 14.8265 12.0249 14.8265Q11.0337 14.8265 10.2065 14.3172Q9.3794 13.8045 8.89746 12.8885Q8.41553 11.969 8.41553 10.8069ZM14.7285 10.8377Q14.7285 10.0379 14.397 9.45Q14.0689 8.86211 13.5356 8.55449Q13.0059 8.24688 12.3906 8.24688Q11.7754 8.24688 11.2422 8.54766Q10.709 8.84844 10.3809 9.42949Q10.0527 10.0105 10.0527 10.8069Q10.0527 11.6067 10.3809 12.2083Q10.709 12.8099 11.249 13.1243Q11.7891 13.4388 12.3906 13.4388Q13.0059 13.4388 13.5356 13.1312Q14.0689 12.8235 14.397 12.2288Q14.7285 11.6341 14.7285 10.8377ZM22.3304 6.85918Q23.2396 6.85918 23.9608 7.23857Q24.6819 7.61455 25.0887 8.35967Q25.4954 9.10137 25.4954 10.1507L25.4954 14.7L23.9129 14.7L23.9129 10.3865Q23.9129 9.35088 23.3934 8.80059Q22.8773 8.24688 21.9783 8.24688Q21.0828 8.24688 20.5565 8.80059Q20.0335 9.35088 20.0335 10.3865L20.0335 14.7L18.4373 14.7L18.4373 6.98565L20.0335 6.98565L20.0335 7.86748Q20.4266 7.39238 21.035 7.12578Q21.6434 6.85918 22.3304 6.85918Z" transform="translate(16.5 81)" fill="#676767" />
      </g>
      <g transform="translate(84 60)">
        <rect width="60" height="147" />
        <g>
          <rect width="60" height="116" />
          <path id="Rectangle 1" d="M14 0C17.3142 0 20 2.68584 20 6L20 51L0 51L0 6C0 2.68584 2.68584 0 6 0L14 0Z" fill="#732ECB" transform="translate(0 65)" />
          <path id="Rectangle 2" d="M14 0C17.3142 0 20 2.68584 20 6L20 116L0 116L0 6C0 2.68584 2.68584 0 6 0L14 0Z" fill="#2ECB89" transform="translate(20 0)" />
          <path id="Rectangle 3" d="M14 0C17.3142 0 20 2.68584 20 6L20 78L0 78L0 6C0 2.68584 2.68584 0 6 0L14 0Z" fill="#2EA5CB" transform="translate(40 38)" />
        </g>
        <path d="M6.77441 4.96904L6.77441 6.27129L2.64551 6.27129L2.64551 9.14238L5.86523 9.14238L5.86523 10.4446L2.64551 10.4446L2.64551 14.7L1.04932 14.7L1.04932 4.96904L6.77441 4.96904ZM15.3311 10.6531Q15.3311 11.0872 15.273 11.4393L9.38041 11.4393Q9.44877 12.3621 10.064 12.9227Q10.6827 13.4832 11.5782 13.4832Q12.8667 13.4832 13.3965 12.4031L15.1192 12.4031Q14.7705 13.4695 13.8511 14.1497Q12.9351 14.8265 11.5782 14.8265Q10.4707 14.8265 9.59574 14.3309Q8.72074 13.8318 8.22514 12.9295Q7.72953 12.0271 7.72953 10.8377Q7.72953 9.64482 8.21146 8.74248Q8.6934 7.84014 9.5684 7.35137Q10.4434 6.85918 11.5782 6.85918Q12.6685 6.85918 13.523 7.3377Q14.3775 7.81279 14.8526 8.67412Q15.3311 9.53545 15.3311 10.6531ZM13.6631 10.1507Q13.6495 9.26885 13.0342 8.73565Q12.419 8.20244 11.5064 8.20244Q10.6827 8.20244 10.0948 8.72881Q9.50688 9.25518 9.39408 10.1507L13.6631 10.1507ZM18.4935 8.13408Q18.9002 7.57354 19.6078 7.21807Q20.3153 6.85918 21.1834 6.85918Q22.2054 6.85918 23.0292 7.35137Q23.8563 7.84014 24.3314 8.74248Q24.8065 9.64482 24.8065 10.8069Q24.8065 11.969 24.3314 12.8885Q23.8563 13.8045 23.0223 14.3172Q22.1883 14.8265 21.1834 14.8265Q20.2845 14.8265 19.5907 14.4778Q18.9002 14.1258 18.4935 13.5789L18.4935 14.7L16.8973 14.7L16.8973 4.34014L18.4935 4.34014L18.4935 8.13408ZM23.183 10.8069Q23.183 10.0105 22.8548 9.42949Q22.5267 8.84844 21.9867 8.54766Q21.4466 8.24688 20.8314 8.24688Q20.2298 8.24688 19.6898 8.55449Q19.1532 8.86211 18.8216 9.45Q18.4935 10.0379 18.4935 10.8377Q18.4935 11.6341 18.8216 12.2288Q19.1532 12.8235 19.6898 13.1312Q20.2298 13.4388 20.8314 13.4388Q21.4466 13.4388 21.9867 13.1243Q22.5267 12.8099 22.8548 12.2083Q23.183 11.6067 23.183 10.8069Z" transform="translate(16.5 126)" fill="#676767" />
      </g>
      <g transform="translate(168 0)">
        <rect width="60" height="207" />
        <g>
          <rect width="60" height="176" />
          <path id="Rectangle 1" d="M14 0C17.3142 0 20 2.68584 20 6L20 119L0 119L0 6C0 2.68584 2.68584 0 6 0L14 0Z" fill="#732ECB" transform="translate(0 57)" />
          <path id="Rectangle 2" d="M14 0C17.3142 0 20 2.68584 20 6L20 176L0 176L0 6C0 2.68584 2.68584 0 6 0L14 0Z" fill="#2ECB89" transform="translate(20 0)" />
          <path id="Rectangle 3" d="M14 0C17.3142 0 20 2.68584 20 6L20 81L0 81L0 6C0 2.68584 2.68584 0 6 0L14 0Z" fill="#2EA5CB" transform="translate(40 95)" />
        </g>
        <path d="M11.2964 4.96904L11.2964 14.7L9.70361 14.7L9.70361 8.03496L6.7334 14.7L5.62939 14.7L2.64551 8.03496L2.64551 14.7L1.04932 14.7L1.04932 4.96904L2.77197 4.96904L6.18652 12.6014L9.59082 4.96904L11.2964 4.96904ZM12.8675 10.8069Q12.8675 9.64482 13.3495 8.74932Q13.8314 7.85381 14.6654 7.3582Q15.4994 6.85918 16.5077 6.85918Q17.4168 6.85918 18.0936 7.21807Q18.7738 7.57354 19.1805 8.10674L19.1805 6.98565L20.7904 6.98565L20.7904 14.7L19.1805 14.7L19.1805 13.5516Q18.7738 14.0984 18.0731 14.4642Q17.3724 14.8265 16.4769 14.8265Q15.4857 14.8265 14.6585 14.3172Q13.8314 13.8045 13.3495 12.8885Q12.8675 11.969 12.8675 10.8069ZM19.1805 10.8377Q19.1805 10.0379 18.849 9.45Q18.5209 8.86211 17.9876 8.55449Q17.4579 8.24688 16.8426 8.24688Q16.2274 8.24688 15.6942 8.54766Q15.161 8.84844 14.8329 9.42949Q14.5047 10.0105 14.5047 10.8069Q14.5047 11.6067 14.8329 12.2083Q15.161 12.8099 15.701 13.1243Q16.2411 13.4388 16.8426 13.4388Q17.4579 13.4388 17.9876 13.1312Q18.5209 12.8235 18.849 12.2288Q19.1805 11.6341 19.1805 10.8377ZM24.4855 8.10674Q24.8376 7.51885 25.4186 7.19072Q25.9997 6.85918 26.7961 6.85918L26.7961 8.51348L26.3893 8.51348Q25.4528 8.51348 24.9674 8.98857Q24.4855 9.46367 24.4855 10.6395L24.4855 14.7L22.8893 14.7L22.8893 6.98565L24.4855 6.98565L24.4855 8.10674Z" transform="translate(0 186)" fill="#676767" />
      </g>
      <g transform="translate(252 60)">
        <rect width="60" height="147" />
        <g>
          <rect width="60" height="116" />
          <path id="Rectangle 1" d="M14 0C17.3142 0 20 2.68584 20 6L20 78L0 78L0 6C0 2.68584 2.68584 0 6 0L14 0Z" fill="#732ECB" transform="translate(0 38)" />
          <path id="Rectangle 2" d="M14 0C17.3142 0 20 2.68584 20 6L20 116L0 116L0 6C0 2.68584 2.68584 0 6 0L14 0Z" fill="#2ECB89" transform="translate(20 0)" />
          <path id="Rectangle 3" d="M14 0C17.3142 0 20 2.68584 20 6L20 28L0 28L0 6C0 2.68584 2.68584 0 6 0L14 0Z" fill="#2EA5CB" transform="translate(40 88)" />
        </g>
        <path d="M6.91455 12.7107L2.84033 12.7107L2.14307 14.7L0.475098 14.7L3.96143 4.95537L5.81055 4.95537L9.29688 14.7L7.61523 14.7L6.91455 12.7107ZM6.4668 11.4085L4.8877 6.88652L3.2915 11.4085L6.4668 11.4085ZM12.4035 8.12041Q12.8102 7.58721 13.5109 7.2249Q14.2116 6.85918 15.0934 6.85918Q16.0983 6.85918 16.9323 7.3582Q17.7663 7.85381 18.2414 8.74932Q18.7165 9.64482 18.7165 10.8069Q18.7165 11.969 18.2414 12.8885Q17.7663 13.8045 16.9323 14.3172Q16.0983 14.8265 15.0934 14.8265Q14.2116 14.8265 13.5246 14.471Q12.8376 14.1121 12.4035 13.5789L12.4035 18.3675L10.8073 18.3675L10.8073 6.98565L12.4035 6.98565L12.4035 8.12041ZM17.093 10.8069Q17.093 10.0105 16.7648 9.42949Q16.4367 8.84844 15.8967 8.54766Q15.3566 8.24688 14.7414 8.24688Q14.1398 8.24688 13.5998 8.55449Q13.0632 8.86211 12.7316 9.45Q12.4035 10.0379 12.4035 10.8377Q12.4035 11.6341 12.7316 12.2288Q13.0632 12.8235 13.5998 13.1312Q14.1398 13.4388 14.7414 13.4388Q15.3566 13.4388 15.8967 13.1243Q16.4367 12.8099 16.7648 12.2083Q17.093 11.6067 17.093 10.8069ZM21.8955 8.10674Q22.2476 7.51885 22.8286 7.19072Q23.4097 6.85918 24.2061 6.85918L24.2061 8.51348L23.7993 8.51348Q22.8628 8.51348 22.3774 8.98857Q21.8955 9.46367 21.8955 10.6395L21.8955 14.7L20.2993 14.7L20.2993 6.98565L21.8955 6.98565L21.8955 8.10674Z" transform="translate(16.5 126)" fill="#676767" />
      </g>
      <g transform="translate(336 29)">
        <rect width="60" height="178" />
        <g>
          <rect width="60" height="147" />
          <path id="Rectangle 1" d="M14 0C17.3142 0 20 2.68584 20 6L20 43L0 43L0 6C0 2.68584 2.68584 0 6 0L14 0Z" fill="#732ECB" transform="translate(0 104)" />
          <path id="Rectangle 2" d="M14 0C17.3142 0 20 2.68584 20 6L20 105L0 105L0 6C0 2.68584 2.68584 0 6 0L14 0Z" fill="#2ECB89" transform="translate(20 42)" />
          <path id="Rectangle 3" d="M14 0C17.3142 0 20 2.68584 20 6L20 147L0 147L0 6C0 2.68584 2.68584 0 6 0L14 0Z" fill="#2EA5CB" transform="translate(40 0)" />
        </g>
        <path d="M11.2964 4.96904L11.2964 14.7L9.70361 14.7L9.70361 8.03496L6.7334 14.7L5.62939 14.7L2.64551 8.03496L2.64551 14.7L1.04932 14.7L1.04932 4.96904L2.77197 4.96904L6.18652 12.6014L9.59082 4.96904L11.2964 4.96904ZM12.8675 10.8069Q12.8675 9.64482 13.3495 8.74932Q13.8314 7.85381 14.6654 7.3582Q15.4994 6.85918 16.5077 6.85918Q17.4168 6.85918 18.0936 7.21807Q18.7738 7.57354 19.1805 8.10674L19.1805 6.98565L20.7904 6.98565L20.7904 14.7L19.1805 14.7L19.1805 13.5516Q18.7738 14.0984 18.0731 14.4642Q17.3724 14.8265 16.4769 14.8265Q15.4857 14.8265 14.6585 14.3172Q13.8314 13.8045 13.3495 12.8885Q12.8675 11.969 12.8675 10.8069ZM19.1805 10.8377Q19.1805 10.0379 18.849 9.45Q18.5209 8.86211 17.9876 8.55449Q17.4579 8.24688 16.8426 8.24688Q16.2274 8.24688 15.6942 8.54766Q15.161 8.84844 14.8329 9.42949Q14.5047 10.0105 14.5047 10.8069Q14.5047 11.6067 14.8329 12.2083Q15.161 12.8099 15.701 13.1243Q16.2411 13.4388 16.8426 13.4388Q17.4579 13.4388 17.9876 13.1312Q18.5209 12.8235 18.849 12.2288Q19.1805 11.6341 19.1805 10.8377ZM29.8346 6.98565L25.1007 18.3265L23.4499 18.3265L25.0187 14.5735L21.9801 6.98565L23.7575 6.98565L25.9279 12.8646L28.1803 6.98565L29.8346 6.98565Z" fill="#676767" transform="translate(15 157)" />
      </g>
      <g transform="translate(420 51)">
        <rect width="60" height="156" />
        <g>
          <rect width="60" height="125" />
          <path id="Rectangle 1" d="M14 0C17.3142 0 20 2.68584 20 6L20 125L0 125L0 6C0 2.68584 2.68584 0 6 0L14 0Z" fill="#732ECB" />
          <path id="Rectangle 2" d="M14 0C17.3142 0 20 2.68584 20 6L20 51L0 51L0 6C0 2.68584 2.68584 0 6 0L14 0Z" fill="#2ECB89" transform="translate(20 74)" />
          <path id="Rectangle 3" d="M14 0C17.3142 0 20 2.68584 20 6L20 82L0 82L0 6C0 2.68584 2.68584 0 6 0L14 0Z" fill="#2EA5CB" transform="translate(40 43)" />
        </g>
        <path d="M6.35742 4.96904L6.35742 11.9827Q6.35742 13.285 5.56445 14.0438Q4.7749 14.7991 3.48633 14.7991Q2.19775 14.7991 1.40479 14.0438Q0.615234 13.285 0.615234 11.9827L2.2251 11.9827Q2.23877 12.6287 2.55322 13.0081Q2.87109 13.3841 3.48633 13.3841Q4.10156 13.3841 4.42285 13.0013Q4.74756 12.615 4.74756 11.9827L4.74756 4.96904L6.35742 4.96904ZM15.9316 6.98565L15.9316 14.7L14.3355 14.7L14.3355 13.7908Q13.9595 14.2659 13.3477 14.5394Q12.7393 14.8128 12.0557 14.8128Q11.1431 14.8128 10.4219 14.4368Q9.70069 14.0574 9.28711 13.3157Q8.87696 12.5706 8.87696 11.5213L8.87696 6.98565L10.4595 6.98565L10.4595 11.2854Q10.4595 12.3211 10.9756 12.8748Q11.4951 13.4251 12.3906 13.4251Q13.2861 13.4251 13.8091 12.8748Q14.3355 12.3211 14.3355 11.2854L14.3355 6.98565L15.9316 6.98565ZM21.9244 6.85918Q22.8336 6.85918 23.5548 7.23857Q24.2759 7.61455 24.6827 8.35967Q25.0894 9.10137 25.0894 10.1507L25.0894 14.7L23.5069 14.7L23.5069 10.3865Q23.5069 9.35088 22.9874 8.80059Q22.4713 8.24688 21.5723 8.24688Q20.6768 8.24688 20.1505 8.80059Q19.6275 9.35088 19.6275 10.3865L19.6275 14.7L18.0313 14.7L18.0313 6.98565L19.6275 6.98565L19.6275 7.86748Q20.0206 7.39238 20.629 7.12578Q21.2374 6.85918 21.9244 6.85918Z" transform="translate(16.5 135)" fill="#676767" />
      </g>
      <g transform="translate(504 105)">
        <rect width="60" height="102" />
        <g>
          <rect width="60" height="71" />
          <path id="Rectangle 1" d="M14 0C17.3142 0 20 2.68584 20 6L20 51L0 51L0 6C0 2.68584 2.68584 0 6 0L14 0Z" fill="#732ECB" transform="translate(0 20)" />
          <path id="Rectangle 2" d="M14 0C17.3142 0 20 2.68584 20 6L20 71L0 71L0 6C0 2.68584 2.68584 0 6 0L14 0Z" fill="#2ECB89" transform="translate(20 0)" />
          <path id="Rectangle 3" d="M14 0C17.3142 0 20 2.68584 20 6L20 28L0 28L0 6C0 2.68584 2.68584 0 6 0L14 0Z" fill="#2EA5CB" transform="translate(40 43)" />
        </g>
        <path d="M6.35742 4.96904L6.35742 11.9827Q6.35742 13.285 5.56445 14.0438Q4.7749 14.7991 3.48633 14.7991Q2.19775 14.7991 1.40479 14.0438Q0.615234 13.285 0.615234 11.9827L2.2251 11.9827Q2.23877 12.6287 2.55322 13.0081Q2.87109 13.3841 3.48633 13.3841Q4.10156 13.3841 4.42285 13.0013Q4.74756 12.615 4.74756 11.9827L4.74756 4.96904L6.35742 4.96904ZM15.9316 6.98565L15.9316 14.7L14.3355 14.7L14.3355 13.7908Q13.9595 14.2659 13.3477 14.5394Q12.7393 14.8128 12.0557 14.8128Q11.1431 14.8128 10.4219 14.4368Q9.70069 14.0574 9.28711 13.3157Q8.87696 12.5706 8.87696 11.5213L8.87696 6.98565L10.4595 6.98565L10.4595 11.2854Q10.4595 12.3211 10.9756 12.8748Q11.4951 13.4251 12.3906 13.4251Q13.2861 13.4251 13.8091 12.8748Q14.3355 12.3211 14.3355 11.2854L14.3355 6.98565L15.9316 6.98565ZM19.6275 4.34014L19.6275 14.7L18.0313 14.7L18.0313 4.34014L19.6275 4.34014Z" transform="translate(16.5 81)" fill="#676767" />
      </g>
      <g transform="translate(588 27)">
        <rect width="60" height="180" />
        <g>
          <rect width="60" height="149" />
          <path id="Rectangle 1" d="M14 0C17.3142 0 20 2.68584 20 6L20 149L0 149L0 6C0 2.68584 2.68584 0 6 0L14 0Z" fill="#732ECB" />
          <path id="Rectangle 2" d="M14 0C17.3142 0 20 2.68584 20 6L20 137L0 137L0 6C0 2.68584 2.68584 0 6 0L14 0Z" fill="#2ECB89" transform="translate(20 12)" />
          <path id="Rectangle 3" d="M14 0C17.3142 0 20 2.68584 20 6L20 76L0 76L0 6C0 2.68584 2.68584 0 6 0L14 0Z" fill="#2EA5CB" transform="translate(40 73)" />
        </g>
        <path d="M6.91455 12.7107L2.84033 12.7107L2.14307 14.7L0.475098 14.7L3.96143 4.95537L5.81055 4.95537L9.29688 14.7L7.61523 14.7L6.91455 12.7107ZM6.4668 11.4085L4.8877 6.88652L3.2915 11.4085L6.4668 11.4085ZM17.7936 6.98565L17.7936 14.7L16.1975 14.7L16.1975 13.7908Q15.8215 14.2659 15.2097 14.5394Q14.6013 14.8128 13.9177 14.8128Q13.0051 14.8128 12.2839 14.4368Q11.5627 14.0574 11.1491 13.3157Q10.739 12.5706 10.739 11.5213L10.739 6.98565L12.3215 6.98565L12.3215 11.2854Q12.3215 12.3211 12.8376 12.8748Q13.3571 13.4251 14.2526 13.4251Q15.1481 13.4251 15.6711 12.8748Q16.1975 12.3211 16.1975 11.2854L16.1975 6.98565L17.7936 6.98565ZM23.0037 6.85918Q23.8992 6.85918 24.5896 7.21807Q25.2835 7.57354 25.6765 8.10674L25.6765 6.98565L27.2864 6.98565L27.2864 14.8265Q27.2864 15.8895 26.8386 16.7234Q26.3909 17.5574 25.5432 18.0325Q24.6956 18.5076 23.5198 18.5076Q21.9509 18.5076 20.9153 17.7728Q19.8796 17.0379 19.7395 15.7767L21.322 15.7767Q21.5032 16.3816 22.0979 16.7508Q22.6926 17.1233 23.5198 17.1233Q24.4871 17.1233 25.0818 16.5354Q25.6765 15.9476 25.6765 14.8265L25.6765 13.5379Q25.2698 14.0848 24.5759 14.4573Q23.8855 14.8265 23.0037 14.8265Q21.9954 14.8265 21.1614 14.3172Q20.3274 13.8045 19.8455 12.8885Q19.3635 11.969 19.3635 10.8069Q19.3635 9.64482 19.8455 8.74932Q20.3274 7.85381 21.1614 7.3582Q21.9954 6.85918 23.0037 6.85918ZM25.6765 10.8377Q25.6765 10.0379 25.345 9.45Q25.0169 8.86211 24.4837 8.55449Q23.9539 8.24688 23.3386 8.24688Q22.7234 8.24688 22.1902 8.54766Q21.657 8.84844 21.3289 9.42949Q21.0007 10.0105 21.0007 10.8069Q21.0007 11.6067 21.3289 12.2083Q21.657 12.8099 22.197 13.1243Q22.7371 13.4388 23.3386 13.4388Q23.9539 13.4388 24.4837 13.1312Q25.0169 12.8235 25.345 12.2288Q25.6765 11.6341 25.6765 10.8377Z" fill="#676767" transform="translate(15.5 159)" />
      </g>
    </g>
    <g transform="translate(369 79)">
      <rect width="159" height="103" rx="16" fill="#111111" fill-rule="evenodd" filter="url(#filter_1)" />
      <g transform="translate(10 10)">
        <rect width="139" height="21" />
        <path id="Ellipse 4" d="M0 6C0 2.68629 2.68629 0 6 0C9.31371 0 12 2.68629 12 6C12 9.31371 9.31371 12 6 12C2.68629 12 0 9.31371 0 6Z" fill="#2ECB89" fill-rule="evenodd" transform="translate(0 4.5)" />
        <path d="M7.93652 11.887Q7.93652 12.615 7.56396 13.2508Q7.19482 13.8865 6.47363 14.3001Q5.75244 14.7137 4.7749 14.7854L4.7749 15.9168L3.87939 15.9168L3.87939 14.7684Q2.47803 14.6453 1.62354 13.9241Q0.769043 13.2029 0.741699 11.969L2.84033 11.969Q2.92578 12.9773 3.87939 13.1893L3.87939 10.513Q2.87109 10.2635 2.25244 10.0105Q1.63721 9.75762 1.18945 9.19707Q0.741699 8.63652 0.741699 7.67266Q0.741699 6.45244 1.6167 5.6834Q2.4917 4.91436 3.87939 4.80156L3.87939 3.6668L4.7749 3.6668L4.7749 4.80156Q6.11816 4.91436 6.92139 5.61504Q7.72803 6.31572 7.82715 7.54619L5.71143 7.54619Q5.67041 7.13945 5.42432 6.83867Q5.18164 6.53789 4.7749 6.41143L4.7749 9.05693Q5.82422 9.32354 6.43262 9.56963Q7.04102 9.81231 7.48877 10.366Q7.93652 10.9197 7.93652 11.887ZM2.78564 7.57354Q2.78564 8.03496 3.06592 8.32207Q3.34619 8.60918 3.87939 8.79033L3.87939 6.37041Q3.37354 6.43877 3.07959 6.74981Q2.78564 7.05742 2.78564 7.57354ZM4.7749 13.2166Q5.30469 13.1175 5.60547 12.7825Q5.90967 12.4476 5.90967 11.969Q5.90967 11.5076 5.6123 11.2273Q5.31836 10.9471 4.7749 10.7659L4.7749 13.2166ZM16.7576 6.18926L12.2219 6.18926L12.2219 8.58184Q12.5159 8.21953 13.0627 7.98711Q13.6096 7.75469 14.2248 7.75469Q15.3425 7.75469 16.0569 8.24688Q16.7712 8.73565 17.0925 9.50127Q17.4172 10.2635 17.4172 11.1316Q17.4172 12.7415 16.4978 13.7225Q15.5818 14.7 13.8865 14.7Q12.2937 14.7 11.3401 13.9036Q10.3865 13.1038 10.2634 11.8152L12.1672 11.8152Q12.2937 12.3758 12.7346 12.7142Q13.1755 13.0491 13.8591 13.0491Q14.6863 13.0491 15.1067 12.533Q15.5271 12.0135 15.5271 11.159Q15.5271 10.2908 15.0998 9.83623Q14.6726 9.38164 13.8455 9.38164Q13.2576 9.38164 12.8645 9.67559Q12.4748 9.96953 12.3074 10.4583L10.4309 10.4583L10.4309 4.4666L16.7576 4.4666L16.7576 6.18926ZM18.9137 9.46367Q18.9137 7.04033 19.7887 5.66973Q20.6637 4.29912 22.694 4.29912Q24.7242 4.29912 25.5992 5.66973Q26.4742 7.04033 26.4742 9.46367Q26.4742 11.9007 25.5992 13.2884Q24.7242 14.6727 22.694 14.6727Q20.6637 14.6727 19.7887 13.2884Q18.9137 11.9007 18.9137 9.46367ZM24.5431 9.46367Q24.5431 8.42803 24.4098 7.72051Q24.2765 7.01299 23.8766 6.56524Q23.4767 6.11748 22.694 6.11748Q21.9113 6.11748 21.5114 6.56524Q21.1115 7.01299 20.9782 7.72051Q20.8449 8.42803 20.8449 9.46367Q20.8449 10.5267 20.9713 11.2479Q21.0978 11.969 21.5045 12.41Q21.9113 12.8509 22.694 12.8509Q23.4767 12.8509 23.8834 12.41Q24.2902 11.969 24.4166 11.2479Q24.5431 10.5267 24.5431 9.46367ZM30.3229 12.6424L28.6857 16.5765L27.4245 16.5765L28.3371 12.6424L30.3229 12.6424ZM31.541 7.18047Q31.6128 5.78252 32.5288 5.02031Q33.4449 4.25469 34.9453 4.25469Q35.9673 4.25469 36.6953 4.61357Q37.4234 4.96904 37.7925 5.58086Q38.1651 6.18926 38.1651 6.9583Q38.1651 7.84014 37.7071 8.44854Q37.2525 9.05693 36.6236 9.26885L36.6236 9.32354Q37.437 9.57647 37.8916 10.2225Q38.3462 10.865 38.3462 11.8733Q38.3462 12.7107 37.96 13.3704Q37.5772 14.0267 36.8252 14.3992Q36.0767 14.7684 35.0274 14.7684Q33.4449 14.7684 32.4502 13.972Q31.459 13.1756 31.4009 11.6204L33.3047 11.6204Q33.3355 12.3074 33.7764 12.721Q34.2173 13.1312 34.9864 13.1312Q35.7007 13.1312 36.0835 12.7347Q36.4698 12.3348 36.4698 11.7024Q36.4698 10.865 35.9366 10.5027Q35.4068 10.137 34.2857 10.137L33.8789 10.137L33.8789 8.52715L34.2857 8.52715Q36.2749 8.52715 36.2749 7.19756Q36.2749 6.59258 35.916 6.25762Q35.5606 5.92266 34.8872 5.92266Q34.231 5.92266 33.8721 6.28154Q33.5166 6.63701 33.4585 7.18047L31.541 7.18047ZM42.1692 11.8289Q42.2786 12.4476 42.6785 12.7757Q43.0784 13.1038 43.7483 13.1038Q44.6165 13.1038 45.0096 12.3826Q45.4026 11.6614 45.4026 9.95244Q45.0813 10.4036 44.5003 10.6565Q43.9192 10.9061 43.2459 10.9061Q42.3504 10.9061 41.6292 10.5369Q40.908 10.1644 40.4876 9.42949Q40.0672 8.69463 40.0672 7.64531Q40.0672 6.09014 40.99 5.17412Q41.9163 4.25469 43.5125 4.25469Q45.4983 4.25469 46.3186 5.52959Q47.139 6.80449 47.139 9.36455Q47.139 11.1863 46.8211 12.3484Q46.5066 13.5105 45.7444 14.1121Q44.9822 14.7137 43.6663 14.7137Q42.6307 14.7137 41.9026 14.3172Q41.1746 13.9173 40.7884 13.2679Q40.4056 12.615 40.3475 11.8289L42.1692 11.8289ZM43.6526 9.30986Q44.3807 9.30986 44.8011 8.86211Q45.2215 8.41436 45.2215 7.65899Q45.2215 6.83184 44.7806 6.37725Q44.3396 5.92266 43.5809 5.92266Q42.8255 5.92266 42.3846 6.39092Q41.9436 6.85918 41.9436 7.63164Q41.9436 8.37334 42.3709 8.8416Q42.7981 9.30986 43.6526 9.30986ZM48.4244 6.29863L48.4244 4.49395L51.8014 4.49395L51.8014 14.7L49.7848 14.7L49.7848 6.29863L48.4244 6.29863ZM62.3274 14.7L60.1706 10.8924L59.2478 10.8924L59.2478 14.7L57.2893 14.7L57.2893 4.92803L60.9568 4.92803Q62.0915 4.92803 62.8879 5.32793Q63.6843 5.72441 64.0842 6.40459Q64.4841 7.08477 64.4841 7.92559Q64.4841 8.88945 63.9236 9.66875Q63.363 10.4446 62.259 10.7386L64.5969 14.7L62.3274 14.7ZM59.2478 9.42266L60.885 9.42266Q61.6848 9.42266 62.0744 9.03984Q62.4675 8.65361 62.4675 7.9666Q62.4675 7.29326 62.0744 6.92412Q61.6848 6.55156 60.885 6.55156L59.2478 6.55156L59.2478 9.42266ZM73.4718 10.6531Q73.4718 11.0735 73.4171 11.4085L67.7467 11.4085Q67.815 12.2493 68.3312 12.7278Q68.8507 13.2029 69.6095 13.2029Q70.6998 13.2029 71.1612 12.263L73.277 12.263Q72.9386 13.3841 71.985 14.1053Q71.0348 14.8265 69.6505 14.8265Q68.5294 14.8265 67.6407 14.3309Q66.7521 13.8318 66.253 12.9227Q65.7574 12.0135 65.7574 10.8206Q65.7574 9.61748 66.2462 8.7083Q66.7384 7.79912 67.6202 7.31035Q68.5021 6.81816 69.6505 6.81816Q70.7545 6.81816 71.6295 7.29326Q72.5045 7.76836 72.9864 8.64336Q73.4718 9.51836 73.4718 10.6531ZM71.4415 10.0926Q71.4278 9.33721 70.8946 8.88262Q70.3649 8.42803 69.5924 8.42803Q68.8644 8.42803 68.3688 8.86895Q67.8732 9.30986 67.7604 10.0926L71.4415 10.0926ZM78.1347 12.8953L80.0932 6.94463L82.1816 6.94463L79.3105 14.7L76.9316 14.7L74.0741 6.94463L76.1728 6.94463L78.1347 12.8953ZM90.4958 10.6531Q90.4958 11.0735 90.4411 11.4085L84.7707 11.4085Q84.8391 12.2493 85.3552 12.7278Q85.8747 13.2029 86.6335 13.2029Q87.7238 13.2029 88.1852 12.263L90.301 12.263Q89.9626 13.3841 89.009 14.1053Q88.0588 14.8265 86.6745 14.8265Q85.5534 14.8265 84.6647 14.3309Q83.7761 13.8318 83.277 12.9227Q82.7814 12.0135 82.7814 10.8206Q82.7814 9.61748 83.2702 8.7083Q83.7624 7.79912 84.6442 7.31035Q85.5261 6.81816 86.6745 6.81816Q87.7785 6.81816 88.6535 7.29326Q89.5285 7.76836 90.0104 8.64336Q90.4958 9.51836 90.4958 10.6531ZM88.4655 10.0926Q88.4518 9.33721 87.9186 8.88262Q87.3889 8.42803 86.6164 8.42803Q85.8884 8.42803 85.3928 8.86895Q84.8972 9.30986 84.7844 10.0926L88.4655 10.0926ZM96.2217 6.83184Q97.6094 6.83184 98.4604 7.70684Q99.3149 8.58184 99.3149 10.1507L99.3149 14.7L97.3564 14.7L97.3564 10.4173Q97.3564 9.49102 96.895 8.99541Q96.4336 8.49639 95.6338 8.49639Q94.8203 8.49639 94.3521 8.99541Q93.8838 9.49102 93.8838 10.4173L93.8838 14.7L91.9253 14.7L91.9253 6.94463L93.8838 6.94463L93.8838 7.9085Q94.2769 7.40606 94.8853 7.11895Q95.4937 6.83184 96.2217 6.83184ZM108.501 6.94463L108.501 14.7L106.525 14.7L106.525 13.719Q106.149 14.2249 105.537 14.512Q104.929 14.7991 104.214 14.7991Q103.305 14.7991 102.605 14.4129Q101.907 14.0267 101.507 13.2781Q101.108 12.5296 101.108 11.4939L101.108 6.94463L103.069 6.94463L103.069 11.2137Q103.069 12.1365 103.531 12.6355Q103.992 13.1312 104.789 13.1312Q105.602 13.1312 106.064 12.6355Q106.525 12.1365 106.525 11.2137L106.525 6.94463L108.501 6.94463ZM117.642 10.6531Q117.642 11.0735 117.587 11.4085L111.917 11.4085Q111.985 12.2493 112.501 12.7278Q113.021 13.2029 113.779 13.2029Q114.87 13.2029 115.331 12.263L117.447 12.263Q117.109 13.3841 116.155 14.1053Q115.205 14.8265 113.82 14.8265Q112.699 14.8265 111.811 14.3309Q110.922 13.8318 110.423 12.9227Q109.927 12.0135 109.927 10.8206Q109.927 9.61748 110.416 8.7083Q110.908 7.79912 111.79 7.31035Q112.672 6.81816 113.82 6.81816Q114.924 6.81816 115.799 7.29326Q116.674 7.76836 117.156 8.64336Q117.642 9.51836 117.642 10.6531ZM115.612 10.0926Q115.598 9.33721 115.065 8.88262Q114.535 8.42803 113.762 8.42803Q113.034 8.42803 112.539 8.86895Q112.043 9.30986 111.93 10.0926L115.612 10.0926Z" fill="#FFFFFF" transform="translate(20 0)" />
      </g>
      <g transform="translate(10 41)">
        <rect width="121" height="21" />
        <path id="Ellipse 4" d="M0 6C0 2.68629 2.68629 0 6 0C9.31371 0 12 2.68629 12 6C12 9.31371 9.31371 12 6 12C2.68629 12 0 9.31371 0 6Z" fill="#732ECB" fill-rule="evenodd" transform="translate(0 4.5)" />
        <path d="M0.502441 6.29863L0.502441 4.49395L3.87939 4.49395L3.87939 14.7L1.86279 14.7L1.86279 6.29863L0.502441 6.29863ZM7.51868 9.29619Q6.11732 8.56816 6.11732 7.04033Q6.11732 6.28496 6.50013 5.66289Q6.88636 5.04082 7.66224 4.67168Q8.44154 4.29912 9.56263 4.29912Q10.6803 4.29912 11.4562 4.67168Q12.2355 5.04082 12.6183 5.66289Q13.0045 6.28496 13.0045 7.04033Q13.0045 7.81279 12.6251 8.39385Q12.2492 8.9749 11.6202 9.29619Q12.3893 9.63115 12.8234 10.2771Q13.2575 10.9197 13.2575 11.8016Q13.2575 12.7552 12.7755 13.4627Q12.2936 14.1668 11.4528 14.5462Q10.6119 14.9256 9.56263 14.9256Q8.51331 14.9256 7.67933 14.5462Q6.84534 14.1668 6.36341 13.4627Q5.88148 12.7552 5.88148 11.8016Q5.88148 10.9197 6.31556 10.2703Q6.74964 9.61748 7.51868 9.29619ZM11.1007 7.32061Q11.1007 6.63701 10.6871 6.26104Q10.277 5.88164 9.56263 5.88164Q8.86195 5.88164 8.44837 6.26104Q8.0348 6.63701 8.0348 7.3377Q8.0348 7.9666 8.46204 8.346Q8.88929 8.72197 9.56263 8.72197Q10.2326 8.72197 10.6666 8.33916Q11.1007 7.95293 11.1007 7.32061ZM9.56263 10.1507Q8.76283 10.1507 8.26722 10.5574Q7.77161 10.9607 7.77161 11.7195Q7.77161 12.4168 8.25355 12.8577Q8.73548 13.2986 9.56263 13.2986Q10.3864 13.2986 10.8615 12.8509Q11.34 12.4031 11.34 11.7195Q11.34 10.9744 10.8478 10.5643Q10.359 10.1507 9.56263 10.1507ZM17.0812 11.8289Q17.1906 12.4476 17.5905 12.7757Q17.9904 13.1038 18.6603 13.1038Q19.5285 13.1038 19.9216 12.3826Q20.3146 11.6614 20.3146 9.95244Q19.9933 10.4036 19.4123 10.6565Q18.8312 10.9061 18.1579 10.9061Q17.2624 10.9061 16.5412 10.5369Q15.82 10.1644 15.3996 9.42949Q14.9792 8.69463 14.9792 7.64531Q14.9792 6.09014 15.902 5.17412Q16.8283 4.25469 18.4245 4.25469Q20.4103 4.25469 21.2306 5.52959Q22.051 6.80449 22.051 9.36455Q22.051 11.1863 21.7331 12.3484Q21.4186 13.5105 20.6564 14.1121Q19.8942 14.7137 18.5783 14.7137Q17.5427 14.7137 16.8146 14.3172Q16.0866 13.9173 15.7004 13.2679Q15.3176 12.615 15.2595 11.8289L17.0812 11.8289ZM18.5646 9.30986Q19.2927 9.30986 19.7131 8.86211Q20.1335 8.41436 20.1335 7.65899Q20.1335 6.83184 19.6926 6.37725Q19.2516 5.92266 18.4929 5.92266Q17.7375 5.92266 17.2966 6.39092Q16.8556 6.85918 16.8556 7.63164Q16.8556 8.37334 17.2829 8.8416Q17.7101 9.30986 18.5646 9.30986ZM25.9409 12.6424L24.3037 16.5765L23.0425 16.5765L23.9551 12.6424L25.9409 12.6424ZM27.159 7.18047Q27.2308 5.78252 28.1468 5.02031Q29.0629 4.25469 30.5633 4.25469Q31.5853 4.25469 32.3133 4.61357Q33.0414 4.96904 33.4105 5.58086Q33.7831 6.18926 33.7831 6.9583Q33.7831 7.84014 33.3251 8.44854Q32.8705 9.05693 32.2416 9.26885L32.2416 9.32354Q33.055 9.57647 33.5096 10.2225Q33.9642 10.865 33.9642 11.8733Q33.9642 12.7107 33.578 13.3704Q33.1952 14.0267 32.4432 14.3992Q31.6947 14.7684 30.6454 14.7684Q29.0629 14.7684 28.0682 13.972Q27.077 13.1756 27.0189 11.6204L28.9227 11.6204Q28.9535 12.3074 29.3944 12.721Q29.8353 13.1312 30.6044 13.1312Q31.3187 13.1312 31.7015 12.7347Q32.0878 12.3348 32.0878 11.7024Q32.0878 10.865 31.5546 10.5027Q31.0248 10.137 29.9037 10.137L29.4969 10.137L29.4969 8.52715L29.9037 8.52715Q31.8929 8.52715 31.8929 7.19756Q31.8929 6.59258 31.534 6.25762Q31.1786 5.92266 30.5052 5.92266Q29.849 5.92266 29.4901 6.28154Q29.1346 6.63701 29.0765 7.18047L27.159 7.18047ZM35.5177 9.46367Q35.5177 7.04033 36.3927 5.66973Q37.2677 4.29912 39.298 4.29912Q41.3282 4.29912 42.2032 5.66973Q43.0782 7.04033 43.0782 9.46367Q43.0782 11.9007 42.2032 13.2884Q41.3282 14.6727 39.298 14.6727Q37.2677 14.6727 36.3927 13.2884Q35.5177 11.9007 35.5177 9.46367ZM41.1471 9.46367Q41.1471 8.42803 41.0138 7.72051Q40.8805 7.01299 40.4806 6.56524Q40.0807 6.11748 39.298 6.11748Q38.5153 6.11748 38.1154 6.56524Q37.7155 7.01299 37.5822 7.72051Q37.4489 8.42803 37.4489 9.46367Q37.4489 10.5267 37.5753 11.2479Q37.7018 11.969 38.1085 12.41Q38.5153 12.8509 39.298 12.8509Q40.0807 12.8509 40.4874 12.41Q40.8942 11.969 41.0206 11.2479Q41.1471 10.5267 41.1471 9.46367ZM46.8312 11.8289Q46.9406 12.4476 47.3405 12.7757Q47.7404 13.1038 48.4103 13.1038Q49.2785 13.1038 49.6716 12.3826Q50.0646 11.6614 50.0646 9.95244Q49.7433 10.4036 49.1623 10.6565Q48.5812 10.9061 47.9079 10.9061Q47.0124 10.9061 46.2912 10.5369Q45.57 10.1644 45.1496 9.42949Q44.7292 8.69463 44.7292 7.64531Q44.7292 6.09014 45.652 5.17412Q46.5783 4.25469 48.1745 4.25469Q50.1603 4.25469 50.9806 5.52959Q51.801 6.80449 51.801 9.36455Q51.801 11.1863 51.4831 12.3484Q51.1686 13.5105 50.4064 14.1121Q49.6442 14.7137 48.3283 14.7137Q47.2927 14.7137 46.5646 14.3172Q45.8366 13.9173 45.4504 13.2679Q45.0676 12.615 45.0095 11.8289L46.8312 11.8289ZM48.3146 9.30986Q49.0427 9.30986 49.4631 8.86211Q49.8835 8.41436 49.8835 7.65899Q49.8835 6.83184 49.4426 6.37725Q49.0016 5.92266 48.2429 5.92266Q47.4875 5.92266 47.0466 6.39092Q46.6056 6.85918 46.6056 7.63164Q46.6056 8.37334 47.0329 8.8416Q47.4601 9.30986 48.3146 9.30986ZM61.9214 14.7L59.7646 10.8924L58.8418 10.8924L58.8418 14.7L56.8833 14.7L56.8833 4.92803L60.5508 4.92803Q61.6855 4.92803 62.4819 5.32793Q63.2783 5.72441 63.6782 6.40459Q64.0781 7.08477 64.0781 7.92559Q64.0781 8.88945 63.5176 9.66875Q62.957 10.4446 61.853 10.7386L64.1909 14.7L61.9214 14.7ZM58.8418 9.42266L60.479 9.42266Q61.2788 9.42266 61.6684 9.03984Q62.0615 8.65361 62.0615 7.9666Q62.0615 7.29326 61.6684 6.92412Q61.2788 6.55156 60.479 6.55156L58.8418 6.55156L58.8418 9.42266ZM73.0658 10.6531Q73.0658 11.0735 73.0111 11.4085L67.3407 11.4085Q67.409 12.2493 67.9252 12.7278Q68.4447 13.2029 69.2035 13.2029Q70.2938 13.2029 70.7552 12.263L72.871 12.263Q72.5326 13.3841 71.579 14.1053Q70.6288 14.8265 69.2445 14.8265Q68.1234 14.8265 67.2347 14.3309Q66.3461 13.8318 65.847 12.9227Q65.3514 12.0135 65.3514 10.8206Q65.3514 9.61748 65.8402 8.7083Q66.3324 7.79912 67.2142 7.31035Q68.0961 6.81816 69.2445 6.81816Q70.3485 6.81816 71.2235 7.29326Q72.0985 7.76836 72.5804 8.64336Q73.0658 9.51836 73.0658 10.6531ZM71.0355 10.0926Q71.0218 9.33721 70.4886 8.88262Q69.9588 8.42803 69.1864 8.42803Q68.4584 8.42803 67.9628 8.86895Q67.4671 9.30986 67.3544 10.0926L71.0355 10.0926ZM73.9894 10.7933Q73.9894 9.61748 74.4577 8.7083Q74.9294 7.79912 75.7326 7.31035Q76.5392 6.81816 77.5304 6.81816Q78.3986 6.81816 79.048 7.17022Q79.7009 7.51885 80.0939 8.04863L80.0939 6.94463L82.0695 6.94463L82.0695 14.7L80.0939 14.7L80.0939 13.5652Q79.7145 14.1121 79.048 14.471Q78.3849 14.8265 77.5168 14.8265Q76.5392 14.8265 75.7326 14.324Q74.9294 13.8182 74.4577 12.9021Q73.9894 11.9827 73.9894 10.7933ZM80.0939 10.8206Q80.0939 10.1097 79.8136 9.60039Q79.5334 9.0877 79.0583 8.81426Q78.5832 8.54082 78.0363 8.54082Q77.4894 8.54082 77.028 8.80742Q76.5666 9.07061 76.2795 9.5833Q75.9924 10.0926 75.9924 10.7933Q75.9924 11.4939 76.2795 12.0203Q76.5666 12.5433 77.0348 12.8235Q77.5031 13.1038 78.0363 13.1038Q78.5832 13.1038 79.0583 12.8304Q79.5334 12.5569 79.8136 12.0477Q80.0939 11.535 80.0939 10.8206ZM83.4814 10.8206Q83.4814 9.61748 83.9702 8.71514Q84.4624 7.81279 85.3306 7.31719Q86.1987 6.81816 87.3164 6.81816Q88.7588 6.81816 89.7021 7.53936Q90.6489 8.26055 90.9736 9.56279L88.8579 9.56279Q88.6904 9.05693 88.2905 8.76982Q87.8906 8.48272 87.3027 8.48272Q86.4653 8.48272 85.9731 9.09453Q85.4844 9.70293 85.4844 10.8206Q85.4844 11.928 85.9731 12.5364Q86.4653 13.1448 87.3027 13.1448Q88.4956 13.1448 88.8579 12.0818L90.9736 12.0818Q90.6489 13.3431 89.6953 14.0848Q88.7451 14.8265 87.3164 14.8265Q86.1987 14.8265 85.3306 14.3309Q84.4624 13.8318 83.9702 12.9295Q83.4814 12.0271 83.4814 10.8206ZM96.7835 6.83184Q97.6653 6.83184 98.3489 7.21807Q99.0359 7.60088 99.4187 8.35283Q99.8049 9.10137 99.8049 10.1507L99.8049 14.7L97.8464 14.7L97.8464 10.4173Q97.8464 9.49102 97.385 8.99541Q96.9236 8.49639 96.1238 8.49639Q95.3103 8.49639 94.842 8.99541Q94.3738 9.49102 94.3738 10.4173L94.3738 14.7L92.4153 14.7L92.4153 4.34014L94.3738 4.34014L94.3738 7.9085Q94.7532 7.40606 95.3821 7.11895Q96.011 6.83184 96.7835 6.83184Z" fill="#FFFFFF" transform="translate(20 0)" />
      </g>
      <g transform="translate(10 72)">
        <rect width="90" height="21" />
        <path id="Ellipse 4" d="M0 6C0 2.68629 2.68629 0 6 0C9.31371 0 12 2.68629 12 6C12 9.31371 9.31371 12 6 12C2.68629 12 0 9.31371 0 6Z" fill="#2EA5CB" fill-rule="evenodd" transform="translate(0 4.5)" />
        <path d="M2.45068 9.29619Q1.04932 8.56816 1.04932 7.04033Q1.04932 6.28496 1.43213 5.66289Q1.81836 5.04082 2.59424 4.67168Q3.37354 4.29912 4.49463 4.29912Q5.6123 4.29912 6.38818 4.67168Q7.16748 5.04082 7.55029 5.66289Q7.93652 6.28496 7.93652 7.04033Q7.93652 7.81279 7.55713 8.39385Q7.18115 8.9749 6.55225 9.29619Q7.32129 9.63115 7.75537 10.2771Q8.18945 10.9197 8.18945 11.8016Q8.18945 12.7552 7.70752 13.4627Q7.22559 14.1668 6.38477 14.5462Q5.54395 14.9256 4.49463 14.9256Q3.44531 14.9256 2.61133 14.5462Q1.77734 14.1668 1.29541 13.4627Q0.813477 12.7552 0.813477 11.8016Q0.813477 10.9197 1.24756 10.2703Q1.68164 9.61748 2.45068 9.29619ZM6.03271 7.32061Q6.03271 6.63701 5.61914 6.26104Q5.20898 5.88164 4.49463 5.88164Q3.79395 5.88164 3.38037 6.26104Q2.9668 6.63701 2.9668 7.3377Q2.9668 7.9666 3.39404 8.346Q3.82129 8.72197 4.49463 8.72197Q5.16455 8.72197 5.59863 8.33916Q6.03271 7.95293 6.03271 7.32061ZM4.49463 10.1507Q3.69482 10.1507 3.19922 10.5574Q2.70361 10.9607 2.70361 11.7195Q2.70361 12.4168 3.18555 12.8577Q3.66748 13.2986 4.49463 13.2986Q5.31836 13.2986 5.79346 12.8509Q6.27197 12.4031 6.27197 11.7195Q6.27197 10.9744 5.77979 10.5643Q5.29102 10.1507 4.49463 10.1507ZM10.3589 12.4886Q11.7056 11.3675 12.502 10.6189Q13.2984 9.87041 13.8316 9.06035Q14.3648 8.24688 14.3648 7.46074Q14.3648 6.74639 14.0264 6.34307Q13.6915 5.93633 12.9908 5.93633Q12.2935 5.93633 11.9141 6.40459Q11.5347 6.87285 11.521 7.68633L9.61723 7.68633Q9.67534 6.00469 10.6187 5.13652Q11.5655 4.26836 13.0215 4.26836Q14.6143 4.26836 15.4688 5.11602Q16.3233 5.96367 16.3233 7.35137Q16.3233 8.4417 15.7354 9.43633Q15.1475 10.431 14.3921 11.1658Q13.6368 11.9007 12.4166 12.9363L16.5489 12.9363L16.5489 14.5599L9.63091 14.5599L9.63091 13.1038L10.3589 12.4886ZM20.8588 9.79863Q20.8588 8.35967 21.5082 7.21807Q22.161 6.07647 23.2889 5.44072Q24.4169 4.80156 25.8148 4.80156Q27.4555 4.80156 28.6859 5.64238Q29.9164 6.4832 30.4086 7.9666L28.1527 7.9666Q27.8178 7.26592 27.2094 6.91729Q26.601 6.56524 25.8012 6.56524Q24.9467 6.56524 24.2802 6.96514Q23.6171 7.36504 23.2445 8.09307Q22.8754 8.82109 22.8754 9.79863Q22.8754 10.7659 23.2445 11.5008Q23.6171 12.2356 24.2802 12.6355Q24.9467 13.0354 25.8012 13.0354Q26.601 13.0354 27.2094 12.68Q27.8178 12.3211 28.1527 11.6204L30.4086 11.6204Q29.9164 13.1175 28.6928 13.9515Q27.4691 14.7854 25.8148 14.7854Q24.4169 14.7854 23.2889 14.1497Q22.161 13.5105 21.5082 12.3758Q20.8588 11.241 20.8588 9.79863ZM34.0478 4.34014L34.0478 14.7L32.0893 14.7L32.0893 4.34014L34.0478 4.34014ZM36.9725 6.01836Q36.4564 6.01836 36.1112 5.69024Q35.7694 5.36211 35.7694 4.87334Q35.7694 4.38115 36.1112 4.05303Q36.4564 3.7249 36.9725 3.7249Q37.492 3.7249 37.8338 4.05303Q38.179 4.38115 38.179 4.87334Q38.179 5.36211 37.8338 5.69024Q37.492 6.01836 36.9725 6.01836ZM37.9398 6.94463L37.9398 14.7L35.9813 14.7L35.9813 6.94463L37.9398 6.94463ZM47.0818 10.6531Q47.0818 11.0735 47.0271 11.4085L41.3567 11.4085Q41.425 12.2493 41.9412 12.7278Q42.4607 13.2029 43.2195 13.2029Q44.3098 13.2029 44.7712 12.263L46.887 12.263Q46.5486 13.3841 45.595 14.1053Q44.6448 14.8265 43.2605 14.8265Q42.1394 14.8265 41.2507 14.3309Q40.3621 13.8318 39.863 12.9227Q39.3674 12.0135 39.3674 10.8206Q39.3674 9.61748 39.8562 8.7083Q40.3484 7.79912 41.2302 7.31035Q42.1121 6.81816 43.2605 6.81816Q44.3645 6.81816 45.2395 7.29326Q46.1145 7.76836 46.5964 8.64336Q47.0818 9.51836 47.0818 10.6531ZM45.0515 10.0926Q45.0378 9.33721 44.5046 8.88262Q43.9748 8.42803 43.2024 8.42803Q42.4744 8.42803 41.9788 8.86895Q41.4831 9.30986 41.3704 10.0926L45.0515 10.0926ZM52.8077 6.83184Q54.1954 6.83184 55.0464 7.70684Q55.9009 8.58184 55.9009 10.1507L55.9009 14.7L53.9424 14.7L53.9424 10.4173Q53.9424 9.49102 53.481 8.99541Q53.0196 8.49639 52.2198 8.49639Q51.4063 8.49639 50.938 8.99541Q50.4698 9.49102 50.4698 10.4173L50.4698 14.7L48.5113 14.7L48.5113 6.94463L50.4698 6.94463L50.4698 7.9085Q50.8628 7.40606 51.4712 7.11895Q52.0796 6.83184 52.8077 6.83184ZM60.0451 8.55449L60.0451 12.3074Q60.0451 12.6971 60.2331 12.8748Q60.4245 13.0491 60.8722 13.0491L61.7814 13.0491L61.7814 14.7L60.5509 14.7Q58.0729 14.7 58.0729 12.2903L58.0729 8.55449L57.1466 8.55449L57.1466 6.94463L58.0729 6.94463L58.0729 5.02715L60.0451 5.02715L60.0451 6.94463L61.7814 6.94463L61.7814 8.55449L60.0451 8.55449ZM66.1641 14.8265Q65.2105 14.8265 64.4551 14.4847Q63.6997 14.1395 63.2588 13.5516Q62.8179 12.9637 62.7769 12.2493L64.749 12.2493Q64.8071 12.6971 65.19 12.991Q65.5762 13.285 66.1504 13.285Q66.711 13.285 67.0254 13.0628Q67.3399 12.8372 67.3399 12.4886Q67.3399 12.1092 66.9536 11.9212Q66.5708 11.7332 65.73 11.5076Q64.8618 11.2991 64.3081 11.077Q63.7544 10.8514 63.3545 10.3899Q62.958 9.9251 62.958 9.14238Q62.958 8.49639 63.3272 7.9666Q63.6997 7.4334 64.3936 7.12578Q65.0874 6.81816 66.0239 6.81816Q67.4116 6.81816 68.2354 7.51201Q69.0625 8.20244 69.1445 9.38164L67.2715 9.38164Q67.2271 8.9168 66.8853 8.64678Q66.5435 8.37334 65.9693 8.37334Q65.4361 8.37334 65.1489 8.56816Q64.8618 8.76299 64.8618 9.11504Q64.8618 9.50469 65.2515 9.70977Q65.6445 9.91143 66.4717 10.1233Q67.3125 10.3318 67.856 10.5574Q68.4028 10.7796 68.8027 11.2513Q69.2027 11.7195 69.2163 12.4886Q69.2163 13.1585 68.8438 13.6917Q68.4746 14.2249 67.7808 14.5257Q67.0869 14.8265 66.1641 14.8265Z" fill="#FFFFFF" transform="translate(20 0)" />
      </g>
      <path d="M159 16C159 7.16224 151.838 0 143 0L16 0C7.16223 0 0 7.16224 0 16L0 87C0 95.8378 7.16223 103 16 103L143 103C151.838 103 159 95.8378 159 87L159 16ZM16 1L143 1Q149.214 1 153.607 5.39294Q158 9.78598 158 16L158 87Q158 93.214 153.607 97.6071Q149.214 102 143 102L16 102Q9.78564 102 5.39294 97.6071Q1 93.214 1 87L1 16Q1 9.78598 5.39294 5.39294Q9.78577 0.999969 16 1Z" fill="#282828" fill-rule="evenodd" />
    </g>
    <g id="pin" transform="translate(342 88)">
      <path id="Line 4" d="M0 0L184 0.0999985" fill="none" stroke-width="2" stroke="#FFFFFF" transform="matrix(0 1 -1 0 5 0)" />
      <g fill="#FFFFFF" fill-rule="evenodd" transform="translate(0 36.5)">
        <path id="Ellipse 4" d="M0 6C0 2.68629 2.68629 0 6 0C9.31371 0 12 2.68629 12 6C12 9.31371 9.31371 12 6 12C2.68629 12 0 9.31371 0 6Z" />
        <path d="M6 0C2.68629 0 0 2.68629 0 6C0 9.31371 2.68629 12 6 12C9.31371 12 12 9.31371 12 6C12 2.68629 9.31371 0 6 0ZM3.17157 8.82843Q2 7.65685 2 6Q2 4 3 3Q4 2 6 2Q10 2 10 6Q10 10 6 10Q4.34315 10 3.17157 8.82843Z" fill="#FFFFFF" fill-rule="evenodd" />
      </g>
    </g>
  </g>
</svg>