<?xml version="1.0" encoding="utf-8"?>
<svg width="24" height="24" viewBox="0 0 24 24" fill="none" xmlns="http://www.w3.org/2000/svg">
  <g>
    <rect width="24" height="24" />
    <g id="vuesax/linear/chart-2" transform="translate(1 1)">
      <g id="chart-2">
        <path id="Vector" d="M8 0C5.40137 0 3.32218 0.513602 1.91789 1.91789C0.513602 3.32218 0 5.40137 0 8L0 14C0 16.5986 0.513602 18.6778 1.91789 20.0821C3.32218 21.4864 5.40137 22 8 22L14 22C16.5986 22 18.6778 21.4864 20.0821 20.0821C21.4864 18.6778 22 16.5986 22 14L22 8C22 5.40137 21.4864 3.32218 20.0821 1.91789C18.6778 0.513602 16.5986 0 14 0L8 0L8 0ZM2 8C2 5.59863 2.4864 4.17782 3.33211 3.33211C4.17782 2.4864 5.59863 2 8 2L14 2C16.4014 2 17.8222 2.4864 18.6679 3.33211C19.5136 4.17782 20 5.59863 20 8L20 14C20 16.4014 19.5136 17.8222 18.6679 18.6679C17.8222 19.5136 16.4014 20 14 20L8 20C5.59863 20 4.17782 19.5136 3.33211 18.6679C2.4864 17.8222 2 16.4014 2 14L2 8L2 8Z" fill="#FFFFFF" fill-rule="evenodd" />
        <path id="Vector" d="M3 0C1.34772 0 0 1.34771 0 3L0 12C0 13.649 1.33446 15 3 15C4.65228 15 6 13.6523 6 12L6 3C6 1.34771 4.65228 0 3 0L3 0ZM2 3C2 2.45228 2.45228 2 3 2C3.54772 2 4 2.45228 4 3L4 12C4 12.5477 3.54772 13 3 13C2.44554 13 2 12.551 2 12L2 3L2 3Z" fill="#FFFFFF" fill-rule="evenodd" transform="translate(11.5 3.5)" />
        <path id="Vector" d="M3 0C1.34772 0 0 1.34772 0 3L0 6.5C0 8.14903 1.33446 9.5 3 9.5C4.65228 9.5 6 8.15228 6 6.5L6 3C6 1.34772 4.65228 0 3 0L3 0ZM2 3C2 2.45228 2.45228 2 3 2C3.54772 2 4 2.45228 4 3L4 6.5C4 7.04772 3.54772 7.5 3 7.5C2.44554 7.5 2 7.05097 2 6.5L2 3L2 3Z" fill="#FFFFFF" fill-rule="evenodd" transform="translate(4.5 9)" />
      </g>
    </g>
  </g>
</svg>