<?xml version="1.0" encoding="utf-8"?>
<svg width="24" height="24" viewBox="0 0 24 24" fill="none" xmlns="http://www.w3.org/2000/svg">
  <g>
    <rect width="24" height="24" />
    <g id="vuesax/linear/grid-5" transform="translate(1 1)">
      <g id="grid-5">
        <path id="Vector" d="M8 0C5.40137 0 3.32218 0.513602 1.91789 1.91789C0.513602 3.32218 0 5.40137 0 8L0 14C0 16.5986 0.513602 18.6778 1.91789 20.0821C3.32218 21.4864 5.40137 22 8 22L14 22C16.5986 22 18.6778 21.4864 20.0821 20.0821C21.4864 18.6778 22 16.5986 22 14L22 8C22 5.40137 21.4864 3.32218 20.0821 1.91789C18.6778 0.513602 16.5986 0 14 0L8 0L8 0ZM2 8C2 5.59863 2.4864 4.17782 3.33211 3.33211C4.17782 2.4864 5.59863 2 8 2L14 2C16.4014 2 17.8222 2.4864 18.6679 3.33211C19.5136 4.17782 20 5.59863 20 8L20 14C20 16.4014 19.5136 17.8222 18.6679 18.6679C17.8222 19.5136 16.4014 20 14 20L8 20C5.59863 20 4.17782 19.5136 3.33211 18.6679C2.4864 17.8222 2 16.4014 2 14L2 8L2 8Z" fill="#0C0C0C" fill-rule="evenodd" />
        <path id="Vector" d="M1 0C1.55229 0 2 0.447715 2 1L2 21C2 21.5523 1.55229 22 1 22C0.447715 22 0 21.5523 0 21L0 1C0 0.447715 0.447715 0 1 0L1 0Z" fill="#0C0C0C" fill-rule="evenodd" transform="translate(8 0)" />
        <path id="Vector" d="M0 1C0 0.447715 0.447715 0 1 0L13 0C13.5523 0 14 0.447715 14 1C14 1.55229 13.5523 2 13 2L1 2C0.447715 2 0 1.55229 0 1L0 1Z" fill="#0C0C0C" fill-rule="evenodd" transform="translate(8 10)" />
      </g>
    </g>
  </g>
</svg>