<?xml version="1.0" encoding="utf-8"?>
<svg width="24" height="24" viewBox="0 0 24 24" fill="none" xmlns="http://www.w3.org/2000/svg">
  <g>
    <rect width="24" height="24" />
    <g id="vuesax/linear/logout" transform="translate(1.5 1.49)">
      <g id="logout">
        <path id="Vector" d="M1.99637 6.15579C2.13852 4.50508 2.61459 3.54416 3.33264 2.96153C4.0783 2.35649 5.27663 2 7.21006 2L7.34006 2C9.47616 2 10.7121 2.43378 11.4392 3.16086C12.1663 3.88793 12.6001 5.1239 12.6001 7.26L12.6001 13.78C12.6001 15.9161 12.1663 17.1521 11.4392 17.8791C10.7121 18.6062 9.47616 19.04 7.34006 19.04L7.21006 19.04C5.29135 19.04 4.09702 18.6884 3.35101 18.0916C2.63389 17.5179 2.15652 16.5746 2.00574 14.9572C1.95448 14.4073 1.46714 14.0031 0.917242 14.0543C0.367342 14.1056 -0.0368805 14.5929 0.0143762 15.1428C0.193603 17.0654 0.806225 18.6171 2.10162 19.6534C3.3681 20.6666 5.10877 21.04 7.21006 21.04L7.34006 21.04C9.67396 21.04 11.568 20.5788 12.8535 19.2934C14.1389 18.0079 14.6001 16.1139 14.6001 13.78L14.6001 7.26C14.6001 4.9261 14.1389 3.03207 12.8535 1.74664C11.568 0.461217 9.67396 0 7.34006 0L7.21006 0C5.09349 0 3.34182 0.378506 2.07248 1.40847C0.775527 2.46084 0.171601 4.03492 0.00374651 5.98421C-0.0436406 6.53445 0.364017 7.01893 0.914266 7.06631C1.46451 7.1137 1.94899 6.70604 1.99637 6.15579L1.99637 6.15579Z" fill="#FFFFFF" fill-rule="evenodd" transform="translate(6.4 0)" />
        <path id="Vector" d="M0 1C0 0.447715 0.447715 0 1 0L12.38 0C12.9323 0 13.38 0.447715 13.38 1C13.38 1.55229 12.9323 2 12.38 2L1 2C0.447715 2 0 1.55229 0 1L0 1Z" fill="#FFFFFF" fill-rule="evenodd" transform="translate(1.12 9.51)" />
        <path id="Vector" d="M5.05711 1.70711C5.44763 1.31658 5.44763 0.683416 5.05711 0.292892C4.66658 -0.0976305 4.03342 -0.0976305 3.64289 0.292892L0.292892 3.64289C-0.0976308 4.03342 -0.0976308 4.66658 0.292892 5.05711L3.64289 8.40711C4.03342 8.79763 4.66658 8.79763 5.05711 8.40711C5.44763 8.01658 5.44763 7.38342 5.05711 6.99289L2.41422 4.35L5.05711 1.70711L5.05711 1.70711Z" fill="#FFFFFF" fill-rule="evenodd" transform="translate(0 6.16)" />
      </g>
    </g>
  </g>
</svg>