<?xml version="1.0" encoding="utf-8"?>
<svg width="23.999" height="21.95" viewBox="0 0 23.999 21.95" fill="none" xmlns="http://www.w3.org/2000/svg">
  <g id="vuesax/linear/menu-board" transform="translate(0 0)">
    <g id="menu-board">
      <path id="Vector" d="M7.45341 0C6.02891 0 4.77675 0.941286 4.35862 2.29278L4.35862 2.29278L4.35784 2.29529L0.148624 15.8127L0.148342 15.8136C-0.498529 17.8979 1.04998 20.04 3.24339 20.04L16.3834 20.04C17.878 20.04 19.1865 19.0305 19.536 17.5627L19.5363 17.5613L22.9037 4.04173L22.9038 4.04175L22.9057 4.03342C23.0722 3.34007 23.0238 2.62785 22.742 1.98464C22.261 0.833977 21.1204 0 19.7534 0L7.45341 0L7.45341 0ZM6.26896 2.88489C6.43159 2.35772 6.9188 2 7.45341 2L19.7534 2C20.2808 2 20.7166 2.31925 20.8989 2.76134L20.9037 2.77281L20.9087 2.78417C21.0027 2.9967 21.0333 3.25835 20.963 3.55836L20.9625 3.56038L17.593 17.0884L17.5905 17.0989C17.4594 17.6503 16.9683 18.04 16.3834 18.04L3.24339 18.04C2.4171 18.04 1.80579 17.2226 2.05819 16.4073L2.05847 16.4064L6.26818 2.8874L6.26896 2.88489L6.26896 2.88489Z" fill="#FFFFFF" fill-rule="evenodd" transform="translate(0 1.91)" />
      <path id="Vector" d="M7.99737 0.92755C7.95733 0.376718 7.47834 -0.0373654 6.9275 0.00267577C6.37667 0.0427136 5.96259 0.521709 6.00263 1.07254L6.99241 14.6896L6.99261 14.6925C7.04091 15.4078 6.48442 16 5.78 16L1 16C0.447715 16 0 16.4477 0 17C0 17.5523 0.447715 18 1 18L5.78 18C7.65462 18 9.11757 16.4137 8.98757 14.5504L8.98736 14.5475L7.99737 0.92755L7.99737 0.92755Z" fill="#FFFFFF" fill-rule="evenodd" transform="translate(15.003 3.95)" />
      <path id="Vector" d="M3.01246 1.23429C3.14173 0.697345 2.81124 0.157274 2.2743 0.0280072C1.73735 -0.10126 1.19728 0.229228 1.06802 0.766172L0.0280075 5.08612C-0.10126 5.62306 0.229228 6.16313 0.766172 6.2924C1.30311 6.42167 1.84319 6.09118 1.97245 5.55423L3.01246 1.23429L3.01246 1.23429Z" fill="#FFFFFF" fill-rule="evenodd" transform="translate(8.683 0.01)" />
      <path id="Vector" d="M2.91755 1.21189C3.03446 0.672125 2.69167 0.139781 2.1519 0.0228715C1.61213 -0.0940404 1.07978 0.248757 0.962873 0.788526L0.022872 5.12849C-0.0940409 5.66826 0.248756 6.2006 0.788527 6.31751C1.32829 6.43442 1.86064 6.09163 1.97755 5.55186L2.91755 1.21189L2.91755 1.21189Z" fill="#FFFFFF" fill-rule="evenodd" transform="translate(15.383 0)" />
      <path id="Vector" d="M0 1C0 0.447715 0.447715 0 1 0L9 0C9.55229 0 10 0.447715 10 1C10 1.55229 9.55229 2 9 2L1 2C0.447715 2 0 1.55229 0 1L0 1Z" fill="#FFFFFF" fill-rule="evenodd" transform="translate(6.703 9.95)" />
      <path id="Vector" d="M0 1C0 0.447715 0.447715 0 1 0L9 0C9.55229 0 10 0.447715 10 1C10 1.55229 9.55229 2 9 2L1 2C0.447715 2 0 1.55229 0 1L0 1Z" fill="#FFFFFF" fill-rule="evenodd" transform="translate(5.703 13.95)" />
    </g>
  </g>
</svg>