<?xml version="1.0" encoding="utf-8"?>
<svg width="24" height="24" viewBox="0 0 24 24" fill="none" xmlns="http://www.w3.org/2000/svg">
  <g>
    <rect width="24" height="24" />
    <g id="vuesax/linear/messages-2" transform="translate(1 1)">
      <g id="messages-2">
        <path id="Vector" d="M9.54964 18.4766L13.5091 20.8296C14.9444 21.6915 16.7104 20.5097 16.5128 18.8704L16.5125 18.8675L16.1935 16.2825C18.2977 14.6018 19.66 12.0829 19.66 9.23999C19.66 4.07399 15.1963 0 9.83 0C4.46366 0 0 4.07399 0 9.23999C0 9.52497 0.0108981 9.8172 0.047132 10.1192C0.0883079 10.4623 0.303739 10.7598 0.616872 10.9061C0.930005 11.0523 1.29645 11.0265 1.58599 10.8378C2.31233 10.3645 3.19239 10.09 4.16 10.09C6.71244 10.09 8.66 12.0048 8.66 14.23C8.66 15.1672 8.31472 16.0409 7.71829 16.7421C7.48152 17.0205 7.41545 17.4058 7.54597 17.7472C7.67649 18.0885 7.98281 18.3315 8.3449 18.3808C8.74074 18.4348 9.14239 18.4666 9.54964 18.4766L9.54964 18.4766ZM4.16 8.09003C3.42314 8.09003 2.71374 8.20448 2.05019 8.41972C2.48839 4.85706 5.74554 2 9.83 2C14.2237 2 17.66 5.30599 17.66 9.23999C17.66 11.5823 16.456 13.6794 14.556 15.0111C14.2532 15.2234 14.0922 15.5855 14.1375 15.9525L14.5269 19.1079L10.3409 16.6203C10.2887 16.5893 10.2339 16.5632 10.1775 16.5423C10.4878 15.8298 10.66 15.0486 10.66 14.23C10.66 10.7751 7.68757 8.09003 4.16 8.09003L4.16 8.09003Z" fill="#FFFFFF" fill-rule="evenodd" transform="translate(2.34 0)" />
        <path id="Vector" d="M1.95791 12.0841L1.95685 12.0931C1.80318 13.3993 3.22887 14.3904 4.40497 13.6772L6.78424 12.2642C8.72011 12.1856 10.4587 11.3073 11.5885 9.93988C12.468 8.90229 13 7.57901 13 6.13995C13 2.6851 10.0276 0 6.5 0C5.14901 0 3.89029 0.384726 2.83729 1.07004C1.13852 2.15728 0 4.01029 0 6.13995C0 7.95574 0.830969 9.57266 2.13591 10.6817L1.95795 12.0841L1.95791 12.0841L1.95791 12.0841ZM3.92599 2.74777C4.65233 2.27442 5.53239 2 6.5 2C9.05243 2 11 3.91481 11 6.13995C11 7.0772 10.6547 7.95087 10.0583 8.65209C10.055 8.6559 10.0518 8.65974 10.0486 8.6636C9.25335 9.62759 7.96903 10.27 6.5 10.27C6.32029 10.27 6.1439 10.3184 5.98939 10.4101L4.03947 11.5681L4.19204 10.3659C4.23896 9.99613 4.07636 9.63097 3.77016 9.41846C2.67575 8.65891 2 7.46444 2 6.13995C2 4.75143 2.73956 3.50581 3.91839 2.75267L3.53953 2.15966L3.91842 2.7527L3.92599 2.74777L3.92599 2.74777ZM3.37997 1.90993L4.37997 2.90993L3.38045 1.91041L3.37997 1.90993L3.37997 1.90993ZM3.5635 12.2879L4.5635 13.2879L4.56064 13.2849L3.5635 12.2879L3.5635 12.2879Z" fill="#FFFFFF" fill-rule="evenodd" transform="translate(0 8.09)" />
      </g>
    </g>
  </g>
</svg>