<?xml version="1.0" encoding="utf-8"?>
<svg width="24" height="24" viewBox="0 0 24 24" fill="none" xmlns="http://www.w3.org/2000/svg">
  <g>
    <rect width="24" height="24" />
    <g id="vuesax/linear/note" transform="translate(2 1)">
      <g id="note">
        <path id="Vector" d="M1 0C1.55229 0 2 0.447715 2 1L2 4C2 4.55228 1.55229 5 1 5C0.447715 5 0 4.55228 0 4L0 1C0 0.447715 0.447715 0 1 0L1 0Z" fill="#FFFFFF" fill-rule="evenodd" transform="translate(5 0)" />
        <path id="Vector" d="M1 0C1.55229 0 2 0.447715 2 1L2 4C2 4.55228 1.55229 5 1 5C0.447715 5 0 4.55228 0 4L0 1C0 0.447715 0.447715 0 1 0L1 0Z" fill="#FFFFFF" fill-rule="evenodd" transform="translate(13 0)" />
        <path id="Vector" d="M0 1C0 0.447715 0.447715 0 1 0L9 0C9.55229 0 10 0.447715 10 1C10 1.55229 9.55229 2 9 2L1 2C0.447715 2 0 1.55229 0 1L0 1Z" fill="#FFFFFF" fill-rule="evenodd" transform="translate(4 11)" />
        <path id="Vector" d="M0 1C0 0.447715 0.447715 0 1 0L6 0C6.55228 0 7 0.447715 7 1C7 1.55228 6.55228 2 6 2L1 2C0.447715 2 0 1.55228 0 1L0 1Z" fill="#FFFFFF" fill-rule="evenodd" transform="translate(4 15)" />
        <path id="Vector" d="M6 0C5.981 0 5.962 0.000541925 5.94304 0.00162399C4.19645 0.101279 2.61084 0.489545 1.50801 1.71473C0.421998 2.92122 0 4.72452 0 7.15L0 13.33C0 15.4043 0.234357 17.284 1.36288 18.6124C2.52748 19.9833 4.40661 20.51 7 20.51L13 20.51C15.5934 20.51 17.4725 19.9833 18.6371 18.6124C19.7656 17.284 20 15.4043 20 13.33L20 7.15C20 4.72459 19.578 2.91913 18.4924 1.71148C17.3892 0.484141 15.8027 0.095984 14.054 0.00145793C14.036 0.000486016 14.018 0 14 0L6 0L6 0ZM2.99449 3.05277C3.55583 2.42916 4.46278 2.0927 6.02902 2L13.9725 2C15.5375 2.0878 16.444 2.42437 17.0051 3.04852C17.587 3.69587 18 4.87541 18 7.15L18 13.33C18 15.3757 17.7344 16.586 17.1129 17.3176C16.5275 18.0067 15.4066 18.51 13 18.51L7 18.51C4.59339 18.51 3.47252 18.0067 2.88712 17.3176C2.26564 16.586 2 15.3757 2 13.33L2 7.15C2 4.87548 2.413 3.69878 2.99449 3.05277L2.99449 3.05277Z" fill="#FFFFFF" fill-rule="evenodd" transform="translate(0 1.5)" />
      </g>
    </g>
  </g>
</svg>