<?xml version="1.0" encoding="utf-8"?>
<svg width="24" height="24" viewBox="0 0 24 24" fill="none" xmlns="http://www.w3.org/2000/svg">
  <g>
    <rect width="24" height="24" />
    <g id="vuesax/linear/notification" transform="translate(2.974 0.94)">
      <g id="notification">
        <path id="Vector" d="M9.04613 0C5.18384 0 2.04613 3.13772 2.04613 7L2.04613 9.89C2.04613 10.0745 2.00303 10.3649 1.91381 10.6863C1.82468 11.0073 1.71179 11.2792 1.61718 11.4379L1.61719 11.4379L0.469423 13.3442L0.469272 13.3444C-0.027113 14.1694 -0.137043 15.1081 0.174598 15.9497C0.485806 16.7902 1.17898 17.4304 2.08553 17.7372L2.08924 17.7385C6.60491 19.2472 11.4774 19.2472 15.993 17.7385C17.8129 17.1347 18.6007 14.9907 17.6137 13.3455L17.6129 13.3442L16.4685 11.4436C16.3754 11.2801 16.2653 11.0072 16.1781 10.6893C16.0893 10.3658 16.0462 10.0748 16.0462 9.89L16.0462 7C16.0462 3.14772 12.8985 0 9.04613 0L9.04613 0ZM15.8987 14.3745C16.231 14.9284 15.9602 15.6429 15.3623 15.8405L15.3593 15.8415C11.2549 17.2128 6.82734 17.2128 2.72301 15.8415L2.723 15.8415C2.33199 15.7081 2.13118 15.4741 2.05015 15.2553C1.96929 15.0369 1.96936 14.7306 2.18298 14.3756L2.18296 14.3756L3.33284 12.4658L3.33507 12.4621C3.55046 12.1008 3.72257 11.6477 3.84094 11.2212C3.95923 10.7951 4.04613 10.3155 4.04613 9.89L4.04613 7C4.04613 4.24229 6.28841 2 9.04613 2C11.7939 2 14.0462 4.25228 14.0462 7L14.0462 9.89C14.0462 10.3152 14.133 10.7942 14.2493 11.2182C14.3659 11.6434 14.5339 12.0924 14.74 12.4497L14.7446 12.4578L14.7495 12.4658L15.8987 14.3745L15.8987 14.3745Z" fill="#FFFFFF" fill-rule="evenodd" transform="translate(0 0.97)" />
        <path id="Vector" d="M3.61598 3.05228L3.68929 2.46586L3.68929 2.46587L3.61599 3.05228L3.61969 3.05273C3.88803 3.08526 4.15467 3.14296 4.42121 3.22035C4.78713 3.32658 5.18163 3.21563 5.43854 2.93423C5.69544 2.65283 5.77011 2.24989 5.63108 1.89513C5.19515 0.782753 4.11288 0 2.85002 0C1.58716 0 0.504894 0.782752 0.068964 1.89513C-0.0700889 2.24995 0.00462294 2.65296 0.26162 2.93436C0.518617 3.21576 0.913216 3.32663 1.27916 3.22025C2.00109 3.01039 2.78344 2.94821 3.61598 3.05228L3.61598 3.05228ZM1.06896 2.89513L0.068964 1.89513L1.06896 2.89512L1.06896 2.89513L1.06896 2.89513Z" fill="#FFFFFF" fill-rule="evenodd" transform="translate(6.196 0)" />
        <path id="Vector" d="M2.58711 1.41289C2.22641 1.05219 2 0.543358 2 0L0 0C0 1.09664 0.453592 2.10781 1.17289 2.82711C1.89219 3.54641 2.90336 4 4 4C6.20228 4 8 2.20228 8 0L6 0C6 1.09772 5.09772 2 4 2C3.45664 2 2.94781 1.77359 2.58711 1.41289L2.58711 1.41289Z" fill="#FFFFFF" fill-rule="evenodd" transform="translate(5.046 18.12)" />
      </g>
    </g>
    <path id="Ellipse 3" d="M0 3C0 1.34315 1.34315 0 3 0C4.65685 0 6 1.34315 6 3C6 4.65685 4.65685 6 3 6C1.34315 6 0 4.65685 0 3Z" fill="#FF001F" fill-rule="evenodd" transform="translate(14 3)" />
  </g>
</svg>