<?xml version="1.0" encoding="utf-8"?>
<svg width="24" height="24" viewBox="0 0 24 24" fill="none" xmlns="http://www.w3.org/2000/svg">
  <g>
    <rect width="24" height="24" />
    <g id="vuesax/linear/profile-2user" transform="translate(1.345 1)">
      <g id="profile-2user">
        <path id="Vector" d="M5.44 0C2.42625 0 0 2.43918 0 5.44C0 8.37783 2.31613 10.7713 5.23641 10.8694C5.27782 10.8708 5.31927 10.8696 5.36054 10.8659C5.41346 10.8611 5.46953 10.8619 5.5005 10.865C5.54472 10.8695 5.58918 10.8709 5.63359 10.8694C8.55461 10.7712 10.8678 8.37802 10.88 5.44417L10.88 5.44C10.88 2.43772 8.44229 0 5.44 0L5.44 0ZM2 5.44C2 3.54082 3.53375 2 5.44 2C7.33711 2 8.87901 3.54129 8.88 5.43816C8.87109 7.28516 7.43292 8.77955 5.61976 8.86836C5.49856 8.86032 5.37246 8.86075 5.25239 8.86846C3.43679 8.78069 2 7.28486 2 5.44L2 5.44Z" fill="#FFFFFF" fill-rule="evenodd" transform="translate(2.215 0)" />
        <path id="Vector" d="M1.13009 0C0.577802 0 0.130087 0.447715 0.130087 1C0.130087 1.55228 0.577802 2 1.13009 2C2.51594 2 3.63009 3.12042 3.63009 4.5C3.63009 5.82921 2.59002 6.91772 1.28241 6.99776C1.14917 6.9882 1.01602 6.99208 0.889656 7.00612C0.34075 7.06711 -0.0547819 7.56152 0.00620365 8.11043C0.067194 8.65934 0.561613 9.05487 1.11052 8.99388C1.11959 8.99288 1.12772 8.9925 1.13384 8.9925L1.13855 8.99259C1.19127 8.99904 1.24442 9.00129 1.29749 8.9993C3.70197 8.90929 5.63009 6.93061 5.63009 4.5C5.63009 2.01958 3.62423 0 1.13009 0L1.13009 0Z" fill="#FFFFFF" fill-rule="evenodd" transform="translate(13.935 2)" />
        <path id="Vector" d="M13.3804 1.54092L13.3789 1.53992C11.8097 0.492411 9.7928 0 7.8275 0C5.86125 0 3.8403 0.492836 2.26239 1.53905L2.25872 1.54151C0.841589 2.49016 0 3.83741 0 5.31125C0 6.78497 0.841462 8.12981 2.25891 9.07363L2.26109 9.07508C3.83473 10.1272 5.8538 10.6225 7.82 10.6225C9.78711 10.6225 11.8071 10.1267 13.3811 9.07362L13.3813 9.07349C14.7984 8.12484 15.64 6.77759 15.64 5.30375C15.64 3.82979 14.7983 2.48476 13.3804 1.54092L13.3804 1.54092ZM2 5.31125C2 4.65813 2.36781 3.87613 3.36881 3.20514C4.55079 2.42188 6.16431 2 7.8275 2C9.49157 2 11.099 2.42228 12.2696 3.20408L12.2711 3.20508C13.2723 3.87119 13.64 4.65073 13.64 5.30375C13.64 5.95737 13.2716 6.74006 12.2687 7.41151C11.0927 8.19831 9.4828 8.6225 7.82 8.6225C6.15711 8.6225 4.54715 8.19826 3.3711 7.41138L3.37109 7.41138L3.36891 7.40992C2.36767 6.74381 2 5.96427 2 5.31125L2 5.31125Z" fill="#FFFFFF" fill-rule="evenodd" transform="translate(0 11.188)" />
        <path id="Vector" d="M1.25004 0.0246811C0.711267 -0.0967331 0.176078 0.241604 0.0546656 0.780378C-0.0667505 1.31915 0.271588 1.85434 0.810361 1.97575C1.41307 2.11158 1.94208 2.34097 2.35329 2.65498L2.35326 2.65502L2.3602 2.66022C2.92328 3.08253 3.1302 3.57617 3.1302 3.99522C3.1302 4.41427 2.92328 4.90791 2.3602 5.33022L2.36016 5.33017L2.35117 5.33707C1.92736 5.66249 1.3913 5.89727 0.796247 6.02124C0.25557 6.13388 -0.0914202 6.6635 0.0212202 7.20417C0.133861 7.74485 0.663478 8.09184 1.20415 7.9792C2.04738 7.80353 2.86968 7.45934 3.56497 6.92663C4.55895 6.17915 5.1302 5.12436 5.1302 3.99522C5.1302 2.86549 4.55836 1.8102 3.56344 1.06265C2.87543 0.53828 2.06588 0.20853 1.25004 0.0246811L1.25004 0.0246811Z" fill="#FFFFFF" fill-rule="evenodd" transform="translate(15.995 12)" />
      </g>
    </g>
  </g>
</svg>