<?xml version="1.0" encoding="utf-8"?>
<svg width="24" height="24" viewBox="0 0 24 24" fill="none" xmlns="http://www.w3.org/2000/svg">
  <g>
    <rect width="24" height="24" />
    <g id="vuesax/linear/setting-2" transform="translate(1 1.56)">
      <g id="setting-2">
        <path id="Vector" d="M4 0C1.79086 0 0 1.79086 0 4C0 6.20914 1.79086 8 4 8C6.20914 8 8 6.20914 8 4C8 1.79086 6.20914 0 4 0L4 0ZM2 4C2 2.89543 2.89543 2 4 2C5.10457 2 6 2.89543 6 4C6 5.10457 5.10457 6 4 6C2.89543 6 2 5.10457 2 4L2 4Z" fill="#FFFFFF" fill-rule="evenodd" transform="translate(7 6.44)" />
        <path id="Vector" d="M18.3359 5.31008C19.1316 3.93282 18.6597 2.14835 17.2667 1.3519L17.2667 1.35187L15.5427 0.365318C14.2603 -0.391296 12.6398 0.0760316 11.9006 1.31851L12.76 1.8298L11.9005 1.31848L11.8946 1.32877L11.7848 1.51836L11.7848 1.51833C11.4363 2.11959 11.1169 2.1973 11.0012 2.1973C10.8872 2.1973 10.5709 2.12142 10.2276 1.52247L10.2254 1.51877L10.1154 1.32877L10.1155 1.32873L10.1094 1.31851C9.37015 0.075928 7.74946 -0.391374 6.46696 0.365509L4.74386 1.35156L4.74332 1.35187C3.35024 2.14831 2.87837 3.9328 3.67413 5.31008L3.67483 5.31127C4.02307 5.91209 3.93045 6.22555 3.87357 6.32425C3.8166 6.42311 3.59195 6.6598 2.9 6.6598C1.2943 6.6598 0 7.97094 0 9.5598L0 11.3198C0 12.9087 1.2943 14.2198 2.9 14.2198C3.59195 14.2198 3.8166 14.4565 3.87357 14.5553C3.93045 14.6541 4.02307 14.9675 3.67482 15.5683L3.67413 15.5695C2.87837 16.9468 3.35024 18.7313 4.74332 19.5277L4.74386 19.528L6.46538 20.5132C7.74813 21.2714 9.36984 20.8041 10.1094 19.5611L9.27556 19.065L10.1095 19.5611L10.1154 19.5508L10.2251 19.3613L10.2255 19.3608C10.5738 18.76 10.8932 18.6823 11.0087 18.6823C11.1228 18.6823 11.4391 18.7582 11.7824 19.3571L11.7846 19.3608L11.8946 19.5508L12.7599 19.0498L11.8945 19.5509L11.9006 19.5611C12.6401 20.804 14.2616 21.2713 15.5443 20.5133L17.2667 19.5277L17.2667 19.5277C18.6609 18.7306 19.1292 16.9578 18.3382 15.5737L18.3383 15.5737L18.3352 15.5683C17.9869 14.9675 18.0795 14.6541 18.1364 14.5553C18.1934 14.4565 18.4181 14.2198 19.11 14.2198C20.7157 14.2198 22.01 12.9087 22.01 11.3198L22.01 9.5598C22.01 7.9541 20.6989 6.6598 19.11 6.6598C18.4181 6.6598 18.1934 6.42311 18.1364 6.32425C18.0795 6.22555 17.9869 5.91209 18.3352 5.31127L18.3359 5.31008L18.3359 5.31008ZM16.77 18.6598L17.77 19.6594L17.7688 19.6598L16.77 18.6598L16.77 18.6598ZM16.04 20.64C16.0354 20.6416 16.0309 20.6432 16.0263 20.6448L16.0114 20.6498L15.04 19.6498L16.04 20.64L16.04 20.64ZM13.5154 2.52084L13.6214 2.33778C13.8213 2.00574 14.2335 1.91357 14.5287 2.08921C14.5336 2.09209 14.5384 2.09493 14.5433 2.09774L16.2733 3.08774L16.2739 3.08804C16.7004 3.33176 16.8483 3.88698 16.6041 4.30953C16.043 5.27843 15.8656 6.38944 16.4036 7.32285C16.9416 8.25649 17.9919 8.6598 19.11 8.6598C19.6011 8.6598 20.01 9.0655 20.01 9.5598L20.01 11.3198C20.01 11.8109 19.6043 12.2198 19.11 12.2198C17.9919 12.2198 16.9416 12.6231 16.4036 13.5568C15.8654 14.4905 16.0431 15.6021 16.6048 16.5713L16.6048 16.5713C16.8495 17.0061 16.6975 17.5495 16.2739 17.7916L16.2733 17.7919L14.5433 18.7819C14.5384 18.7847 14.5336 18.7875 14.5287 18.7904C14.2331 18.9663 13.8203 18.8737 13.6206 18.5405L13.5176 18.3625L13.5176 18.3625C12.9609 17.3914 12.0872 16.6823 11.0087 16.6823C9.93188 16.6823 9.05633 17.3896 8.49482 18.3583L8.49457 18.3588L8.3888 18.5415C8.18897 18.8739 7.77662 18.9661 7.48129 18.7904C7.47645 18.7875 7.47157 18.7847 7.46668 18.7819L5.73668 17.7919L5.73614 17.7916C5.30964 17.5478 5.16173 16.9926 5.40587 16.5701C5.96708 15.6012 6.14433 14.4901 5.60643 13.5568C5.0684 12.6231 4.01805 12.2198 2.9 12.2198C2.4057 12.2198 2 11.8109 2 11.3198L2 9.5598C2 9.06866 2.4057 8.6598 2.9 8.6598C4.01805 8.6598 5.0684 8.25649 5.60643 7.32285C6.14433 6.38944 5.96708 5.27843 5.40586 4.30953L5.40587 4.30952C5.16173 3.88698 5.30964 3.33176 5.73614 3.08804L5.73668 3.08774L7.46668 2.09774C7.47157 2.09493 7.47645 2.09209 7.48129 2.08921C7.77626 1.91372 8.18798 2.00558 8.38808 2.3369L8.4945 2.52072L8.49457 2.52084C9.05132 3.49 9.9242 4.1973 11.0012 4.1973C12.0781 4.1973 12.9537 3.49001 13.5152 2.52127L13.5154 2.52084L13.5154 2.52084ZM18.484 15.5737L17.4841 16.5737L18.4841 15.5738L18.484 15.5737L18.484 15.5737Z" fill="#FFFFFF" fill-rule="evenodd" />
      </g>
    </g>
  </g>
</svg>