<?xml version="1.0" encoding="utf-8"?>
<svg width="24" height="24" viewBox="0 0 24 24" fill="none" xmlns="http://www.w3.org/2000/svg">
  <g>
    <rect width="24" height="24" />
    <g id="vuesax/linear/share" transform="translate(1.05 1.14)">
      <g id="share">
        <path id="Vector" d="M1.5708 0.178935C1.11728 -0.136259 0.494126 -0.0241289 0.178935 0.429387C-0.136259 0.882899 -0.0241289 1.50606 0.429387 1.82125C2.19941 3.05142 3.41859 5.00547 3.66607 7.25924C3.72635 7.80822 4.22025 8.2044 4.76924 8.14412C5.31822 8.08383 5.7144 7.58993 5.65412 7.04094C5.34159 4.19471 3.80077 1.72877 1.5708 0.178935L1.5708 0.178935Z" fill="#FFFFFF" fill-rule="evenodd" transform="translate(14.91 4.03)" />
        <path id="Vector" d="M5.17741 1.81659C5.62836 1.49774 5.73544 0.873698 5.41659 0.422751C5.09774 -0.0281982 4.4737 -0.135278 4.02275 0.183572C1.81511 1.74453 0.295696 4.21107 0.00527561 7.04825C-0.0509624 7.59766 0.348834 8.08864 0.898247 8.14488C1.44766 8.20112 1.93864 7.80132 1.99488 7.25191C2.22446 5.00909 3.42505 3.05563 5.17741 1.81659L5.17741 1.81659Z" fill="#FFFFFF" fill-rule="evenodd" transform="translate(1.44 4.08)" />
        <path id="Vector" d="M1.45356 0.108881C0.961294 -0.141497 0.35926 0.054594 0.108881 0.546864C-0.141497 1.03913 0.0545936 1.64117 0.546864 1.89155C1.84598 2.5523 3.32116 2.92021 4.87021 2.92021C6.36188 2.92021 7.77153 2.58571 9.03785 1.96936C9.53444 1.72766 9.74106 1.12916 9.49936 0.632574C9.25766 0.135986 8.65916 -0.0706367 8.16257 0.171062C7.16889 0.654711 6.05854 0.920214 4.87021 0.920214C3.63926 0.920214 2.47445 0.628124 1.45356 0.108881L1.45356 0.108881Z" fill="#FFFFFF" fill-rule="evenodd" transform="translate(6.14 18.8)" />
        <path id="Vector" d="M3.78 0C1.69236 0 0 1.69236 0 3.78C0 5.86764 1.69236 7.56 3.78 7.56C5.86764 7.56 7.56 5.86764 7.56 3.78C7.56 1.69236 5.86764 0 3.78 0L3.78 0ZM2 3.78C2 2.79693 2.79693 2 3.78 2C4.76307 2 5.56 2.79693 5.56 3.78C5.56 4.76307 4.76307 5.56 3.78 5.56C2.79693 5.56 2 4.76307 2 3.78L2 3.78Z" fill="#FFFFFF" fill-rule="evenodd" transform="translate(7.23 0)" />
        <path id="Vector" d="M3.78 0C1.69236 0 0 1.69236 0 3.78C0 5.86764 1.69236 7.56 3.78 7.56C5.86764 7.56 7.56 5.86764 7.56 3.78C7.56 1.69236 5.86764 0 3.78 0L3.78 0ZM2 3.78C2 2.79693 2.79693 2 3.78 2C4.76307 2 5.56 2.79693 5.56 3.78C5.56 4.76307 4.76307 5.56 3.78 5.56C2.79693 5.56 2 4.76307 2 3.78L2 3.78Z" fill="#FFFFFF" fill-rule="evenodd" transform="translate(0 12.22)" />
        <path id="Vector" d="M3.78 0C1.69236 0 0 1.69236 0 3.78C0 5.86764 1.69236 7.56 3.78 7.56C5.86764 7.56 7.56 5.86764 7.56 3.78C7.56 1.69236 5.86764 0 3.78 0L3.78 0ZM2 3.78C2 2.79693 2.79693 2 3.78 2C4.76307 2 5.56 2.79693 5.56 3.78C5.56 4.76307 4.76307 5.56 3.78 5.56C2.79693 5.56 2 4.76307 2 3.78L2 3.78Z" fill="#FFFFFF" fill-rule="evenodd" transform="translate(14.34 12.22)" />
      </g>
    </g>
  </g>
</svg>