<?xml version="1.0" encoding="utf-8"?>
<svg width="24" height="24" viewBox="0 0 24 24" fill="none" xmlns="http://www.w3.org/2000/svg">
  <g>
    <rect width="24" height="24" />
    <g id="vuesax/linear/star" transform="translate(0.999 1.078)">
      <g id="star">
        <path id="Vector" d="M10.9997 0C12.1844 0 13.078 0.885856 13.6254 1.9853L13.6254 1.98529L15.3854 5.50529L15.389 5.51263L14.4934 5.9513L14.491 5.95251L15.389 5.51262C15.4193 5.57447 15.5139 5.69869 15.6822 5.82284C15.8495 5.94625 15.9999 6.00338 16.0748 6.01602L16.0753 6.0161L19.2648 6.54602L19.2653 6.54611C20.4578 6.74485 21.5381 7.33855 21.8942 8.44649C22.2508 9.55564 21.7167 10.6657 20.858 11.5196L20.8556 11.522L18.378 13.9996C18.3179 14.0597 18.2263 14.2024 18.1661 14.4127C18.1066 14.6207 18.107 14.7929 18.1262 14.8815L18.1268 14.8838L18.8352 17.9472L18.8354 17.9479C19.1348 19.2473 19.0656 20.6604 18.0263 21.4181C16.9887 22.1745 15.6213 21.8122 14.4723 21.1335L14.4715 21.133L11.4815 19.363L11.4811 19.3628C11.4031 19.3165 11.2335 19.2625 11.0047 19.2625C10.7795 19.2625 10.6051 19.3149 10.517 19.365L7.53129 21.1325L7.53132 21.1325C6.38249 21.8142 5.01631 22.1709 3.97903 21.4141C2.94099 20.6566 2.86594 19.2469 3.16668 17.9472L3.1667 17.9471L3.87516 14.8838L3.87554 14.8821C3.89489 14.7937 3.89551 14.6212 3.83583 14.4127C3.77563 14.2024 3.684 14.0597 3.62386 13.9996L1.14386 11.5196C0.289851 10.6656 -0.242899 9.55612 0.110854 8.44831C0.464913 7.33954 1.54309 6.74502 2.73656 6.54611L2.73707 6.54602L5.92355 6.0166L5.92472 6.01641C5.99407 6.00429 6.14185 5.94823 6.30911 5.82422C6.47741 5.69943 6.57246 5.57477 6.6029 5.51263L6.60651 5.50527L6.60654 5.50529L8.36654 1.98529L8.36747 1.98342C8.91974 0.884639 9.81616 0 10.9997 0L10.9997 0ZM10.1554 2.87971C10.5627 2.07025 10.9258 2 10.9997 2C11.0718 2 11.4328 2.06814 11.8356 2.87784L11.8365 2.87971L13.5965 6.3997C13.8066 6.82459 14.15 7.17777 14.4947 7.43216C14.8421 7.68847 15.2814 7.91137 15.7465 7.98889L15.747 7.98898L18.9365 8.5189L18.937 8.51897C19.7842 8.66027 19.9638 8.97647 19.9902 9.05851C20.0158 9.13832 20.0562 9.4972 19.4462 10.103L19.4438 10.1054L16.9638 12.5854C16.604 12.9453 16.3706 13.4176 16.2433 13.8623C16.1159 14.3075 16.0648 14.8291 16.1751 15.3212L16.1766 15.3278L16.8866 18.3978L16.8867 18.3978C17.1469 19.5278 16.8513 19.7996 16.8481 19.8019C16.8432 19.8055 16.4908 20.0027 15.4903 19.412L15.4895 19.4115L12.5007 17.6422L12.5007 17.6422C12.0388 17.3685 11.4934 17.2625 11.0047 17.2625C10.5151 17.2625 9.97105 17.3688 9.50811 17.6382L9.50806 17.6381L9.50156 17.642L6.51155 19.412L6.51061 19.4125C5.51944 20.0008 5.16562 19.8041 5.1579 19.7984C5.15096 19.7934 4.85599 19.5182 5.11522 18.3979L5.11525 18.3978L5.82525 15.3278L5.82527 15.3278L5.82675 15.3212C5.93704 14.8291 5.88604 14.3075 5.7586 13.8623C5.63129 13.4176 5.39793 12.9453 5.03807 12.5854L2.55807 10.1054C1.95208 9.4994 1.98983 9.13888 2.01607 9.05669C2.04201 8.97548 2.21876 8.6601 3.06486 8.51898L3.06536 8.5189L6.25486 7.98898L6.25838 7.98839C6.71952 7.91008 7.15601 7.68607 7.50031 7.43078C7.84363 7.17623 8.18768 6.82206 8.39741 6.39568L10.1545 2.88158L10.1554 2.87971L10.1554 2.87971ZM12.8365 2.43308L11.8365 3.43308L12.8267 2.44285L12.8365 2.43308L12.8365 2.43308Z" fill="#FFFFFF" fill-rule="evenodd" />
      </g>
    </g>
  </g>
</svg>