<?xml version="1.0" encoding="utf-8"?>
<svg width="24" height="24" viewBox="0 0 24 24" fill="none" xmlns="http://www.w3.org/2000/svg">
  <g>
    <rect width="24" height="24" />
    <g id="vuesax/linear/video-circle" transform="translate(1 1)">
      <g id="video-circle">
        <path id="Vector" d="M4.49896 0.540784C3.49054 -0.039824 2.34305 -0.218874 1.38297 0.332893C0.421121 0.885678 0 1.96899 0 3.13741L0 6.09741C0 7.26276 0.422243 8.34383 1.38147 8.89731C2.34028 9.45056 3.48806 9.27607 4.49896 8.69403L4.00675 7.83913L4.49897 8.69403L4.5005 8.69315L5.7805 7.95315L7.05896 7.21403L7.0605 7.21314C8.07081 6.63095 8.7975 5.72507 8.7975 4.61741C8.7975 3.50974 8.07081 2.60386 7.0605 2.02168L7.05896 2.02079L5.7805 1.28167L4.5005 0.54167L4.49896 0.540784L4.49896 0.540784ZM2 3.13741C2 2.39583 2.25388 2.13914 2.37953 2.06692C2.50685 1.99375 2.85891 1.90478 3.4995 2.27314L3.4995 2.27315L4.7795 3.01314L6.0595 3.75315L6.06104 3.75403C6.69993 4.12188 6.7975 4.47064 6.7975 4.61741C6.7975 4.76417 6.69993 5.11294 6.06104 5.48079L6.55991 6.34725L6.06103 5.48079L6.0595 5.48168L4.7795 6.22168L3.50104 6.96079L3.4995 6.96167C2.86137 7.3286 2.50962 7.2392 2.38103 7.16501C2.25276 7.09099 2 6.83206 2 6.09741L2 3.13741L2 3.13741Z" fill="#FFFFFF" fill-rule="evenodd" transform="translate(7.1 6.383)" />
        <path id="Vector" d="M11 0C4.92487 0 0 4.92487 0 11C0 17.0751 4.92487 22 11 22C17.0751 22 22 17.0751 22 11C22 4.92487 17.0751 0 11 0L11 0ZM2 11C2 6.02944 6.02944 2 11 2C15.9706 2 20 6.02944 20 11C20 15.9706 15.9706 20 11 20C6.02944 20 2 15.9706 2 11L2 11Z" fill="#FFFFFF" fill-rule="evenodd" />
      </g>
    </g>
  </g>
</svg>