<?xml version="1.0" encoding="utf-8"?>
<svg width="166" height="42" viewBox="0 0 166 42" fill="none" xmlns="http://www.w3.org/2000/svg">
  <g id="logo">
    <g transform="translate(0 2)">
      <rect width="50" height="39" />
      <path id="Vector" d="M8.43948 2.64428C9.55488 0.990985 11.4189 0 13.4133 0L20.0192 0C24.8264 0 27.6816 5.37068 24.993 9.35572L17.5899 20.3286C16.4745 21.9819 14.6105 22.9729 12.6161 22.9729L6.01018 22.9729C1.20299 22.9729 -1.65227 17.6022 1.03633 13.6172L8.43948 2.64428L8.43948 2.64428Z" fill="#DAFF00" fill-rule="evenodd" transform="translate(6.276 2)" />
      <path id="Vector" d="M4.45654 14.0749C2.97771 14.0749 1.59552 14.8097 0.768435 16.0356C-1.22515 18.9906 0.892015 22.9729 4.45654 22.9729L14.9799 22.9729C16.9743 22.9729 18.8383 21.9819 19.9537 20.3286L27.3569 9.35571C30.0455 5.37067 27.1902 0 22.383 0L20.5611 0C18.5667 0 16.7027 0.990983 15.5873 2.64427L9.49279 11.6775C8.48148 13.1764 6.79149 14.0749 4.9833 14.0749L4.45654 14.0749L4.45654 14.0749Z" fill="#DAFF00" fill-rule="evenodd" transform="translate(15.331 13.027)" />
    </g>
    <path d="M11.2861 29.4L6.52148 22.8512L6.52148 29.4L1.73633 29.4L1.73633 8.68027L6.52148 8.68027L6.52148 20.1305L11.2588 13.773L17.165 13.773L10.6709 21.6139L17.2197 29.4L11.2861 29.4ZM23.8255 16.3775Q24.6663 15.0924 25.9241 14.3541Q27.1888 13.609 28.7269 13.609L28.7269 18.6744L27.4144 18.6744Q25.6233 18.6744 24.721 19.4469Q23.8255 20.2193 23.8255 22.1471L23.8255 29.4L19.0403 29.4L19.0403 13.773L23.8255 13.773L23.8255 16.3775ZM45.7489 21.3336Q45.7489 22.0104 45.6669 22.735L34.8319 22.735Q34.9413 24.191 35.7685 24.9635Q36.5956 25.7291 37.7987 25.7291Q39.5898 25.7291 40.2939 24.2184L45.3866 24.2184Q44.997 25.7633 43.9716 26.9938Q42.953 28.2242 41.4081 28.9283Q39.87 29.6256 37.9696 29.6256Q35.6728 29.6256 33.8818 28.648Q32.0907 27.6637 31.079 25.8453Q30.0741 24.027 30.0741 21.5865Q30.0741 19.1529 31.0653 17.3346Q32.0634 15.5094 33.8544 14.5318Q35.6454 13.5543 37.9696 13.5543Q40.2392 13.5543 42.0028 14.5045Q43.7665 15.4547 44.7577 17.2184Q45.7489 18.982 45.7489 21.3336ZM40.8544 20.0758Q40.8544 18.8453 40.0136 18.1207Q39.1728 17.3893 37.915 17.3893Q36.705 17.3893 35.8778 18.0934Q35.0575 18.7906 34.8593 20.0758L40.8544 20.0758ZM47.3221 21.5592Q47.3221 19.1529 48.2313 17.3346Q49.1405 15.5094 50.7059 14.5318Q52.2782 13.5543 54.2059 13.5543Q55.8602 13.5543 57.1044 14.2242Q58.3553 14.8941 59.0253 15.9879L59.0253 13.773L63.8104 13.773L63.8104 29.4L59.0253 29.4L59.0253 27.1852Q58.3212 28.2789 57.077 28.9557Q55.8329 29.6256 54.1786 29.6256Q52.2782 29.6256 50.7059 28.6344Q49.1405 27.6363 48.2313 25.8043Q47.3221 23.9654 47.3221 21.5592ZM59.0253 21.5865Q59.0253 19.7955 58.0272 18.7633Q57.036 17.7242 55.6073 17.7242Q54.1786 17.7242 53.1805 18.7496Q52.1893 19.7682 52.1893 21.5592Q52.1893 23.3502 53.1805 24.4029Q54.1786 25.4488 55.6073 25.4488Q57.036 25.4488 58.0272 24.4166Q59.0253 23.3775 59.0253 21.5865ZM75.9933 25.3395L75.9933 29.4L73.5529 29.4Q70.9552 29.4 69.4992 28.1285Q68.0431 26.8502 68.0431 23.9654L68.0431 17.7516L66.1359 17.7516L66.1359 13.773L68.0431 13.773L68.0431 9.96543L72.8283 9.96543L72.8283 13.773L75.966 13.773L75.966 17.7516L72.8283 17.7516L72.8283 24.027Q72.8283 24.7242 73.1632 25.0318Q73.4982 25.3395 74.2843 25.3395L75.9933 25.3395ZM85.7617 29.6256Q83.4648 29.6256 81.6328 28.648Q79.8008 27.6637 78.748 25.8453Q77.7021 24.027 77.7021 21.5865Q77.7021 19.1803 78.7617 17.3482Q79.8281 15.5094 81.6738 14.5318Q83.5264 13.5543 85.8232 13.5543Q88.1133 13.5543 89.959 14.5318Q91.8115 15.5094 92.8711 17.3482Q93.9375 19.1803 93.9375 21.5865Q93.9375 23.9928 92.8574 25.8316Q91.7842 27.6637 89.918 28.648Q88.0586 29.6256 85.7617 29.6256ZM85.7617 25.483Q87.1357 25.483 88.0996 24.4781Q89.0703 23.4664 89.0703 21.5865Q89.0703 19.7135 88.1269 18.7086Q87.1904 17.6969 85.8232 17.6969Q84.4219 17.6969 83.4922 18.6949Q82.5693 19.6861 82.5693 21.5865Q82.5693 23.4664 83.4785 24.4781Q84.3945 25.483 85.7617 25.483ZM101.273 15.9879Q101.978 14.8941 103.208 14.2242Q104.439 13.5543 106.093 13.5543Q108.027 13.5543 109.593 14.5318Q111.158 15.5094 112.067 17.3346Q112.977 19.1529 112.977 21.5592Q112.977 23.9654 112.067 25.8043Q111.158 27.6363 109.593 28.6344Q108.027 29.6256 106.093 29.6256Q104.466 29.6256 103.222 28.9557Q101.978 28.2789 101.273 27.2193L101.273 36.8512L96.4883 36.8512L96.4883 13.773L101.273 13.773L101.273 15.9879ZM108.109 21.5592Q108.109 19.7682 107.111 18.7496Q106.12 17.7242 104.664 17.7242Q103.235 17.7242 102.237 18.7633Q101.246 19.7955 101.246 21.5865Q101.246 23.3775 102.237 24.4166Q103.235 25.4488 104.664 25.4488Q106.093 25.4488 107.098 24.4029Q108.109 23.3502 108.109 21.5592Z" fill="#FFFFFF" transform="translate(52 0)" />
  </g>
</svg>