<?xml version="1.0" encoding="utf-8"?>
<svg width="46" height="46" viewBox="0 0 46 46" fill="none" xmlns="http://www.w3.org/2000/svg">
  <g id="logo">
    <path id="Vector" d="M40.1435 7.66665C35.9321 2.96125 29.8119 0 23 0C20.9995 0 19.0586 0.255423 17.2082 0.735403C19.7143 1.4192 22.3766 2.41958 25.1785 3.82061C31.012 6.73731 36.0483 7.67643 40.1435 7.66665L40.1435 7.66665ZM9.83564 4.13755C8.19038 5.28796 6.70263 6.64813 5.41112 8.17926C10.6888 7.68928 17.3939 8.48936 25.1785 12.3817C33.4914 16.538 40.1853 16.6785 44.844 15.7799C44.4213 14.5001 43.889 13.2701 43.2587 12.1007C37.9258 12.6632 31.0891 11.9187 23.1214 7.93498C18.0619 5.40521 13.6019 4.36311 9.83564 4.13755L9.83564 4.13755ZM45.84 20.2723C40.2119 21.3837 32.4401 21.1554 23.1214 16.496C14.4095 12.1401 7.4755 12.1949 2.79899 13.2342C2.5576 13.2878 2.3219 13.3441 2.09189 13.4028C1.47961 14.7344 0.99088 16.1346 0.640208 17.5887C1.01474 17.4886 1.40177 17.3935 1.80109 17.3047C7.47451 16.044 15.4906 16.0987 25.1785 20.9428C33.8906 25.2987 40.8245 25.2439 45.5011 24.2046C45.6613 24.1691 45.8192 24.1323 45.9745 24.0943C45.9915 23.7317 46 23.3668 46 23C46 22.0771 45.9457 21.1669 45.84 20.2723L45.84 20.2723ZM45.2235 28.9481C39.65 29.9225 32.1045 29.5486 23.1214 25.0571C14.4095 20.7011 7.4755 20.756 2.79899 21.7952C1.76094 22.0258 0.827125 22.3068 0.0033695 22.6034C0.00112317 22.7353 0 22.8675 0 23C0 35.7026 10.2974 46 23 46C33.6456 46 42.6021 38.7675 45.2235 28.9481L45.2235 28.9481Z" fill="#7F57F1" fill-rule="evenodd" />
  </g>
</svg>