<?xml version="1.0" encoding="UTF-8" standalone="no"?>
<svg width="24" height="24" viewBox="0 0 24 24" fill="none" version="1.1" id="svg1" xmlns="http://www.w3.org/2000/svg">
  <g id="g1">
    <path id="Union" d="m 15.333573,1.369011 c 0.424676,-0.46327469 1.144485,-0.49457099 1.607759,-0.069904 l 4.551735,4.172396 c 0.235172,0.2155391 0.368992,0.5198671 0.368992,0.8388364 0,0.3189694 -0.13382,0.6232977 -0.368992,0.8388367 l -4.551735,4.1724099 c -0.463274,0.424675 -1.183083,0.393359 -1.607759,-0.06991 -0.42466,-0.463274 -0.393359,-1.183083 0.06992,-1.6077579 l 2.395251,-2.195644 H 5.5517307 c -0.6284559,0 -1.1379299,-0.509458 -1.1379299,-1.1379297 0,-0.6284559 0.509474,-1.1379299 1.1379299,-1.1379299 H 17.798739 L 15.403488,2.9767664 C 14.940214,2.5521061 14.908913,1.8322835 15.333573,1.369011 Z M 8.666427,12.748307 C 8.241751,12.285033 7.521943,12.253732 7.058669,12.678407 l -4.5517353,4.17235 c -0.2351728,0.215599 -0.3689927,0.519958 -0.3689927,0.838882 0,0.318923 0.1338199,0.623282 0.3689927,0.838881 l 4.5517353,4.17241 c 0.463274,0.424676 1.183082,0.393269 1.607758,-0.06995 0.42466,-0.463213 0.39336,-1.183143 -0.06991,-1.607819 L 6.2012611,18.827568 H 18.44827 c 0.62844,0 1.137929,-0.509489 1.137929,-1.137929 0,-0.628441 -0.509489,-1.13793 -1.137929,-1.13793 H 6.2012611 L 8.596512,14.356065 c 0.463275,-0.42466 0.494575,-1.144484 0.06991,-1.607758 z" fill="#fcfeff" fill-rule="evenodd" style="stroke-width:1.51724" />
  </g>
</svg>
