<?xml version="1.0" encoding="utf-8"?>
<svg width="26.5" height="26.5" viewBox="0 0 26.5 26.5" fill="none" xmlns="http://www.w3.org/2000/svg">
  <g transform="translate(0 2.5)">
    <path id="Rectangle 2" d="M9.68476 0C4.26727 0 -0.537911 4.18849 0.0486581 9.57414C0.0644082 9.71875 0.0814031 9.86083 0.0997152 10C0.359488 11.9743 1.09972 13.0087 1.09972 15C1.09972 16.0505 0.821397 17.3842 0.558419 18.4099C0.371579 19.1387 0.99151 19.8606 1.73783 19.7658C2.76242 19.6358 4.07708 19.5 5.09972 19.5C7.06208 19.5 8.14167 19.8699 10.0997 20C10.1703 20.0047 10.2416 20.0092 10.3136 20.0136C15.7752 20.344 20.0997 15.6836 20.0997 10.212C20.0997 4.57207 15.5277 0 9.88769 0L9.68476 0L9.68476 0ZM9.68476 1.5C4.91746 1.5 1.0744 5.13828 1.53984 9.41173C1.55447 9.54605 1.57015 9.67701 1.5869 9.80432C1.69831 10.6511 1.90501 11.2687 2.1384 12.078C2.3709 12.8842 2.59972 13.7976 2.59972 15C2.59972 16.0349 2.38017 17.232 2.15305 18.2047C3.08744 18.0975 4.18361 18 5.09972 18C6.18459 18 7.02553 18.1035 7.8138 18.2163C8.60251 18.3292 9.29149 18.443 10.1992 18.5033C10.2667 18.5078 10.3351 18.5121 10.4042 18.5163C14.8821 18.7872 18.5997 14.946 18.5997 10.212C18.5997 5.4005 14.6992 1.5 9.88769 1.5L9.68476 1.5L9.68476 1.5Z" fill="#FCFEFF" fill-rule="evenodd" transform="translate(1.9 2)" />
  </g>
</svg>
