<?xml version="1.0" encoding="utf-8"?>
<svg width="24" height="24" viewBox="0 0 24 24" fill="none" xmlns="http://www.w3.org/2000/svg">
  <g>
    <g transform="translate(1 1)">
      <path id="Rectangle 73" d="M8 0C9.10472 0 10 0.89528 10 2L10 5C10 6.10472 9.10472 7 8 7L2 7C0.89528 7 0 6.10472 0 5L0 2C0 0.89528 0.89528 0 2 0L8 0Z" />
      <path d="M10 2C10 0.89528 9.10472 0 8 0L2 0C0.89528 0 0 0.89528 0 2L0 5C0 6.10472 0.89528 7 2 7L8 7C9.10472 7 10 6.10472 10 5L10 2ZM2 1.5L8 1.5Q8.5 1.5 8.5 2L8.5 5Q8.5 5.5 8 5.5L2 5.5Q1.5 5.5 1.5 5L1.5 2Q1.5 1.5 2 1.5Z" fill="#FCFEFF" fill-rule="evenodd" />
    </g>
    <g transform="translate(13 16)">
      <path id="Rectangle 74" d="M8 0C9.10472 0 10 0.895281 10 2L10 5C10 6.10472 9.10472 7 8 7L2 7C0.89528 7 0 6.10472 0 5L0 2C0 0.895281 0.89528 0 2 0L8 0Z" />
      <path d="M10 2C10 0.895281 9.10472 0 8 0L2 0C0.89528 0 0 0.895281 0 2L0 5C0 6.10472 0.89528 7 2 7L8 7C9.10472 7 10 6.10472 10 5L10 2ZM2 1.5L8 1.5Q8.5 1.5 8.5 2L8.5 5Q8.5 5.5 8 5.5L2 5.5Q1.79278 5.5 1.64639 5.35361Q1.5 5.20722 1.5 5L1.5 2Q1.5 1.5 2 1.5Z" fill="#FCFEFF" fill-rule="evenodd" />
    </g>
    <g transform="translate(13 1)">
      <path id="Rectangle 75" d="M8 0C9.10472 0 10 0.89528 10 2L10 11C10 12.1047 9.10472 13 8 13L2 13C0.89528 13 0 12.1047 0 11L0 2C0 0.89528 0.89528 0 2 0L8 0Z" />
      <path d="M10 2C10 0.89528 9.10472 0 8 0L2 0C0.89528 0 0 0.89528 0 2L0 11C0 12.1047 0.89528 13 2 13L8 13C9.10472 13 10 12.1047 10 11L10 2ZM2 1.5L8 1.5Q8.5 1.5 8.5 2L8.5 11Q8.5 11.5 8 11.5L2 11.5Q1.79278 11.5 1.64639 11.3536Q1.5 11.2072 1.5 11L1.5 2Q1.5 1.5 2 1.5Z" fill="#FCFEFF" fill-rule="evenodd" />
    </g>
    <g transform="translate(1 10)">
      <path id="Rectangle 76" d="M8 0C9.10472 0 10 0.89528 10 2L10 11C10 12.1047 9.10472 13 8 13L2 13C0.89528 13 0 12.1047 0 11L0 2C0 0.89528 0.89528 0 2 0L8 0Z" />
      <path d="M10 2C10 0.89528 9.10472 0 8 0L2 0C0.89528 0 0 0.89528 0 2L0 11C0 12.1047 0.89528 13 2 13L8 13C9.10472 13 10 12.1047 10 11L10 2ZM2 1.5L8 1.5Q8.5 1.5 8.5 2L8.5 11Q8.5 11.5 8 11.5L2 11.5Q1.5 11.5 1.5 11L1.5 2Q1.5 1.5 2 1.5Z" fill="#FCFEFF" fill-rule="evenodd" />
    </g>
  </g>
</svg>
