<?xml version="1.0" encoding="UTF-8" standalone="no"?>
<svg width="24" height="24" viewBox="0 0 24 24" fill="none" version="1.1" id="svg1" xmlns="http://www.w3.org/2000/svg">
  <g id="g1">
    <path id="Union" d="M 23,5.4 C 23,2.969616 21.03034,1 18.6,1 H 5.4 C 2.969616,1 1,2.969616 1,5.4 V 18.6 C 1,21.03034 2.969616,23 5.4,23 H 18.6 C 21.03034,23 23,21.03034 23,18.6 Z M 5.4,2.65 h 13.2 q 2.75,0 2.75,2.75 v 13.2 q 0,2.75 -2.75,2.75 H 5.4 q -2.75,0 -2.75,-2.75 V 5.4 q 0,-2.75 2.75,-2.75 z m 7.57504,6.05 c 0,-0.455631 0.36927,-0.825 0.825,-0.825 h 4.19991 c 0.41063,0 0.75867,0.301895 0.81675,0.708323 l 0.60005,4.199987 c 0.06435,0.45111 -0.24904,0.869 -0.70004,0.93335 -0.45111,0.06446 -0.869,-0.24893 -0.93346,-0.70004 l -0.36663,-2.566509 -4.83329,4.833279 c -0.27808,0.27808 -0.713746,0.3212 -1.040963,0.10307 L 8.505124,13.36158 5.983363,15.88333 c -0.322179,0.32219 -0.844547,0.32219 -1.166726,0 -0.322179,-0.32219 -0.322179,-0.84447 0,-1.16666 L 7.816634,11.71664 C 8.094714,11.43856 8.530413,11.395418 8.85763,11.613559 L 11.894884,13.63834 16.00829,9.525 h -2.20825 c -0.45573,0 -0.825,-0.369369 -0.825,-0.825 z" fill="#fcfeff" fill-rule="evenodd" style="stroke-width:1.1" />
  </g>
</svg>
