<?xml version="1.0" encoding="UTF-8" standalone="no"?>
<svg width="24" height="24" viewBox="0 0 24 24" fill="none" version="1.1" id="svg1" xmlns="http://www.w3.org/2000/svg">
  <g id="g1">
    <path id="Union" d="M 19.333333,2.986111 C 21.358678,2.986111 23,4.6274577 23,6.6527777 23,8.364072 21.828133,9.801247 20.243033,10.205753 c 0.0046,0.03725 0.007,0.07519 0.007,0.113691 v 9.166667 c 0,0.843822 -0.683956,1.527778 -1.527778,1.527778 h -2.444444 c -0.506245,0 -0.916667,-0.410422 -0.916667,-0.916667 0,-0.506244 0.410422,-0.916667 0.916667,-0.916667 H 18.4167 v -8.861111 h -5.427853 l 2.74813,3.053441 c 0.338678,0.376298 0.308123,0.9559 -0.0682,1.294566 -0.376322,0.338666 -0.9559,0.308171 -1.294577,-0.06814 l -1.151945,-1.279972 v 4.944549 c 0,0.506244 -0.410398,0.916666 -0.916654,0.916666 -0.506257,0 -0.916667,-0.410422 -0.916667,-0.916666 v -4.944549 l -1.151981,1.279972 c -0.338678,0.37631 -0.918268,0.406805 -1.294578,0.06814 -0.376298,-0.338666 -0.406804,-0.918268 -0.06813,-1.294566 l 2.748093,-3.053441 H 5.5833333 v 8.861111 h 2.1388889 c 0.5062568,0 0.9166668,0.410423 0.9166668,0.916667 0,0.506245 -0.41041,0.916667 -0.9166668,0.916667 H 5.2777778 C 4.4340044,21.013889 3.75,20.329933 3.75,19.486111 v -9.166667 c 0,-0.0385 0.00237,-0.07644 0.00698,-0.113691 C 2.17183,9.801234 1,8.364072 1,6.6527777 1,4.6274577 2.6413467,2.986111 4.6666667,2.986111 Z m 0,1.8333333 H 4.6666667 q -1.8333334,0 -1.8333334,1.8333334 0,1.8333333 1.8333334,1.8333333 H 19.333333 q 1.833334,0 1.833334,-1.8333333 0,-1.8333334 -1.833334,-1.8333334 z" fill="#fcfeff" fill-rule="evenodd" style="stroke-width:1.22222" />
  </g>
</svg>
