<?xml version="1.0" encoding="utf-8"?>
<svg width="24" height="24" viewBox="0 0 24 24" fill="none" xmlns="http://www.w3.org/2000/svg">
  <g>
    <g transform="translate(3.483 3)">
      <path id="Union" d="M7.16028 4.80387L7.16028 0L13.1603 0L13.1603 4.80385L17.3206 2.40192L20.3206 7.59807L16.1603 10L20.3205 12.4019L17.3205 17.5981L13.1603 15.1962L13.1603 20L7.16027 20L7.16027 15.1961L3 17.5981L1.19209e-06 12.4019L4.16024 10L0 7.59808L3 2.40193L7.16028 4.80387ZM10.1603 6.53591L10.4581 6.36397L13.1603 4.80385L10.1603 6.53591ZM12.6962 12L13.1603 12L12.6962 12Z" />
      <path d="M7.16028 3.07182L7.16028 4.80387L5.66028 3.93784L4.29904 3.15193L3 2.40193L2.25 3.70097L0.75 6.29905L0 7.59808L2.66024 9.13398L4.16024 10L2.66024 10.866L1.29904 11.6519L1.19209e-06 12.4019L3 17.5981L4.29904 16.8481L5.66027 16.0622L7.16027 15.1961L7.16027 20L13.1603 20L13.1603 15.1962L14.6603 16.0622L16.0215 16.8481L17.3205 17.5981L19.5705 13.701L20.3205 12.4019L19.0215 11.6519L17.6603 10.866L16.1603 10L17.6603 9.13398L19.0215 8.34807L20.3206 7.59807L19.5706 6.29903L18.0706 3.70095L17.3206 2.40192L16.0215 3.15192L14.6603 3.93783L13.1603 4.80385L13.1603 0L7.16028 0L7.16028 3.07182ZM8.66028 1.5L8.66028 7.40194L3.54904 4.45097L2.04904 7.04905L7.16024 10L2.04904 12.951L3.54904 15.549L8.66027 12.5981L8.66027 18.5L11.6603 18.5L11.6603 12.5981L12.6962 13.1962L12.6962 10.5L13.1603 10.5L13.1603 13.4641L16.7715 15.549L18.2715 12.951L13.1603 10L18.2715 7.04903L16.7715 4.45095L13.9103 6.10289L11.6603 7.40193L11.2081 7.66301L10.9103 7.83495L10.1603 6.53591L9.41027 5.23687L9.70808 5.06493L11.6603 3.93783L11.6603 1.5L8.66028 1.5Z" fill="#FCFEFF" fill-rule="evenodd" />
    </g>
    <g transform="translate(10 10)">
      <path id="Ellipse 5" d="M0 3C0 1.34315 1.34315 0 3 0C4.65685 0 6 1.34315 6 3C6 4.65685 4.65685 6 3 6C1.34315 6 0 4.65685 0 3Z" />
      <path d="M3 0C1.34315 0 0 1.34315 0 3C0 4.65685 1.34315 6 3 6C4.65685 6 6 4.65685 6 3C6 1.34315 4.65685 0 3 0ZM3 4.5Q1.5 4.5 1.5 3Q1.5 1.5 3 1.5Q4.5 1.5 4.5 3Q4.5 4.5 3 4.5Z" fill="#FCFEFF" fill-rule="evenodd" />
    </g>
  </g>
</svg>
