<?xml version="1.0" encoding="utf-8"?>
<svg width="24" height="24" viewBox="0 0 24 24" fill="none" xmlns="http://www.w3.org/2000/svg">
  <defs>
    <clipPath id="clip_path_1">
      <rect width="24" height="24" />
    </clipPath>
  </defs>
  <g clip-path="url(#clip_path_1)">
    <rect width="24" height="24" />
    <g transform="translate(0 0)">
      <path id="Star 1" d="M12.4131 0.609642L14.6041 7.03961Q14.6265 7.10512 14.6585 7.16644Q14.6906 7.22777 14.7317 7.28347Q14.7728 7.33917 14.8219 7.38794Q14.871 7.4367 14.927 7.47738Q14.983 7.51806 15.0445 7.5497Q15.1061 7.58134 15.1718 7.6032Q15.2374 7.62505 15.3057 7.63661Q15.3739 7.64817 15.4431 7.64916L22.2354 7.74602Q22.2704 7.74652 22.3052 7.74973Q22.34 7.75294 22.3745 7.75883Q22.4089 7.76473 22.4428 7.77329Q22.4767 7.78184 22.5098 7.793Q22.543 7.80415 22.5751 7.81785Q22.6073 7.83154 22.6383 7.84768Q22.6693 7.86383 22.6989 7.88233Q22.7286 7.90084 22.7567 7.92158Q22.7849 7.94233 22.8113 7.9652Q22.8377 7.98807 22.8623 8.01291Q22.8869 8.03776 22.9095 8.06445Q22.9321 8.09113 22.9525 8.11948Q22.973 8.14783 22.9912 8.17769Q23.0093 8.20754 23.0252 8.23871Q23.041 8.26989 23.0543 8.30219Q23.0677 8.3345 23.0785 8.36774Q23.0893 8.40099 23.0975 8.43497Q23.1057 8.46896 23.1112 8.50347Q23.1167 8.53799 23.1195 8.57283Q23.1224 8.60767 23.1225 8.64262Q23.1226 8.67758 23.12 8.71244Q23.1175 8.7473 23.1122 8.78185Q23.1069 8.81641 23.0989 8.85045Q23.091 8.88449 23.0804 8.91781Q23.0699 8.95113 23.0568 8.98353Q23.0436 9.01593 23.028 9.04722Q23.0125 9.0785 22.9945 9.10848Q22.9765 9.13847 22.9563 9.16696Q22.936 9.19546 22.9136 9.2223Q22.8912 9.24915 22.8668 9.27417Q22.8424 9.29919 22.8161 9.32225Q22.7899 9.3453 22.7619 9.36625L17.3237 13.437Q17.2683 13.4785 17.2199 13.528Q17.1715 13.5774 17.1312 13.6337Q17.0909 13.69 17.0597 13.7518Q17.0285 13.8136 17.0071 13.8794Q16.9857 13.9452 16.9747 14.0135Q16.9636 14.0818 16.9631 14.1511Q16.9626 14.2203 16.9727 14.2887Q16.9828 14.3572 17.0032 14.4233L19.0101 20.9131Q19.0204 20.9465 19.0281 20.9806Q19.0358 21.0147 19.0408 21.0493Q19.0459 21.0839 19.0482 21.1188Q19.0506 21.1537 19.0502 21.1886Q19.0498 21.2236 19.0467 21.2584Q19.0436 21.2932 19.0379 21.3277Q19.0321 21.3622 19.0237 21.3961Q19.0152 21.43 19.0042 21.4632Q18.9932 21.4963 18.9796 21.5286Q18.966 21.5608 18.95 21.5918Q18.9339 21.6229 18.9155 21.6526Q18.8971 21.6823 18.8765 21.7105Q18.8558 21.7388 18.8331 21.7653Q18.8103 21.7918 18.7855 21.8165Q18.7608 21.8411 18.7342 21.8638Q18.7076 21.8865 18.6793 21.907Q18.651 21.9276 18.6212 21.9459Q18.5914 21.9642 18.5603 21.9801Q18.5292 21.996 18.4969 22.0095Q18.4647 22.0229 18.4315 22.0339Q18.3983 22.0448 18.3643 22.0531Q18.3304 22.0614 18.2959 22.0671Q18.2614 22.0727 18.2265 22.0757Q18.1917 22.0786 18.1567 22.0789Q18.1218 22.0791 18.0869 22.0767Q18.0521 22.0742 18.0175 22.069Q17.9829 22.0639 17.9488 22.0561Q17.9148 22.0482 17.8814 22.0378Q17.8481 22.0273 17.8156 22.0143Q17.7832 22.0013 17.7518 21.9859Q17.7205 21.9704 17.6904 21.9525Q17.6604 21.9347 17.6318 21.9145L12.0798 18.0004Q12.0232 17.9606 11.9612 17.9298Q11.8992 17.899 11.8332 17.8781Q11.7673 17.8572 11.6989 17.8466Q11.6305 17.836 11.5613 17.836Q11.492 17.836 11.4237 17.8466Q11.3553 17.8572 11.2893 17.8781Q11.2233 17.899 11.1613 17.9298Q11.0993 17.9606 11.0427 18.0004L5.49069 21.9145Q5.46212 21.9347 5.43208 21.9525Q5.40203 21.9704 5.37069 21.9859Q5.33935 22.0013 5.3069 22.0143Q5.27445 22.0273 5.24109 22.0378Q5.20774 22.0482 5.17367 22.0561Q5.1396 22.0639 5.10503 22.069Q5.07046 22.0742 5.03559 22.0767Q5.00072 22.0791 4.96576 22.0789Q4.93081 22.0786 4.89598 22.0757Q4.86115 22.0727 4.82665 22.0671Q4.79216 22.0614 4.7582 22.0531Q4.72425 22.0448 4.69104 22.0339Q4.65784 22.0229 4.62558 22.0095Q4.59332 21.996 4.5622 21.9801Q4.53109 21.9642 4.5013 21.9459Q4.47151 21.9276 4.44323 21.907Q4.41495 21.8865 4.38835 21.8638Q4.36175 21.8411 4.33699 21.8165Q4.31223 21.7918 4.28945 21.7653Q4.26668 21.7388 4.24603 21.7105Q4.22538 21.6823 4.20699 21.6526Q4.18859 21.6229 4.17256 21.5918Q4.15652 21.5608 4.14294 21.5286Q4.12936 21.4963 4.11832 21.4632Q4.10729 21.43 4.09885 21.3961Q4.09042 21.3622 4.08464 21.3277Q4.07887 21.2932 4.07579 21.2584Q4.0727 21.2236 4.07233 21.1886Q4.07195 21.1537 4.07429 21.1188Q4.07663 21.0839 4.08167 21.0493Q4.08671 21.0147 4.09441 20.9806Q4.10212 20.9465 4.11244 20.9131L6.11927 14.4233Q6.13971 14.3572 6.14981 14.2887Q6.1599 14.2203 6.15941 14.1511Q6.15892 14.0818 6.14785 14.0135Q6.13678 13.9452 6.11539 13.8794Q6.094 13.8136 6.0628 13.7518Q6.0316 13.69 5.99132 13.6337Q5.95104 13.5774 5.90263 13.528Q5.85421 13.4785 5.79881 13.437L0.360626 9.36625Q0.332642 9.3453 0.306367 9.32225Q0.280093 9.29919 0.255686 9.27417Q0.231278 9.24915 0.208886 9.2223Q0.186494 9.19546 0.166251 9.16696Q0.146008 9.13847 0.128037 9.10848Q0.110066 9.0785 0.0944743 9.04722Q0.078883 9.01593 0.0657655 8.98353Q0.052648 8.95113 0.0420834 8.91781Q0.0315188 8.88449 0.0235708 8.85045Q0.0156228 8.81641 0.0103392 8.78185Q0.00505562 8.7473 0.00246834 8.71244Q-0.000118942 8.67758 5.66524e-06 8.64262Q0.000130273 8.60767 0.00296602 8.57283Q0.00580176 8.53799 0.0113316 8.50347Q0.0168613 8.46896 0.0250519 8.43497Q0.0332424 8.40099 0.0440443 8.36774Q0.0548461 8.3345 0.0681943 8.30219Q0.0815424 8.26989 0.0973564 8.23871Q0.11317 8.20754 0.131355 8.17768Q0.149539 8.14783 0.169985 8.11948Q0.19043 8.09113 0.213014 8.06445Q0.235597 8.03776 0.260182 8.01292Q0.284766 7.98807 0.311205 7.9652Q0.337643 7.94233 0.365776 7.92158Q0.393908 7.90084 0.423565 7.88233Q0.453222 7.86383 0.484225 7.84768Q0.515228 7.83154 0.547391 7.81785Q0.579553 7.80415 0.61268 7.79299Q0.645807 7.78184 0.6797 7.77329Q0.713593 7.76473 0.748048 7.75883Q0.782502 7.75293 0.81731 7.74973Q0.852118 7.74652 0.88707 7.74602L7.67941 7.64916Q7.74861 7.64817 7.81685 7.63661Q7.88509 7.62505 7.95076 7.6032Q8.01643 7.58134 8.07798 7.5497Q8.13953 7.51806 8.19553 7.47738Q8.25152 7.4367 8.30063 7.38794Q8.34974 7.33917 8.39082 7.28347Q8.4319 7.22777 8.46398 7.16644Q8.49606 7.10512 8.51838 7.03961L10.7095 0.609642Q10.7207 0.576554 10.7345 0.544441Q10.7483 0.512328 10.7646 0.481383Q10.7809 0.450437 10.7995 0.420847Q10.8181 0.391256 10.8389 0.363197Q10.8598 0.335139 10.8827 0.308782Q10.9057 0.282426 10.9306 0.257929Q10.9556 0.233433 10.9823 0.210945Q11.0091 0.188457 11.0375 0.168113Q11.0659 0.147769 11.0959 0.129691Q11.1258 0.111613 11.157 0.0959102Q11.1882 0.0802075 11.2206 0.0669746Q11.2529 0.0537417 11.2862 0.0430584Q11.3195 0.0323751 11.3535 0.0243057Q11.3875 0.0162364 11.4221 0.0108297Q11.4566 0.00542297 11.4915 0.00271144Q11.5263 -8.9407e-08 11.5613 -8.9407e-08Q11.5962 -8.9407e-08 11.6311 0.00271144Q11.6659 0.00542297 11.7004 0.0108297Q11.735 0.0162364 11.769 0.0243057Q11.803 0.0323751 11.8363 0.0430584Q11.8696 0.0537417 11.9019 0.0669746Q11.9343 0.0802075 11.9655 0.0959102Q11.9967 0.111613 12.0267 0.129691Q12.0566 0.147769 12.085 0.168113Q12.1134 0.188457 12.1402 0.210945Q12.167 0.233433 12.1919 0.257929Q12.2168 0.282426 12.2398 0.308782Q12.2627 0.335139 12.2836 0.363197Q12.3044 0.391255 12.3231 0.420846Q12.3417 0.450437 12.3579 0.481383Q12.3742 0.512328 12.388 0.544441Q12.4018 0.576554 12.4131 0.609642L12.4131 0.609642Z" />
      <path d="M14.6041 7.03961L12.4131 0.609642Q12.3905 0.543367 12.3579 0.481383Q12.3254 0.419399 12.2836 0.363197Q12.2418 0.306996 12.1919 0.25793Q12.1419 0.208863 12.085 0.168113Q12.0281 0.127363 11.9655 0.0959103Q11.903 0.0644574 11.8363 0.0430585Q11.7696 0.0216596 11.7004 0.0108298Q11.6313 -8.0996e-10 11.5613 0Q11.4912 1.61992e-09 11.4221 0.0108298Q11.3529 0.0216596 11.2862 0.0430584Q11.2196 0.0644573 11.157 0.0959103Q11.0944 0.127363 11.0375 0.168113Q10.9806 0.208863 10.9306 0.257929Q10.8807 0.306996 10.8389 0.363197Q10.7972 0.419399 10.7646 0.481383Q10.732 0.543367 10.7095 0.609642L8.51838 7.03961Q8.49606 7.10512 8.46398 7.16644Q8.4319 7.22777 8.39082 7.28347Q8.34974 7.33917 8.30063 7.38794Q8.25152 7.4367 8.19553 7.47738Q8.13953 7.51806 8.07798 7.5497Q8.01643 7.58134 7.95076 7.6032Q7.88509 7.62505 7.81685 7.63661Q7.74861 7.64817 7.67941 7.64916L0.88707 7.74602Q0.817061 7.74702 0.748048 7.75883Q0.679035 7.77065 0.61268 7.793Q0.546325 7.81534 0.484225 7.84768Q0.422126 7.88003 0.365776 7.92158Q0.309426 7.96314 0.260182 8.01291Q0.210938 8.06269 0.169985 8.11948Q0.129032 8.17627 0.0973565 8.23871Q0.0656807 8.30116 0.0440443 8.36774Q0.0224079 8.43433 0.0113316 8.50347Q0.000255312 8.57261 5.71646e-06 8.64262Q-0.000243879 8.71264 0.0103392 8.78185Q0.0209224 8.85106 0.0420835 8.91781Q0.0632446 8.98455 0.0944743 9.04722Q0.125704 9.10988 0.166251 9.16696Q0.206798 9.22405 0.255686 9.27417Q0.304573 9.32429 0.360626 9.36625L5.79881 13.437Q5.85421 13.4785 5.90263 13.528Q5.95104 13.5774 5.99132 13.6337Q6.0316 13.69 6.0628 13.7518Q6.094 13.8136 6.11539 13.8794Q6.13678 13.9452 6.14785 14.0135Q6.15892 14.0818 6.15941 14.1511Q6.1599 14.2203 6.14981 14.2887Q6.13971 14.3572 6.11927 14.4233L4.11244 20.9131Q4.09176 20.98 4.08167 21.0493Q4.07158 21.1186 4.07233 21.1886Q4.07308 21.2586 4.08464 21.3277Q4.09621 21.3967 4.11832 21.4632Q4.14044 21.5296 4.17256 21.5918Q4.20468 21.654 4.24603 21.7105Q4.28739 21.767 4.33699 21.8165Q4.38658 21.8659 4.44323 21.907Q4.49987 21.9482 4.5622 21.9801Q4.62453 22.012 4.69104 22.0339Q4.75756 22.0557 4.82665 22.0671Q4.89575 22.0784 4.96576 22.0789Q5.03578 22.0794 5.10503 22.069Q5.17428 22.0587 5.24109 22.0378Q5.30791 22.0169 5.37069 21.9859Q5.43347 21.9549 5.49069 21.9145L11.0427 18.0004Q11.0993 17.9606 11.1613 17.9298Q11.2233 17.899 11.2893 17.8781Q11.3553 17.8572 11.4237 17.8466Q11.492 17.836 11.5613 17.836Q11.6305 17.836 11.6989 17.8466Q11.7673 17.8572 11.8332 17.8781Q11.8992 17.899 11.9612 17.9298Q12.0232 17.9606 12.0798 18.0004L17.6318 21.9145Q17.689 21.9549 17.7518 21.9859Q17.8146 22.0169 17.8814 22.0378Q17.9482 22.0587 18.0175 22.069Q18.0867 22.0794 18.1567 22.0789Q18.2268 22.0784 18.2959 22.0671Q18.365 22.0557 18.4315 22.0339Q18.498 22.012 18.5603 21.9801Q18.6226 21.9482 18.6793 21.907Q18.7359 21.8659 18.7855 21.8165Q18.8351 21.767 18.8765 21.7105Q18.9178 21.654 18.95 21.5918Q18.9821 21.5296 19.0042 21.4632Q19.0263 21.3967 19.0379 21.3277Q19.0494 21.2586 19.0502 21.1886Q19.0509 21.1186 19.0408 21.0493Q19.0308 20.98 19.0101 20.9131L17.0032 14.4233Q16.9828 14.3572 16.9727 14.2887Q16.9626 14.2203 16.9631 14.1511Q16.9636 14.0818 16.9747 14.0135Q16.9857 13.9452 17.0071 13.8794Q17.0285 13.8136 17.0597 13.7518Q17.0909 13.69 17.1312 13.6337Q17.1715 13.5774 17.2199 13.528Q17.2683 13.4785 17.3237 13.437L22.7619 9.36625Q22.8179 9.32429 22.8668 9.27417Q22.9157 9.22405 22.9563 9.16696Q22.9968 9.10988 23.028 9.04722Q23.0593 8.98455 23.0804 8.91781Q23.1016 8.85106 23.1122 8.78185Q23.1228 8.71264 23.1225 8.64262Q23.1223 8.57261 23.1112 8.50347Q23.1001 8.43433 23.0785 8.36774Q23.0568 8.30116 23.0252 8.23871Q22.9935 8.17627 22.9525 8.11948Q22.9116 8.06269 22.8623 8.01291Q22.8131 7.96314 22.7567 7.92158Q22.7004 7.88003 22.6383 7.84768Q22.5762 7.81534 22.5098 7.79299Q22.4435 7.77065 22.3745 7.75883Q22.3055 7.74702 22.2354 7.74602L15.4431 7.64916Q15.3739 7.64817 15.3057 7.63661Q15.2374 7.62505 15.1718 7.6032Q15.1061 7.58134 15.0445 7.5497Q14.983 7.51806 14.927 7.47738Q14.871 7.4367 14.8219 7.38794Q14.7728 7.33917 14.7317 7.28347Q14.6906 7.22777 14.6585 7.16644Q14.6265 7.10512 14.6041 7.03961ZM11.5613 2.7604L9.93821 7.52343Q9.3925 9.12488 7.7008 9.149L2.66934 9.22076L6.6977 12.2362Q8.05214 13.2501 7.55232 14.8665L6.06575 19.6738L10.1785 16.7745Q11.5613 15.7996 12.9441 16.7745L17.0568 19.6738L15.5702 14.8665Q15.0704 13.2501 16.4248 12.2362L20.4532 9.22076L15.4217 9.149Q13.73 9.12488 13.1843 7.52343L11.5613 2.7604Z" fill="#FCFEFF" fill-rule="evenodd" />
    </g>
  </g>
</svg>
