<?xml version="1.0" encoding="utf-8"?>
<svg width="58.911" height="19.112" viewBox="0 0 58.911 19.112" fill="none" xmlns="http://www.w3.org/2000/svg">
  <path id="Vector" d="M42.1861 4.76999L42.8721 0.805039C42.8721 0.805039 40.7553 0 38.5486 0C36.1631 0 30.4982 1.0426 30.4982 6.11238C30.4982 10.8824 37.1469 10.9416 37.1469 13.4471C37.1469 15.9526 31.1832 15.5037 29.2151 13.9237L28.5004 18.0695C28.5004 18.0695 30.6469 19.1121 33.9263 19.1121C37.2067 19.1121 42.1555 17.4136 42.1555 12.7908C42.1555 7.99015 35.447 7.54318 35.447 5.456C35.4475 3.36833 40.129 3.63651 42.1861 4.76999L42.1861 4.76999ZM54.4973 18.7935L58.9112 18.7935L55.0628 0.329424L51.1986 0.329424C49.4142 0.329424 48.9796 1.7054 48.9796 1.7054L41.8102 18.7935L46.8213 18.7935L47.8234 16.0509L53.9343 16.0509L54.4973 18.7935L54.4973 18.7935ZM16.6876 0.329918L12.1047 13.0293L11.5625 10.2946L11.5629 10.2956L9.94546 1.99235C9.94546 1.99235 9.74988 0.329918 7.66517 0.329918L0.0889003 0.329918L0 0.64255C0 0.64255 2.31684 1.12459 5.02829 2.75294L9.20463 18.794L14.2132 18.794L21.861 0.329918L16.6876 0.329918L16.6876 0.329918ZM25.5385 18.7935L20.7315 18.7935L23.7359 0.329918L28.5434 0.329918L25.5385 18.7935L25.5385 18.7935ZM49.2077 12.2623L51.7335 5.35278L53.1544 12.2623L49.2077 12.2623L49.2077 12.2623Z" fill="#FCFEFF" fill-rule="evenodd" />
</svg>
