<?xml version="1.0" encoding="UTF-8" standalone="no"?>
<svg width="24" height="24" viewBox="0 0 24 24" fill="none" version="1.1" id="svg1" xmlns="http://www.w3.org/2000/svg">
  <g id="g1" transform="translate(-2,-2)">
    <path id="Union" d="M 14,3 C 12.987478,3 12.166676,3.8208118 12.166676,4.8333324 V 12.166676 H 4.8333324 C 3.8207824,12.166676 3,12.987478 3,14 c 0,1.012504 0.8207824,1.833324 1.8333324,1.833324 h 7.3333436 v 7.333352 C 12.166676,24.179214 12.987478,25 14,25 c 1.012504,0 1.833324,-0.820786 1.833324,-1.833324 v -7.333352 h 7.333352 C 24.179214,15.833324 25,15.012504 25,14 25,12.987478 24.179214,12.166676 23.166676,12.166676 H 15.833324 V 4.8333324 C 15.833324,3.8208118 15.012504,3 14,3 Z" fill="#fcfeff" fill-rule="evenodd" style="stroke-width:1.83324" />
  </g>
</svg>
