<?xml version="1.0" encoding="utf-8"?>
<svg width="24" height="24" viewBox="0 0 24 24" fill="none" xmlns="http://www.w3.org/2000/svg">
  <g>
    <path id="Union" d="M0.219667 4.99258L4.99264 0.219675C5.28553 -0.073225 5.7604 -0.073225 6.0533 0.219675L10.8263 4.99258C11.1192 5.28547 11.1192 5.76038 10.8263 6.05328C10.5334 6.34618 10.0585 6.34618 9.76561 6.05328L6.27297 2.56067L6.27297 19.75C6.27297 20.1642 5.93718 20.5 5.52297 20.5C5.10875 20.5 4.77297 20.1642 4.77297 19.75L4.77297 2.56067L1.28033 6.05328C0.987437 6.34618 0.512558 6.34618 0.219667 6.05328C-0.0732226 5.76038 -0.0732226 5.28547 0.219667 4.99258ZM10.2197 17.0074L14.9927 21.7803C15.2856 22.0732 15.7605 22.0732 16.0534 21.7803L20.8263 17.0074C21.1192 16.7145 21.1192 16.2396 20.8263 15.9467C20.5334 15.6538 20.0586 15.6538 19.7657 15.9467L16.273 19.4393L16.273 2.24998C16.273 1.83576 15.9372 1.49998 15.523 1.49998C15.1088 1.49998 14.773 1.83576 14.773 2.24998L14.773 19.4393L11.2804 15.9467C10.9875 15.6538 10.5126 15.6538 10.2197 15.9467C9.92684 16.2396 9.92684 16.7145 10.2197 17.0074Z" fill="#FCFEFF" fill-rule="evenodd" transform="translate(1.477 1.25)" />
  </g>
</svg>
