<?xml version="1.0" encoding="utf-8"?>
<svg width="24" height="24" viewBox="0 0 24 24" fill="none" xmlns="http://www.w3.org/2000/svg">
  <g>
    <path id="Union" d="M20 6C20 2.68584 17.3142 0 14 0L6 0C2.68584 0 0 2.68584 0 6L0 14C0 17.3142 2.68584 20 6 20L14 20C17.3142 20 20 17.3142 20 14L20 6ZM6 1.5L14 1.5Q15.8643 1.5 17.1821 2.81785Q18.5 4.1357 18.5 6L18.5 14Q18.5 15.8643 17.1821 17.1821Q15.8643 18.5 14 18.5L6 18.5Q4.1357 18.5 2.81785 17.1821Q1.5 15.8643 1.5 14L1.5 6Q1.5 4.1357 2.81785 2.81785Q4.1357 1.5 6 1.5ZM6.0004 8.05657Q6 8.0283 6 8L6.0004 8C6.0004 8.52524 6.10385 9.04533 6.30485 9.53058C6.50585 10.0158 6.80046 10.4567 7.17186 10.8281C7.54325 11.1995 7.98416 11.4941 8.46942 11.6951C8.95467 11.8961 9.47476 11.9996 10 11.9996C10.5252 11.9996 11.0453 11.8961 11.5306 11.6951C12.0158 11.4942 12.4567 11.1995 12.8281 10.8281C13.1995 10.4567 13.4942 10.0158 13.6951 9.53058C13.8961 9.04533 13.9996 8.52524 13.9996 8L14 8C14 8.01888 13.9999 8.03775 13.9996 8.05661C13.9924 8.56263 13.8893 9.06287 13.6955 9.53073C13.4945 10.016 13.1999 10.457 12.8284 10.8284C12.457 11.1999 12.016 11.4945 11.5307 11.6955C11.0454 11.8965 10.5253 12 10 12C9.47471 12 8.95457 11.8965 8.46926 11.6955C7.98396 11.4945 7.54301 11.1999 7.17157 10.8284C6.80014 10.457 6.5055 10.016 6.30448 9.53073C6.11068 9.06286 6.00756 8.5626 6.0004 8.05657Z" fill="#FCFEFF" fill-rule="evenodd" transform="translate(2 2)" />
  </g>
</svg>
