<?xml version="1.0" encoding="UTF-8" standalone="no"?>
<svg width="24" height="24" viewBox="0 0 24 24" fill="none" version="1.1" id="svg1" xmlns="http://www.w3.org/2000/svg">
  <g id="g1">
    <path id="Union" d="m 17.432273,4.525244 -0.07763,2.54055 -2.74716,-0.08394 0.07507,-2.456613 z m 0.04581,-1.4991471 h 1.518313 c 2.207971,0 3.99739,1.789401 3.99739,3.9974081 v 3.431687 l 0.0062,5.5e-5 -0.0062,0.749537 v 7.812576 c 0,2.207971 -1.789419,3.99739 -3.99739,3.99739 H 5.0036695 c -2.2080087,0 -3.9974099,-1.789419 -3.9974099,-3.99739 v -7.246195 l -0.00625,-5.5e-5 0.00625,-0.749556 V 7.023505 c 0,-2.0603608 1.5580904,-3.7562232 3.5604994,-3.9738082 L 4.5203653,4.5681197 Q 3.7915333,4.7023353 3.2370259,5.256861 2.5054106,5.98846 2.5054106,7.023505 v 3.260954 L 21.494599,10.442696 V 7.023505 q 0,-2.498261 -2.498206,-2.498261 h -1.56412 z m -2.749725,0 -0.04581,1.4991471 H 7.2713915 l 0.04581,-1.4991471 z m 0,0 0.06235,-2.0408469 2.74716,0.083941 -0.05979,1.9569063 z m -7.4111565,0 h -2.313529 c -0.1476461,0 -0.2934235,0.00801 -0.4369105,0.0236 L 4.6298266,0.98525 7.3769865,1.0691906 Z M 4.5203653,4.5681197 Q 4.7531217,4.525244 5.0036695,4.525244 h 2.267722 l -0.07763,2.54055 -2.7471604,-0.08394 z M 5.0036695,21.515566 q -2.4982589,0 -2.4982589,-2.498206 v -7.233699 l 18.9891884,0.158237 v 7.075462 q 0,2.498206 -2.498206,2.498206 z" fill="#fcfeff" fill-rule="evenodd" style="stroke-width:1.8323" />
  </g>
</svg>
