<?xml version="1.0" encoding="UTF-8" standalone="no"?>
<svg width="24" height="24" viewBox="0 0 24 24" fill="none" version="1.1" id="svg1" xmlns="http://www.w3.org/2000/svg">
  <g id="g1">
    <path id="Union" d="m 1.0064208,7.1774755 c 0,-2.2768311 1.8457505,-4.122578 4.1225816,-4.122578 H 18.870942 c 2.276901,0 4.122579,1.8457469 4.122579,4.122578 v 3.2293395 l 0.0065,2.7e-5 -0.0065,1.030741 v 5.359241 c 0,2.276899 -1.845678,4.122578 -4.122579,4.122578 h -1.717465 l -5.49e-4,0.0257 -1.030371,-0.0257 H 5.1290024 c -2.2768311,0 -4.1225816,-1.845679 -4.1225816,-4.122578 v -4.466113 l -0.006441,-4.1e-5 0.00644,-1.030617 z m 16.1985882,11.6806385 0.08534,-3.40973 -2.060739,-0.0515 -0.08644,3.461233 H 5.1290024 c -1.1384224,0 -2.0612889,-0.922908 -2.0612889,-2.061288 v -4.453223 l 17.8645175,0.111653 v 4.34157 c 0,1.13838 -0.922906,2.061288 -2.061288,2.061288 z M 20.932231,7.1774755 V 10.393924 L 3.0677135,10.282272 V 7.1774755 c 0,-1.1384224 0.9228665,-2.061289 2.0612889,-2.061289 H 18.870942 c 1.138382,0 2.061289,0.9228666 2.061289,2.061289 z" fill="#fcfeff" fill-rule="evenodd" style="stroke-width:1.37419" />
  </g>
</svg>
