<?xml version="1.0" encoding="UTF-8" standalone="no"?>
<svg width="24" height="24" viewBox="0 0 24 24" fill="none" version="1.1" id="svg1" xmlns="http://www.w3.org/2000/svg">
  <g id="g1">
    <path id="Rectangle 89" d="M 6.2962964,9.148148 C 6.2962964,5.998074 8.849926,3.4444444 12,3.4444444 c 3.150074,0 5.703704,2.5536296 5.703704,5.7037036 V 12 c 0,0.675009 0.547213,1.222222 1.222222,1.222222 0.675009,0 1.222222,-0.547213 1.222222,-1.222222 V 9.148148 C 20.148148,4.6480563 16.500092,1 12,1 7.499908,1 3.851852,4.6480563 3.851852,9.148148 v 7.740741 C 3.851852,20.264015 6.5878861,23 9.962963,23 c 3.375077,0 6.111111,-2.735985 6.111111,-6.111111 V 9.240141 c 0,-1.850852 -1.5004,-3.351252 -3.351252,-3.351252 h -1.25558 c -1.505811,0 -2.726501,1.22069 -2.726501,2.726501 v 7.458684 c 0,0.675009 0.547213,1.222222 1.222222,1.222222 0.675009,0 1.222222,-0.547213 1.222222,-1.222222 V 8.61539 c 0,-0.155777 0.12628,-0.282057 0.282057,-0.282057 h 1.25558 c 0.500818,0 0.906808,0.40599 0.906808,0.906808 v 7.648748 c 0,2.024978 -1.641624,3.666667 -3.666667,3.666667 -2.025043,0 -3.6666666,-1.641689 -3.6666666,-3.666667 z" fill="#fcfeff" fill-rule="evenodd" style="stroke-width:1.62963" />
  </g>
</svg>
