<?xml version="1.0" encoding="UTF-8" standalone="no"?>
<svg width="24" height="24" viewBox="0 0 24 24" fill="none" version="1.1" id="svg1" xmlns="http://www.w3.org/2000/svg">
  <g id="g1">
    <path id="Union" d="M 23,5.4 C 23,2.969616 21.03034,1 18.6,1 H 5.4 C 2.969616,1 1,2.969616 1,5.4 V 18.6 C 1,21.03034 2.969616,23 5.4,23 H 18.6 C 21.03034,23 23,21.03034 23,18.6 Z M 5.4,2.65 h 13.2 q 2.75,0 2.75,2.75 v 13.2 q 0,2.75 -2.75,2.75 H 5.4 q -2.75,0 -2.75,-2.75 V 5.4 q 0,-2.75 2.75,-2.75 z m 7.57504,11 c 0,0.45562 0.36927,0.825 0.825,0.825 h 4.19991 c 0.41063,0 0.75867,-0.30184 0.81675,-0.70829 L 19.41675,9.566668 C 19.4811,9.115613 19.16771,8.697723 18.71671,8.633296 18.2656,8.568858 17.84771,8.88227 17.78325,9.333325 L 17.41662,11.899889 12.58333,7.066632 C 12.30525,6.788563 11.869584,6.745421 11.542367,6.963562 L 8.505124,8.988398 5.983363,6.466637 c -0.322179,-0.322179 -0.844547,-0.322179 -1.166726,0 -0.322179,0.322179 -0.322179,0.844547 0,1.166726 l 2.999997,2.999997 c 0.27808,0.27808 0.713779,0.321222 1.040996,0.103081 L 11.894884,8.711605 16.00829,12.825 h -2.20825 c -0.45573,0 -0.825,0.36938 -0.825,0.825 z" fill="#fcfeff" fill-rule="evenodd" style="stroke-width:1.1" />
  </g>
</svg>
