<?xml version="1.0" encoding="UTF-8" standalone="no"?>
<svg width="24" height="24" viewBox="0 0 24 24" fill="none" version="1.1" id="svg1" xmlns="http://www.w3.org/2000/svg">
  <g id="g1">
    <path id="Union" d="M 9.6533491,4.0470838 C 11.617346,3.2208175 13.817507,3.1504692 15.830203,3.8495792 c 2.012696,0.69911 3.695565,2.1182236 4.724463,3.9840367 1.028899,1.8658032 1.33098,4.0463641 0.8482,6.1216141 -0.482879,2.07525 -1.716498,3.898423 -3.463293,5.118414 -1.746892,1.219991 -3.883323,1.75052 -5.99789,1.489325 -2.1146251,-0.261098 -4.0578262,-1.295487 -5.4553304,-2.90384 -0.2486162,-0.2861 -0.6821087,-0.316494 -0.9682375,-0.06795 -0.286119,0.248646 -0.3165232,0.682109 -0.067907,0.968307 1.6198441,1.864156 3.8721854,3.063067 6.3232279,3.365834 2.450963,0.302669 4.927321,-0.31218 6.952077,-1.726303 C 20.750269,18.784894 22.180178,16.6717 22.739826,14.26623 23.299475,11.860861 22.949253,9.3334217 21.756715,7.170783 20.564177,5.0081444 18.613544,3.3632495 16.280628,2.5529196 13.947712,1.7425897 11.397428,1.8241339 9.1210552,2.7818481 6.8446533,3.7395613 5.0031264,5.5057102 3.9511573,7.740109 3.354094,9.0082999 3.0353451,10.376419 3.0015289,11.754873 H 1.3920906 q -0.05162,0 -0.101481,0.01336 -0.04986,0.01335 -0.094565,0.03919 -0.044703,0.02579 -0.081204,0.06226 -0.036501,0.03657 -0.062311,0.08128 -0.02581,0.04461 -0.03917,0.09452 -0.013359,0.0499 -0.013359,0.101477 0,0.05167 0.01336,0.101478 0.01336,0.04991 0.03917,0.09461 l 2.2927496,3.971075 q 0.025816,0.04471 0.062318,0.08128 0.036493,0.03647 0.081202,0.06226 0.044699,0.02579 0.094566,0.03922 0.049857,0.01333 0.1014781,0.01333 0.051621,0 0.101478,-0.01333 0.049866,-0.01343 0.094566,-0.03922 0.044709,-0.02579 0.081202,-0.06226 0.036503,-0.03657 0.062318,-0.08128 L 6.317154,12.343048 q 0.025816,-0.04471 0.03917,-0.09461 0.013364,-0.04981 0.013364,-0.101478 0,-0.05157 -0.013364,-0.101478 -0.013354,-0.0499 -0.03917,-0.09452 Q 6.291348,11.906252 6.254846,11.869682 6.218343,11.833212 6.173644,11.807422 6.128935,11.781592 6.079078,11.768232 6.029221,11.754872 5.9776,11.754872 H 4.3746588 C 4.4081417,10.577002 4.682799,9.4086037 5.1930521,8.3247989 6.1006381,6.3970794 7.6894014,4.8733502 9.6533491,4.0470838 Z M 9.1599404,6.9015771 c 0.406118,0 0.735348,0.3292299 0.735348,0.7353479 v 5.294505 l 0.010501,9.8e-5 6.8632076,0.09805 q 0.07246,9.81e-4 0.143246,0.01618 0.07089,0.0151 0.137363,0.04383 0.06648,0.02863 0.126186,0.06971 0.05961,0.04108 0.110106,0.09305 0.05049,0.05196 0.08981,0.112754 0.03942,0.06079 0.06618,0.128048 0.02677,0.06736 0.03981,0.13854 0.01314,0.07128 0.01216,0.143638 -0.0011,0.07246 -0.01618,0.143246 -0.0152,0.07079 -0.04383,0.137363 -0.02873,0.06648 -0.06981,0.126087 -0.04108,0.05971 -0.09305,0.110204 -0.05187,0.0504 -0.112656,0.08981 -0.06079,0.03932 -0.128146,0.06608 -0.06726,0.02677 -0.13854,0.0399 -0.07118,0.01314 -0.143638,0.01206 l -6.8527263,-0.09785 v 0.0402 c 0,0.406108 -0.32923,0.735347 -0.735348,0.735347 -0.4061179,0 -0.7353479,-0.329239 -0.7353479,-0.735347 V 7.636925 c 0,-0.406118 0.32923,-0.7353479 0.7353479,-0.7353479 z" fill="#fcfeff" fill-rule="evenodd" style="stroke-width:0.980464" />
  </g>
</svg>
