<?xml version="1.0" encoding="UTF-8" standalone="no"?>
<svg width="24" height="24" viewBox="0 0 24 24" fill="none" version="1.1" id="svg1" xmlns="http://www.w3.org/2000/svg">
  <g id="g1">
    <path id="Vector 16" d="M 4.8344863,6.2989346 4.6054374,6.0952635 4.3031056,6.1456705 1.7398569,6.573025 0.99999997,6.6963773 1.2371187,7.4079764 2.3161386,10.646148 1.6425019,10.870777 1.2042445,11.016912 v 1.71281 l 0.3542749,0.177192 c 1.1368852,0.568632 4.0655454,1.536099 7.5691047,1.404355 l -0.6417204,2.567814 -0.2311412,0.924832 0.9437342,-0.134873 2.9904563,-0.42739 0.194874,-0.0278 0.145642,-0.132515 4.580772,-4.165587 c 1.599506,-0.40862 3.650505,-1.062792 4.808057,-1.783078 0.301747,-0.187797 0.590674,-0.408497 0.792112,-0.6673 0.206054,-0.264834 0.377543,-0.6521515 0.240208,-1.0925671 C 22.825181,8.9706615 22.492869,8.7040635 22.15666,8.521528 21.805579,8.3309719 21.338086,8.1709188 20.7589,8.032353 20.124431,7.8805666 19.475603,7.8856641 18.870467,7.975337 L 8.4556059,9.5188218 Z M 4.4085223,7.3245806 5.4341754,6.2989346 4.4085223,7.3245908 Z M 9.5115568,17.904736 8.4859037,16.879083 9.5115466,17.904634 Z m 2.3010832,-1.904309 -1.851796,0.264629 0.62329,-2.493968 0.218812,-0.87556 -0.898779,0.08174 C 6.6447948,13.273677 3.8109665,12.476857 2.511146,11.932584 L 3.3296788,11.659648 3.9376654,11.456917 3.7350579,10.848888 2.6905533,7.7142877 4.2116174,7.4606847 7.8274344,10.675862 8.0511909,10.874828 8.3473688,10.83093 19.05847,9.2435468 c 0.485749,-0.071991 0.964113,-0.069109 1.40217,0.035693 0.528416,0.1264118 0.873754,0.2547107 1.08432,0.3690505 0.05087,0.02758 0.08913,0.051724 0.117643,0.071786 -0.07641,0.082401 -0.210772,0.1928542 -0.421646,0.3240657 -1.008217,0.627321 -2.980138,1.262733 -4.598926,1.667579 l -0.156515,0.03913 -0.119283,0.108504 -4.553593,4.141073 z" fill="#fcfeff" fill-rule="evenodd" style="stroke-width:1.02565" />
  </g>
</svg>
