<?xml version="1.0" encoding="utf-8"?>
<svg width="24" height="23" viewBox="0 0 24 23" fill="none" xmlns="http://www.w3.org/2000/svg">
  <g>
    <g transform="translate(7.5 3)">
      <path id="Ellipse 1" d="M0 4.5C0 2.01472 2.01472 0 4.5 0C6.98528 0 9 2.01472 9 4.5C9 6.98528 6.98528 9 4.5 9C2.01472 9 0 6.98528 0 4.5Z" />
      <path d="M4.5 0C2.01472 0 0 2.01472 0 4.5C0 6.98528 2.01472 9 4.5 9C6.98528 9 9 6.98528 9 4.5C9 2.01472 6.98528 0 4.5 0ZM4.5 7.5Q1.5 7.5 1.5 4.5Q1.5 1.5 4.5 1.5Q7.5 1.5 7.5 4.5Q7.5 7.5 4.5 7.5Z" fill="#FCFEFF" fill-rule="evenodd" />
    </g>
    <path id="Rectangle 1" d="M0 6C0 2.68629 2.68629 0 6 0L14 0C17.3137 0 20 2.68629 20 6C20 7.10457 19.1046 8 18 8L2 8C0.895431 8 0 7.10457 0 6L0 6ZM6 1.5C3.51472 1.5 1.5 3.51472 1.5 6C1.5 6.27614 1.72386 6.5 2 6.5L18 6.5C18.2761 6.5 18.5 6.27614 18.5 6C18.5 3.51472 16.4853 1.5 14 1.5L6 1.5L6 1.5Z" fill="#FCFEFF" fill-rule="evenodd" transform="translate(2 14)" />
  </g>
</svg>
