<?xml version="1.0" encoding="UTF-8" standalone="no"?>
<svg width="24" height="24" viewBox="0 0 24 24" fill="none" version="1.1" id="svg1" xmlns="http://www.w3.org/2000/svg">
  <g id="g1">
    <path id="Union" d="M 6.9007278,22.609168 20.900922,14.526183 q 0.165628,-0.09555 0.317336,-0.21199 0.15159,-0.116435 0.286782,-0.251628 0.135193,-0.135192 0.251628,-0.286781 0.116435,-0.151708 0.21199,-0.317337 0.09555,-0.16551 0.168695,-0.342227 0.07326,-0.1766 0.122687,-0.361256 0.04955,-0.184669 0.07444,-0.374221 0.02501,-0.189552 0.02501,-0.380744 0,-0.19118 -0.02501,-0.380732 -0.02489,-0.189552 -0.07444,-0.374233 -0.04943,-0.184668 -0.122687,-0.361303 -0.07314,-0.176635 -0.168698,-0.342216 Q 21.8731,10.375946 21.756665,10.224274 21.64023,10.07259 21.505038,9.9373974 21.369845,9.8022051 21.218255,9.6858172 21.066547,9.5694293 20.900919,9.4738385 L 6.9007278,1.3907979 Q 6.7351468,1.2952043 6.5585121,1.2220401 6.3818774,1.1488758 6.1972091,1.0993925 6.012529,1.0499094 5.8229767,1.0249543 q -0.1895523,-0.024955 -0.3807325,-0.024955 -0.191192,0 -0.3807443,0.0249551 Q 4.8719477,1.0499094 4.6872793,1.099392 4.5025992,1.1488758 4.3259645,1.2220401 4.1493298,1.2952043 3.9837606,1.3907979 3.8181914,1.4863916 3.6665071,1.6027796 3.5148229,1.7191675 3.3796424,1.8543574 3.2444503,1.9895473 3.1280622,2.1412268 3.0116741,2.2929016 2.916084,2.4584827 2.8204822,2.6240519 2.7473202,2.8006866 2.6741561,2.9773212 2.6246728,3.1620013 2.5751896,3.3466697 2.5502345,3.5362219 2.5252794,3.7257742 2.5252794,3.9169662 v 7.9566408 q -0.1737574,0 -0.334609,0.06571 -0.1608516,0.06572 -0.2849053,0.187381 -0.1256485,0.123231 -0.1945748,0.285155 -0.068926,0.161935 -0.070638,0.337921 -8.472e-4,0.0871 0.015322,0.172742 0.016168,0.08565 0.048732,0.166454 0.032564,0.0808 0.08027,0.153831 0.047706,0.0729 0.1087236,0.135075 0.061017,0.06217 0.132998,0.111363 0.071982,0.04908 0.1521633,0.08317 0.08018,0.03421 0.1654783,0.05202 0.085298,0.01781 0.1724361,0.01864 l 0.00861,1.17e-4 v 6.439799 q 0,0.191227 0.024954,0.380803 0.024955,0.189576 0.074439,0.374197 0.049482,0.18474 0.1226462,0.361339 0.073164,0.176599 0.1687544,0.342227 0.095602,0.16551 0.21199,0.317218 0.116388,0.151708 0.2515684,0.286901 0.1351922,0.135192 0.2868764,0.251509 0.1516726,0.116435 0.3172535,0.211989 0.1655692,0.09567 0.3422039,0.168814 0.1766347,0.07314 0.3613149,0.122569 0.1846683,0.04955 0.3742206,0.07444 0.1895522,0.02501 0.3807442,0.02501 0.1911802,0 0.3807325,-0.02501 0.1895523,-0.02489 0.3742324,-0.07444 0.1846683,-0.04942 0.361303,-0.122569 0.1766347,-0.07314 0.3422157,-0.168814 z M 4.294809,13.66041 v 6.422575 q 0,0.662513 0.5737176,0.993769 0.5737176,0.331256 1.1474352,0 L 20.016156,12.99365 q 0.5738,-0.331173 0.5738,-0.993651 0,-0.662466 -0.5738,-0.993698 L 6.0159618,2.9232561 q -0.5737176,-0.3312327 -1.1474352,0 Q 4.294809,3.2544888 4.294809,3.9169662 v 7.9738058 l 10.372995,0.100852 q 0.08718,8.37e-4 0.172471,0.01867 0.08529,0.01783 0.165393,0.05196 0.08022,0.03413 0.152179,0.08325 0.07208,0.04911 0.133069,0.111328 0.06099,0.06221 0.10865,0.135133 0.04778,0.07293 0.08033,0.15376 0.03256,0.08083 0.04872,0.166454 0.01616,0.08564 0.01533,0.172824 -8.26e-4,0.08706 -0.01876,0.172353 -0.01781,0.08529 -0.05191,0.16551 -0.03409,0.08022 -0.08329,0.152179 -0.04908,0.07196 -0.111244,0.132951 -0.06229,0.06099 -0.135192,0.108767 -0.0729,0.04766 -0.153715,0.08022 -0.0808,0.03256 -0.166453,0.04872 -0.08565,0.01616 -0.172824,0.01533 z" fill="#fcfeff" fill-rule="evenodd" style="stroke-width:1.17969" />
  </g>
</svg>
