<?xml version="1.0" encoding="utf-8"?>
<svg width="100" height="184" viewBox="0 0 100 184" fill="none" xmlns="http://www.w3.org/2000/svg">
  <path id="Union" d="M51.9615 15.257L51.9615 45.7709L25.9808 61.0278L1.52588e-05 45.7709L0 15.257L25.9808 0L51.9615 15.257ZM25.9808 2.31936L2 16.4018L2.00002 44.626L25.9808 58.7085L49.9615 44.626L49.9615 16.4018L25.9808 2.31936ZM134.962 61.7495L134.962 91.7495L108.981 106.749L83 91.7495L83 61.7495L108.981 46.7495L134.962 61.7495ZM79.9615 93.576L79.9615 63.0621L53.9808 47.8052L28 63.0621L28 93.576L53.9808 108.833L79.9615 93.576ZM108.981 49.0589L85 62.9042L85 90.5948L108.981 104.44L132.962 90.5948L132.962 62.9042L108.981 49.0589ZM30 64.207L53.9808 50.1245L77.9615 64.207L77.9615 92.4312L53.9808 106.514L30 92.4312L30 64.207ZM106.962 138.749L106.962 108.749L80.9808 93.7495L55 108.749L55 138.749L80.9808 153.749L106.962 138.749ZM57 109.904L80.9808 96.0589L104.962 109.904L104.962 137.595L80.9808 151.44L57 137.595L57 109.904ZM78.9615 154.749L78.9615 184.749L52.9808 199.749L27 184.749L27 154.749L52.9808 139.749L78.9615 154.749ZM52.9808 142.059L29 155.904L29 183.595L52.9808 197.44L76.9615 183.595L76.9615 155.904L52.9808 142.059ZM51.9616 231.749L51.9616 201.749L25.9808 186.749L1.52588e-05 201.749L3.05176e-05 231.749L25.9808 246.749L51.9616 231.749ZM105.962 231.749L105.962 201.749L79.9808 186.749L54 201.749L54 231.749L79.9808 246.749L105.962 231.749ZM2.00002 202.904L25.9808 189.059L49.9615 202.904L49.9615 230.595L25.9808 244.44L2.00003 230.595L2.00002 202.904ZM56 202.904L79.9808 189.059L103.962 202.904L103.962 230.595L79.9808 244.44L56 230.595L56 202.904Z" fill="#FFFFFF" fill-rule="evenodd" fill-opacity="0.11" transform="translate(0 -47.749)" />
</svg>