<?xml version="1.0" encoding="utf-8"?>
<svg width="470" height="345" viewBox="0 0 470 345" fill="none" xmlns="http://www.w3.org/2000/svg">
  <g opacity="0.2">
    <rect width="470" height="345" />
    <path id="Union" d="M292.948 134.605C296.969 118.143 296.118 103.072 294.192 89.3613C293.229 82.5137 291.996 75.9846 290.969 69.8127C289.94 63.6301 289.117 57.7949 288.962 52.284C288.652 41.2835 291.003 31.6083 299.702 23.1168C308.433 14.5943 323.608 7.21461 349.081 0.971252L348.843 0C323.316 6.25665 307.928 13.6894 299.003 22.4012C290.046 31.1442 287.647 41.1252 287.962 52.3122C288.119 57.8951 288.953 63.7865 289.982 69.9768C291.014 76.178 292.241 82.6685 293.201 89.5005C295.119 103.15 295.955 118.079 291.976 134.367C283.999 167.024 269.437 189.392 245.457 203.618C221.448 217.862 187.933 223.986 141.962 223.986C104.973 223.986 73.6015 244.005 49.4402 268.951C25.2767 293.899 8.2698 323.83 0 343.795L0.923876 344.177C9.15408 324.308 26.0971 294.49 50.1586 269.646C74.2223 244.801 105.351 224.986 141.962 224.986C143.981 224.986 145.977 224.974 147.95 224.95C117.01 229.225 90.4889 247.218 69.4402 268.951C45.2767 293.899 28.2698 323.83 20 343.795L20.9239 344.177C29.1541 324.308 46.0971 294.49 70.1586 269.646C94.2223 244.801 125.351 224.986 161.962 224.986C163.981 224.986 165.977 224.974 167.95 224.95C137.01 229.225 110.489 247.218 89.4402 268.951C65.2767 293.899 48.2698 323.83 40 343.795L40.9239 344.177C49.1541 324.308 66.0971 294.49 90.1586 269.646C114.222 244.801 145.351 224.986 181.962 224.986C183.981 224.986 185.977 224.974 187.95 224.95C157.01 229.225 130.489 247.218 109.44 268.951C85.2767 293.899 68.2698 323.83 60 343.795L60.9239 344.177C69.1541 324.308 86.0971 294.49 110.159 269.646C134.222 244.801 165.351 224.986 201.962 224.986C203.981 224.986 205.977 224.974 207.95 224.95C177.01 229.225 150.489 247.218 129.44 268.951C105.277 293.899 88.2698 323.83 80 343.795L80.9239 344.177C89.1541 324.308 106.097 294.49 130.159 269.646C154.222 244.801 185.351 224.986 221.962 224.986C223.981 224.986 225.977 224.974 227.95 224.95C197.01 229.225 170.489 247.218 149.44 268.951C125.277 293.899 108.27 323.83 100 343.795L100.924 344.177C109.154 324.308 126.097 294.49 150.159 269.646C174.222 244.801 205.351 224.986 241.962 224.986C243.981 224.986 245.977 224.974 247.95 224.95C217.01 229.225 190.489 247.218 169.44 268.951C145.277 293.899 128.27 323.83 120 343.795L120.924 344.177C129.154 324.308 146.097 294.49 170.159 269.646C194.222 244.801 225.351 224.986 261.962 224.986C307.991 224.986 341.726 218.86 365.967 204.479C390.237 190.08 404.925 167.448 412.948 134.605C416.969 118.143 416.118 103.072 414.192 89.3613C413.229 82.5137 411.996 75.9846 410.969 69.8127C409.94 63.6301 409.117 57.7949 408.962 52.284C408.652 41.2835 411.003 31.6083 419.702 23.1168C428.433 14.5943 443.608 7.21461 469.081 0.971252L468.843 0C443.316 6.25665 427.928 13.6894 419.003 22.4012C410.046 31.1442 407.647 41.1252 407.962 52.3122C408.119 57.8951 408.953 63.7865 409.982 69.9768C411.014 76.178 412.241 82.6685 413.201 89.5005C415.119 103.15 415.955 118.079 411.976 134.367C403.999 167.024 389.437 189.392 365.457 203.618C343.541 216.62 313.705 222.856 273.704 223.845C303.995 221.477 327.682 215.326 345.967 204.479C370.237 190.08 384.925 167.448 392.948 134.605C396.969 118.143 396.118 103.072 394.192 89.3613C393.229 82.5137 391.996 75.9846 390.969 69.8127C389.94 63.6301 389.117 57.7949 388.962 52.284C388.652 41.2835 391.003 31.6083 399.702 23.1168C408.433 14.5943 423.608 7.21461 449.081 0.971252L448.843 0C423.316 6.25665 407.928 13.6894 399.003 22.4012C390.046 31.1442 387.647 41.1252 387.962 52.3122C388.119 57.8951 388.953 63.7865 389.982 69.9768C391.014 76.178 392.241 82.6685 393.201 89.5005C395.119 103.15 395.955 118.079 391.976 134.367C383.999 167.024 369.437 189.392 345.457 203.618C323.541 216.62 293.705 222.856 253.704 223.845C283.995 221.477 307.682 215.326 325.967 204.479C350.237 190.08 364.925 167.448 372.948 134.605C376.969 118.143 376.118 103.072 374.192 89.3613C373.229 82.5137 371.996 75.9846 370.969 69.8127C369.94 63.6301 369.117 57.7949 368.962 52.284C368.652 41.2835 371.003 31.6083 379.702 23.1168C388.433 14.5943 403.608 7.21461 429.081 0.971252L428.843 0C403.316 6.25665 387.928 13.6894 379.003 22.4012C370.046 31.1442 367.647 41.1252 367.962 52.3122C368.119 57.8951 368.953 63.7865 369.982 69.9768C371.014 76.178 372.241 82.6685 373.201 89.5005C375.119 103.15 375.955 118.079 371.976 134.367C363.999 167.024 349.437 189.392 325.457 203.618C303.541 216.62 273.705 222.856 233.704 223.845C263.995 221.477 287.682 215.326 305.967 204.479C330.237 190.08 344.925 167.448 352.948 134.605C356.969 118.143 356.118 103.072 354.192 89.3613C353.229 82.5137 351.996 75.9846 350.969 69.8127C349.94 63.6301 349.117 57.7949 348.962 52.284C348.652 41.2835 351.003 31.6083 359.702 23.1168C368.433 14.5943 383.608 7.21461 409.081 0.971252L408.843 0C383.316 6.25665 367.928 13.6894 359.003 22.4012C350.046 31.1442 347.647 41.1252 347.962 52.3122C348.119 57.8951 348.953 63.7865 349.982 69.9768C351.014 76.178 352.241 82.6685 353.201 89.5005C355.119 103.15 355.955 118.079 351.976 134.367C343.999 167.024 329.437 189.392 305.457 203.618C283.541 216.62 253.705 222.856 213.704 223.845C243.995 221.477 267.682 215.326 285.967 204.479C310.237 190.08 324.925 167.448 332.948 134.605C336.969 118.143 336.118 103.072 334.192 89.3613C333.229 82.5137 331.996 75.9846 330.969 69.8127C329.94 63.6301 329.117 57.7949 328.962 52.284C328.652 41.2835 331.003 31.6083 339.702 23.1168C348.433 14.5943 363.608 7.21461 389.081 0.971252L388.843 0C363.316 6.25665 347.928 13.6894 339.003 22.4012C330.046 31.1442 327.647 41.1252 327.962 52.3122C328.119 57.8951 328.953 63.7865 329.982 69.9768C331.014 76.178 332.241 82.6685 333.201 89.5005C335.119 103.15 335.955 118.079 331.976 134.367C323.999 167.024 309.437 189.392 285.457 203.618C263.541 216.62 233.705 222.856 193.704 223.845C223.995 221.477 247.682 215.326 265.967 204.479C290.237 190.08 304.925 167.448 312.948 134.605C316.969 118.143 316.118 103.072 314.192 89.3613C313.229 82.5137 311.996 75.9846 310.969 69.8127C309.94 63.6301 309.117 57.7949 308.962 52.284C308.652 41.2835 311.003 31.6083 319.702 23.1168C328.433 14.5943 343.608 7.21461 369.081 0.971252L368.843 0C343.316 6.25665 327.928 13.6894 319.003 22.4012C310.046 31.1442 307.647 41.1252 307.962 52.3122C308.119 57.8951 308.953 63.7865 309.982 69.9768C311.014 76.178 312.241 82.6685 313.201 89.5005C315.119 103.15 315.955 118.079 311.976 134.367C303.999 167.024 289.437 189.392 265.457 203.618C243.541 216.62 213.705 222.856 173.704 223.845C203.995 221.477 227.682 215.326 245.967 204.479C270.237 190.08 284.925 167.448 292.948 134.605Z" fill="#FFFFFF" fill-rule="evenodd" transform="translate(0.538 0.014)" />
  </g>
</svg>