<?xml version="1.0" encoding="utf-8"?>
<svg width="28" height="28" viewBox="0 0 28 28" fill="none" xmlns="http://www.w3.org/2000/svg">
  <g>
    <rect width="28" height="28" />
    <g id="vuesax/linear/code" transform="translate(1.333 1.333)">
      <g id="code">
        <path id="Vector" d="M1.44743 0.105794C0.953455 -0.141199 0.352783 0.0590286 0.105793 0.553006C-0.1412 1.04699 0.0590286 1.64766 0.553007 1.89465C1.54078 2.38853 2.38728 3.13437 3.00178 4.06116L3.00176 4.06117L3.00563 4.06693C3.18675 4.33602 3.18675 4.67609 3.00563 4.94518L3.00458 4.94675C2.38924 5.8647 1.54131 6.61164 0.553007 7.10579C0.0590286 7.35278 -0.1412 7.95345 0.105793 8.44743C0.352783 8.94141 0.953455 9.14164 1.44743 8.89465C2.74523 8.24575 3.8569 7.26659 4.66481 6.06193C5.2996 5.11881 5.30036 3.89735 4.66709 2.95358C3.85839 1.7348 2.74549 0.754823 1.44743 0.105794L1.44743 0.105794ZM4.00563 3.50822L3.00563 4.50822L4.00504 3.50881L4.00563 3.50822L4.00563 3.50822Z" fill="#0C0C0C" fill-rule="evenodd" transform="translate(5.705 8.166)" />
        <path id="Vector" d="M0 1C0 0.447715 0.447715 0 1 0L5.66667 0C6.21895 0 6.66667 0.447715 6.66667 1C6.66667 1.55229 6.21895 2 5.66667 2L1 2C0.447715 2 0 1.55229 0 1L0 1Z" fill="#0C0C0C" fill-rule="evenodd" transform="translate(12.833 15.167)" />
        <path id="Vector" d="M9.16667 0C6.15137 0 3.78052 0.596935 2.18873 2.18873C0.596935 3.78052 0 6.15137 0 9.16667L0 16.1667C0 19.182 0.596935 21.5528 2.18873 23.1446C3.78052 24.7364 6.15137 25.3333 9.16667 25.3333L16.1667 25.3333C19.182 25.3333 21.5528 24.7364 23.1446 23.1446C24.7364 21.5528 25.3333 19.182 25.3333 16.1667L25.3333 9.16667C25.3333 6.15137 24.7364 3.78052 23.1446 2.18873C21.5528 0.596935 19.182 0 16.1667 0L9.16667 0L9.16667 0ZM2 9.16667C2 6.34863 2.56973 4.63615 3.60294 3.60294C4.63615 2.56973 6.34863 2 9.16667 2L16.1667 2C18.9847 2 20.6972 2.56973 21.7304 3.60294C22.7636 4.63615 23.3333 6.34863 23.3333 9.16667L23.3333 16.1667C23.3333 18.9847 22.7636 20.6972 21.7304 21.7304C20.6972 22.7636 18.9847 23.3333 16.1667 23.3333L9.16667 23.3333C6.34863 23.3333 4.63615 22.7636 3.60294 21.7304C2.56973 20.6972 2 18.9847 2 16.1667L2 9.16667L2 9.16667Z" fill="#0C0C0C" fill-rule="evenodd" />
      </g>
    </g>
  </g>
</svg>