<?xml version="1.0" encoding="utf-8"?>
<svg width="24" height="24" viewBox="0 0 24 24" fill="none" xmlns="http://www.w3.org/2000/svg">
  <g>
    <rect width="24" height="24" />
    <g id="vuesax/linear/crown" transform="translate(0.919 0.985)">
      <g id="crown">
        <path id="Vector" d="M13.0481 1.77525L13.0475 1.77366C12.8802 1.32594 12.6592 0.91521 12.3651 0.599584C12.0673 0.279986 11.634 0 11.0863 0C10.5385 0 10.1052 0.279986 9.8074 0.599584C9.51335 0.91521 9.29231 1.32594 9.12501 1.77366L9.12441 1.77525L7.36668 6.4592C7.34359 6.51851 7.3203 6.54519 7.31166 6.5537L7.31058 6.55475L7.30756 6.55424C7.29437 6.55182 7.25891 6.54238 7.20521 6.50606L3.31465 3.72282L3.31308 3.72169C2.90751 3.43053 2.48866 3.19919 2.07519 3.08627C1.6726 2.97632 1.10465 2.93909 0.616924 3.30543C0.128893 3.67201 0.00642908 4.22835 0.000267097 4.64684C-0.00606089 5.07693 0.100531 5.5459 0.268997 6.0199L0.269621 6.02165L4.4074 17.5954C4.56037 18.0324 4.86586 18.3717 5.18414 18.5967C5.50223 18.8214 5.92224 18.995 6.38125 18.995L15.7813 18.995C16.2397 18.995 16.6564 18.8219 16.9697 18.6061C17.2826 18.3906 17.5876 18.0671 17.7514 17.6522C17.7554 17.642 17.7593 17.6317 17.763 17.6214L21.803 6.31139L21.8041 6.30837C21.9851 5.79647 22.0969 5.29576 22.0896 4.8409C22.0824 4.39773 21.9527 3.82541 21.4544 3.44863C20.9549 3.07088 20.3679 3.10338 19.9388 3.21965C19.5002 3.3385 19.0511 3.58493 18.6106 3.90082L18.608 3.90268L14.952 6.50982C14.9046 6.54242 14.8732 6.5516 14.8612 6.55413C14.8523 6.54546 14.8293 6.519 14.8065 6.46097L13.0481 1.77525L13.0481 1.77525ZM10.9981 2.47475C11.0278 2.39504 11.0575 2.32482 11.0862 2.26339C11.115 2.32482 11.1447 2.39504 11.1744 2.47475L11.175 2.47634L12.935 7.16634L12.9376 7.17312C13.1728 7.78648 13.641 8.27368 14.2716 8.46811C14.9034 8.6629 15.566 8.52301 16.1064 8.14305L16.1119 8.13918L19.7719 5.52919L19.7745 5.52732C19.8567 5.46827 19.9334 5.41688 20.0045 5.37246C19.9816 5.45371 19.9535 5.5424 19.9196 5.63863L19.9195 5.63861L15.8947 16.9061C15.894 16.9069 15.8934 16.9077 15.8926 16.9086C15.8809 16.9224 15.8614 16.941 15.8353 16.9589C15.8092 16.9769 15.7856 16.988 15.7698 16.9935C15.7681 16.9941 15.7666 16.9946 15.7653 16.995L6.3981 16.995L6.39578 16.9942C6.38204 16.9894 6.36118 16.9795 6.33836 16.9633C6.31555 16.9472 6.29946 16.931 6.2906 16.9201L6.28934 16.9185L2.15406 5.35163L6.04942 8.13831C6.05361 8.1413 6.05781 8.14426 6.06204 8.14719C6.60423 8.52255 7.26627 8.66259 7.89853 8.46845C8.5308 8.27431 8.99948 7.78696 9.23493 7.17312L9.23495 7.17313L9.2375 7.16634L10.9975 2.47634L10.9981 2.47475L10.9981 2.47475ZM13.9326 6.81746L12.935 7.81499L13.935 6.81499L13.9326 6.81746L13.9326 6.81746ZM12.1631 2.13616L11.1744 3.12484L12.1744 2.12484L12.1631 2.13616L12.1631 2.13616ZM20.1912 5.71498L19.1912 4.71498L19.2056 4.72921L20.1912 5.71498L20.1912 5.71498ZM16.5312 8.325L15.5312 7.325L15.539 7.33268L16.5312 8.325L16.5312 8.325Z" fill="#FFFFFF" fill-rule="evenodd" />
        <path id="Vector" d="M0 1C0 0.447716 0.447715 0 1 0L12 0C12.5523 0 13 0.447716 13 1C13 1.55228 12.5523 2 12 2L1 2C0.447715 2 0 1.55228 0 1L0 1Z" fill="#FFFFFF" fill-rule="evenodd" transform="translate(4.581 20.015)" />
        <path id="Vector" d="M0 1C0 0.447715 0.447715 0 1 0L6 0C6.55228 0 7 0.447715 7 1C7 1.55229 6.55228 2 6 2L1 2C0.447715 2 0 1.55229 0 1L0 1Z" fill="#FFFFFF" fill-rule="evenodd" transform="translate(7.581 12.015)" />
      </g>
    </g>
  </g>
</svg>