<?xml version="1.0" encoding="utf-8"?>
<svg width="18" height="22" viewBox="0 0 18 22" fill="none" xmlns="http://www.w3.org/2000/svg">
  <g transform="translate(1 1)">
    <rect width="16" height="20" />
    <g id="vuesax/linear/mobile" transform="translate(-1 -1)">
      <g id="mobile">
        <path id="Vector" d="M6 0C4.00715 0 2.3609 0.224886 1.29289 1.29289C0.224886 2.3609 0 4.00715 0 6L0 16C0 17.9929 0.224886 19.6391 1.29289 20.7071C2.3609 21.7751 4.00715 22 6 22L12 22C13.9929 22 15.6391 21.7751 16.7071 20.7071C17.7751 19.6391 18 17.9929 18 16L18 6C18 4.00715 17.7751 2.3609 16.7071 1.29289C15.6391 0.224886 13.9929 0 12 0L6 0L6 0ZM2 6C2 3.99285 2.27511 3.1391 2.70711 2.70711C3.1391 2.27511 3.99285 2 6 2L12 2C14.0071 2 14.8609 2.27511 15.2929 2.70711C15.7249 3.1391 16 3.99285 16 6L16 16C16 18.0071 15.7249 18.8609 15.2929 19.2929C14.8609 19.7249 14.0071 20 12 20L6 20C3.99285 20 3.1391 19.7249 2.70711 19.2929C2.27511 18.8609 2 18.0071 2 16L2 6L2 6Z" fill="#FFFFFF" fill-rule="evenodd" />
        <path id="Vector" d="M0 1C0 0.447715 0.447715 0 1 0L5 0C5.55228 0 6 0.447715 6 1C6 1.55229 5.55228 2 5 2L1 2C0.447715 2 0 1.55229 0 1L0 1Z" fill="#FFFFFF" fill-rule="evenodd" transform="translate(6 3.5)" />
        <path id="Vector" d="M2.55 0C1.14167 0 0 1.14167 0 2.55C0 3.95832 1.14167 5.1 2.55 5.1C3.95833 5.1 5.1 3.95832 5.1 2.55C5.1 1.14167 3.95833 0 2.55 0L2.55 0ZM2 2.55C2 2.24624 2.24624 2 2.55 2C2.85376 2 3.1 2.24624 3.1 2.55C3.1 2.85376 2.85376 3.1 2.55 3.1C2.24624 3.1 2 2.85376 2 2.55L2 2.55Z" fill="#FFFFFF" fill-rule="evenodd" transform="translate(6.45 14)" />
      </g>
    </g>
  </g>
</svg>